<?xml version="1.0" encoding="UTF-8" standalone="no"?>
<svg
   xmlns:dc="http://purl.org/dc/elements/1.1/"
   xmlns:cc="http://creativecommons.org/ns#"
   xmlns:rdf="http://www.w3.org/1999/02/22-rdf-syntax-ns#"
   xmlns:svg="http://www.w3.org/2000/svg"
   xmlns="http://www.w3.org/2000/svg"
   xmlns:xlink="http://www.w3.org/1999/xlink"
   xmlns:sodipodi="http://sodipodi.sourceforge.net/DTD/sodipodi-0.dtd"
   xmlns:inkscape="http://www.inkscape.org/namespaces/inkscape"
   version="1.1"
   width="32"
   height="32"
   id="svg16378"
   inkscape:version="0.91 r13725"
   sodipodi:docname="folder-html.svg">
  <sodipodi:namedview
     pagecolor="#ffffff"
     bordercolor="#666666"
     borderopacity="1"
     objecttolerance="10"
     gridtolerance="10"
     guidetolerance="10"
     inkscape:pageopacity="0"
     inkscape:pageshadow="2"
     inkscape:window-width="2560"
     inkscape:window-height="1372"
     id="namedview64"
     showgrid="false"
     inkscape:zoom="22.925728"
     inkscape:cx="7.0793175"
     inkscape:cy="7.3621811"
     inkscape:window-x="0"
     inkscape:window-y="36"
     inkscape:window-maximized="1"
     inkscape:current-layer="svg16378" />
  <defs
     id="defs16380">
    <linearGradient
       x1="27.557428"
       y1="7.162672"
       x2="27.557428"
       y2="21.386522"
       id="linearGradient15169"
       xlink:href="#linearGradient3454-2-5-0-3-4"
       gradientUnits="userSpaceOnUse"
       gradientTransform="matrix(0.89186139,0,0,1.0539115,3.1212694,5.412539)" />
    <linearGradient
       id="linearGradient3454-2-5-0-3-4">
      <stop
         id="stop3456-4-9-38-1-8"
         style="stop-color:#ffffff;stop-opacity:1"
         offset="0" />
      <stop
         id="stop3458-39-80-3-5-5"
         style="stop-color:#ffffff;stop-opacity:0.23529412"
         offset="0.0097359" />
      <stop
         id="stop3460-7-0-2-4-2"
         style="stop-color:#ffffff;stop-opacity:0.15686275"
         offset="0.99001008" />
      <stop
         id="stop3462-0-9-8-7-2"
         style="stop-color:#ffffff;stop-opacity:0.39215687"
         offset="1" />
    </linearGradient>
    <linearGradient
       x1="22.934725"
       y1="49.629246"
       x2="22.809399"
       y2="36.657963"
       id="linearGradient15177"
       xlink:href="#linearGradient6129-963-697-142-998-580-273-5"
       gradientUnits="userSpaceOnUse"
       gradientTransform="matrix(0.7467531,0,0,0.6554922,-1.9214506,1.167619)" />
    <linearGradient
       id="linearGradient6129-963-697-142-998-580-273-5">
      <stop
         id="stop2661-1"
         style="stop-color:#0a0a0a;stop-opacity:0.498"
         offset="0" />
      <stop
         id="stop2663-85"
         style="stop-color:#0a0a0a;stop-opacity:0"
         offset="1" />
    </linearGradient>
    <linearGradient
       x1="35.792694"
       y1="17.118193"
       x2="35.792694"
       y2="43.761127"
       id="linearGradient15185"
       xlink:href="#linearGradient4632-0-6-4-3-4"
       gradientUnits="userSpaceOnUse"
       gradientTransform="matrix(0.64444432,0,0,0.64285702,0.53395936,0.89285905)" />
    <linearGradient
       id="linearGradient4632-0-6-4-3-4">
      <stop
         id="stop4634-4-4-7-7-4"
         style="stop-color:#b4cee1;stop-opacity:1"
         offset="0" />
      <stop
         id="stop4636-3-1-5-1-3"
         style="stop-color:#5d9fcd;stop-opacity:1"
         offset="1" />
    </linearGradient>
    <linearGradient
       x1="302.85715"
       y1="366.64789"
       x2="302.85715"
       y2="609.50507"
       id="linearGradient15195"
       xlink:href="#linearGradient5048-585-0"
       gradientUnits="userSpaceOnUse"
       gradientTransform="matrix(0.05114282,0,0,0.01591575,-2.4899573,22.29927)" />
    <linearGradient
       id="linearGradient5048-585-0">
      <stop
         id="stop2667-18"
         style="stop-color:#000000;stop-opacity:0"
         offset="0" />
      <stop
         id="stop2669-9"
         style="stop-color:#000000;stop-opacity:1"
         offset="0.5" />
      <stop
         id="stop2671-33"
         style="stop-color:#000000;stop-opacity:0"
         offset="1" />
    </linearGradient>
    <radialGradient
       cx="605.71429"
       cy="486.64789"
       r="117.14286"
       fx="605.71429"
       fy="486.64789"
       id="radialGradient15197"
       xlink:href="#linearGradient5060-179-67"
       gradientUnits="userSpaceOnUse"
       gradientTransform="matrix(0.01983573,0,0,0.01591575,16.38765,22.29927)" />
    <linearGradient
       id="linearGradient5060-179-67">
      <stop
         id="stop2675-81"
         style="stop-color:#000000;stop-opacity:1"
         offset="0" />
      <stop
         id="stop2677-2"
         style="stop-color:#000000;stop-opacity:0"
         offset="1" />
    </linearGradient>
    <radialGradient
       cx="605.71429"
       cy="486.64789"
       r="117.14286"
       fx="605.71429"
       fy="486.64789"
       id="radialGradient15199"
       xlink:href="#linearGradient5060-820-4"
       gradientUnits="userSpaceOnUse"
       gradientTransform="matrix(-0.01983573,0,0,0.01591575,15.60139,22.29927)" />
    <linearGradient
       id="linearGradient5060-820-4">
      <stop
         id="stop2681-5"
         style="stop-color:#000000;stop-opacity:1"
         offset="0" />
      <stop
         id="stop2683-00"
         style="stop-color:#000000;stop-opacity:0"
         offset="1" />
    </linearGradient>
    <linearGradient
       x1="21.37039"
       y1="4.73244"
       x2="21.37039"
       y2="34.143417"
       id="linearGradient15217"
       xlink:href="#linearGradient4325"
       gradientUnits="userSpaceOnUse"
       gradientTransform="matrix(0.54383556,0,0,0.61466406,3.2693194,5.091139)" />
    <linearGradient
       id="linearGradient4325">
      <stop
         id="stop4327"
         style="stop-color:#ffffff;stop-opacity:1"
         offset="0" />
      <stop
         id="stop4329"
         style="stop-color:#ffffff;stop-opacity:0.23529412"
         offset="0.1106325" />
      <stop
         id="stop4331"
         style="stop-color:#ffffff;stop-opacity:0.15686275"
         offset="0.99001008" />
      <stop
         id="stop4333"
         style="stop-color:#ffffff;stop-opacity:0.39215687"
         offset="1" />
    </linearGradient>
    <linearGradient
       x1="62.988873"
       y1="13"
       x2="62.988873"
       y2="16"
       id="linearGradient15225"
       xlink:href="#linearGradient4646-7-4-3-5"
       gradientUnits="userSpaceOnUse"
       gradientTransform="matrix(0.61904762,0,0,0.61904762,-30.391371,1.428569)" />
    <linearGradient
       id="linearGradient4646-7-4-3-5">
      <stop
         id="stop4648-8-0-3-6"
         style="stop-color:#f9f9f9;stop-opacity:1"
         offset="0" />
      <stop
         id="stop4650-1-7-3-4"
         style="stop-color:#d8d8d8;stop-opacity:1"
         offset="1" />
    </linearGradient>
    <linearGradient
       id="linearGradient3104-8-8-97-4-6-11-5-5-0">
      <stop
         id="stop3106-5-4-3-5-0-2-1-0-6"
         style="stop-color:#000000;stop-opacity:0.32173914"
         offset="0" />
      <stop
         id="stop3108-4-3-7-8-2-0-7-9-1"
         style="stop-color:#000000;stop-opacity:0.27826086"
         offset="1" />
    </linearGradient>
    <linearGradient
       x1="-51.786404"
       y1="53.514328"
       x2="-51.786404"
       y2="3.6336823"
       id="linearGradient16376"
       xlink:href="#linearGradient3104-8-8-97-4-6-11-5-5-0"
       gradientUnits="userSpaceOnUse"
       gradientTransform="matrix(0.50703384,0,0,0.50300255,68.029659,1.329769)" />
  </defs>
  <metadata
     id="metadata16383">
    <rdf:RDF>
      <cc:Work
         rdf:about="">
        <dc:format>image/svg+xml</dc:format>
        <dc:type
           rdf:resource="http://purl.org/dc/dcmitype/StillImage" />
        <dc:title />
      </cc:Work>
    </rdf:RDF>
  </metadata>
  <g
     id="layer1">
    <path
       d="m 4.0006194,6.500079 c -0.43342,0.005 -0.5,0.21723 -0.5,0.6349 l 0,1.36502 c -1.24568,0 -1,-0.002 -1,0.54389 0.0216,6.53313 0,6.90143 0,7.456109 0.90135,0 26.9999996,-2.348949 26.9999996,-3.360049 l 0,-4.09606 c 0,-0.41767 -0.34799,-0.54876 -0.78141,-0.54389 l -14.21859,0 0,-1.36502 c 0,-0.41767 -0.26424,-0.63977 -0.69767,-0.6349 l -9.8023296,0 z"
       id="use7687"
       style="opacity:0.8;color:#000000;fill:none;stroke:url(#linearGradient16376);stroke-width:1;stroke-linecap:butt;stroke-linejoin:miter;stroke-miterlimit:4;stroke-opacity:1;stroke-dasharray:none;stroke-dashoffset:0;marker:none;visibility:visible;display:inline;overflow:visible;enable-background:accumulate" />
    <path
       d="m 4.0006194,6.999999 0,2 -1,0 0,4 25.9999996,0 0,-4 -15,0 0,-2 -9.9999996,0 z"
       id="use7689"
       style="color:#000000;fill:url(#linearGradient15225);fill-opacity:1;fill-rule:nonzero;stroke:none;stroke-width:1;marker:none;visibility:visible;display:inline;overflow:visible;enable-background:accumulate" />
    <path
       d="m 4.5006194,7.499999 0,2 -1,0 0,4 24.9999996,0 0,-4 -15,0 0,-2 -8.9999996,0 z"
       id="use7691"
       style="color:#000000;fill:none;stroke:url(#linearGradient15217);stroke-width:1;stroke-linecap:round;stroke-linejoin:miter;stroke-miterlimit:4;stroke-opacity:1;stroke-dasharray:none;stroke-dashoffset:0;marker:none;visibility:visible;display:inline;overflow:visible;enable-background:accumulate" />
    <g
       transform="translate(6.1935663e-4,-1.000001)"
       id="use7693">
      <rect
         width="24.694677"
         height="3.8652544"
         x="3.6471815"
         y="28.134747"
         id="rect15189"
         style="opacity:0.3;fill:url(#linearGradient15195);fill-opacity:1;fill-rule:nonzero;stroke:none;stroke-width:1;marker:none;visibility:visible;display:inline;overflow:visible" />
      <path
         d="m 28.341859,28.13488 c 0,0 0,3.865041 0,3.865041 1.021491,0.0073 2.469468,-0.86596 2.469468,-1.932769 0,-1.06681 -1.139908,-1.932272 -2.469468,-1.932272 z"
         id="path15191"
         style="opacity:0.3;fill:url(#radialGradient15197);fill-opacity:1;fill-rule:nonzero;stroke:none;stroke-width:1;marker:none;visibility:visible;display:inline;overflow:visible" />
      <path
         d="m 3.6471816,28.13488 c 0,0 0,3.865041 0,3.865041 -1.0214912,0.0073 -2.4694678,-0.86596 -2.4694678,-1.932769 0,-1.06681 1.1399068,-1.932272 2.4694678,-1.932272 z"
         id="path15193"
         style="opacity:0.3;fill:url(#radialGradient15199);fill-opacity:1;fill-rule:nonzero;stroke:none;stroke-width:1;marker:none;visibility:visible;display:inline;overflow:visible" />
    </g>
    <path
       d="m 1.9274594,11.499999 c -0.69105,0.0796 -0.32196,0.90258 -0.37705,1.36535 0.0802,0.29906 0.59771,15.717989 0.59771,16.247439 0,0.46018 0.22667,0.38222 0.80101,0.38222 8.4993996,0 17.8980796,0 26.3974796,0 0.61872,0.0143 0.48796,0.007 0.48796,-0.38947 0.0452,-0.20269 0.63993,-16.978479 0.66282,-17.243439 0,-0.279 0.0581,-0.3621 -0.30493,-0.3621 -9.0765,0 -19.18849,0 -28.2649996,0 z"
       id="use7695"
       style="color:#000000;fill:url(#linearGradient15185);fill-opacity:1;fill-rule:nonzero;stroke:none;stroke-width:0.99999994;marker:none;visibility:visible;display:inline;overflow:visible;enable-background:accumulate" />
    <path
       inkscape:connector-curvature="0"
       style="fill:#ffffff;fill-opacity:0.5529412;fill-rule:nonzero;stroke:none;stroke-width:0.99999994;stroke-miterlimit:4;stroke-dasharray:none;opacity:0.3"
       d="m 16,18 a 4,4 0 0 0 -0.794922,0.08008 4,4 0 0 0 -0.01172,0.002 c -0.0061,0.0013 -0.01144,0.0046 -0.01758,0.0059 a 4,4 0 0 0 -0.710937,0.220703 c -0.0068,0.0028 -0.0147,0.003 -0.02149,0.0059 a 4,4 0 0 0 -0.002,0.002 c -0.0054,0.0023 -0.01024,0.0055 -0.01563,0.0078 a 4,4 0 0 0 -0.628906,0.341797 c -0.01466,0.0097 -0.0304,0.01745 -0.04492,0.02734 a 4,4 0 0 0 -0.550781,0.453125 c -0.01322,0.01297 -0.02602,0.02591 -0.03906,0.03906 a 4,4 0 0 0 -0.445312,0.537109 c -0.01554,0.02236 -0.03178,0.04372 -0.04687,0.06641 a 4,4 0 0 0 -0.324219,0.597657 c -0.01398,0.0316 -0.02979,0.06172 -0.04297,0.09375 a 4,4 0 0 0 -0.201172,0.652343 c -0.0076,0.03413 -0.01675,0.06711 -0.02344,0.101563 A 4,4 0 0 0 12,22 a 4,4 0 0 0 0.08008,0.794922 4,4 0 0 0 0.002,0.0059 c 0.0016,0.008 0.0042,0.01544 0.0059,0.02344 a 4,4 0 0 0 0.220703,0.710937 c 0.0028,0.0068 0.003,0.0147 0.0059,0.02148 a 4,4 0 0 0 0.002,0.002 c 0.0023,0.0054 0.0055,0.01024 0.0078,0.01563 a 4,4 0 0 0 0.341797,0.628906 c 0.0097,0.01466 0.01745,0.03039 0.02734,0.04492 a 4,4 0 0 0 0.453125,0.550781 c 0.01297,0.01322 0.02591,0.02602 0.03906,0.03906 a 4,4 0 0 0 0.537109,0.445312 c 0.02236,0.01554 0.04372,0.03178 0.06641,0.04687 a 4,4 0 0 0 0.597657,0.324219 c 0.0316,0.01398 0.06172,0.02979 0.09375,0.04297 a 4,4 0 0 0 0.652343,0.201172 c 0.03413,0.0076 0.06711,0.01675 0.101563,0.02344 A 4,4 0 0 0 16,26 a 4,4 0 0 0 0.794922,-0.08008 4,4 0 0 0 0.01172,-0.002 c 0.0061,-0.0013 0.01145,-0.0046 0.01758,-0.0059 a 4,4 0 0 0 0.710937,-0.220703 4,4 0 0 0 0.02148,-0.0059 c 8.19e-4,-3.47e-4 0.0011,-0.0016 0.002,-0.002 a 4,4 0 0 0 0.01563,-0.0078 4,4 0 0 0 0.628906,-0.341797 c 0.01466,-0.0097 0.03039,-0.01745 0.04492,-0.02734 a 4,4 0 0 0 0.550781,-0.453125 c 0.01322,-0.01297 0.02602,-0.02591 0.03906,-0.03906 a 4,4 0 0 0 0.445312,-0.537109 c 0.01554,-0.02236 0.03178,-0.04372 0.04687,-0.06641 a 4,4 0 0 0 0.324219,-0.597657 c 0.01398,-0.0316 0.02979,-0.06172 0.04297,-0.09375 a 4,4 0 0 0 0.201172,-0.652343 c 0.0076,-0.03413 0.01675,-0.06711 0.02344,-0.101563 A 4,4 0 0 0 20,22 a 4,4 0 0 0 -0.08008,-0.794922 4,4 0 0 0 -0.002,-0.01172 c -0.0013,-0.0061 -0.0046,-0.01145 -0.0059,-0.01758 a 4,4 0 0 0 -0.220703,-0.710937 4,4 0 0 0 -0.0059,-0.02148 c -3.47e-4,-8.19e-4 -0.0016,-0.0011 -0.002,-0.002 a 4,4 0 0 0 -0.0078,-0.01563 4,4 0 0 0 -0.341797,-0.628906 c -0.0097,-0.01466 -0.01745,-0.03039 -0.02734,-0.04492 a 4,4 0 0 0 -0.453125,-0.550781 c -0.01297,-0.01322 -0.02591,-0.02602 -0.03906,-0.03906 a 4,4 0 0 0 -0.537109,-0.445312 c -0.02236,-0.01554 -0.04372,-0.03178 -0.06641,-0.04687 a 4,4 0 0 0 -0.597657,-0.324219 c -0.0316,-0.01398 -0.06172,-0.02979 -0.09375,-0.04297 a 4,4 0 0 0 -0.652343,-0.201172 c -0.03413,-0.0076 -0.06711,-0.01675 -0.101563,-0.02344 A 4,4 0 0 0 16,18 Z m -0.0098,1 c -0.130236,0.05416 -0.258616,0.11229 -0.398437,0.15625 l -0.158203,0.248047 -0.125,0.07422 -0.171875,-0.34961 A 3,3 0 0 1 15.990234,19 Z m 0.236328,0.01172 a 3,3 0 0 1 0.158204,0.01758 l -0.06641,0.04492 -0.0918,-0.0625 z m 0.957032,0.232422 a 3,3 0 0 1 0.328125,0.167968 l 0.02148,0.05859 -0.07227,0.195313 -0.113282,-0.06641 -0.09961,-0.115234 -0.158203,0.115234 -0.05273,-0.261718 0.146485,-0.09375 z m -0.56836,0.04687 0.0918,0 c 0.04553,0.09448 0.08276,0.18274 0.119141,0.28125 l 0.113281,0.107422 -0.125,0.126953 -0.171875,0.0332 0.0332,-0.212891 0,-0.162109 -0.06055,-0.06641 0,-0.107422 z m -2.230468,0.18164 0.0078,0.0059 -0.02734,0.126953 0.164063,-0.06641 0.07422,0.140626 -0.02734,0.09961 0.0918,0.02734 0.08594,0.08008 -0.02539,0.08789 0.105468,0.07422 -0.0918,0.146484 -0.04102,-0.207031 -0.210938,0.07227 -0.164062,0 -0.238281,0.115234 0.376953,0 -0.126953,0.1875 -0.25,0.04687 -0.105469,0.16211 -0.197266,0.08008 -0.0918,0.234375 -0.265625,0.220703 -0.02539,0.322266 -0.152344,-0.19336 -0.138672,-0.03125 a 3,3 0 0 1 0.695313,-1.248047 l 0.01172,0.04492 0.04687,-0.105469 a 3,3 0 0 1 0.169922,-0.158203 l 0.02539,-0.01172 -0.002,-0.0098 a 3,3 0 0 1 0.326172,-0.244141 z m 2.085937,0.0332 0.05859,0.154297 -0.138672,0.07227 -0.02539,-0.19336 0.105469,-0.0332 z m 1.238281,0.0293 A 3,3 0 0 1 19,22 3,3 0 0 1 18.98828,22.216797 l -0.05664,0.05859 c 0.01827,-0.0013 0.0365,-0.0042 0.05469,-0.0059 a 3,3 0 0 1 -0.216797,0.88086 l -0.02344,0.05469 a 3,3 0 0 1 -1.175782,1.347656 c -0.04486,-0.130569 -0.09034,-0.260749 -0.136718,-0.390625 0,-0.120334 0.0066,-0.235153 0.01367,-0.355468 l 0.07227,-0.167969 -0.09961,-0.195313 0.0078,-0.267578 -0.132812,-0.154297 0.06641,-0.228515 -0.111328,-0.126953 -0.193359,0 -0.06445,-0.07422 -0.191407,0.126953 -0.07422,-0.09375 -0.177734,0.154297 c -0.120619,-0.139056 -0.242485,-0.277059 -0.363281,-0.416016 l -0.144531,-0.341797 0.132812,-0.195312 -0.07227,-0.08008 0.150391,-0.376953 c 0.128262,-0.162247 0.266832,-0.318382 0.402344,-0.47461 l 0.238281,-0.06836 0.271484,-0.0332 0.183594,0.05469 0.263672,0.267578 0.09375,-0.107422 0.125,-0.01367 0.244141,0.08008 0.183593,0 0.125,-0.113281 0.06055,-0.08789 -0.125,-0.08008 -0.21875,-0.01367 c -0.05916,-0.08346 -0.113356,-0.173898 -0.183593,-0.248047 l -0.06641,0.0332 -0.0332,0.214844 -0.125,-0.146485 -0.02734,-0.162109 -0.144531,-0.121094 -0.05859,0 0.144531,0.167969 -0.06055,0.148438 -0.111328,0.0332 0.07227,-0.146485 -0.125,-0.06836 -0.11914,-0.134766 -0.210938,0.05469 -0.02539,0.06641 -0.132813,0.08203 -0.06641,0.179688 -0.177734,0.08789 -0.08008,-0.08789 -0.08594,0 0,-0.294922 0.185547,-0.101562 0.138672,0 -0.02734,-0.113282 -0.111328,-0.115234 0.191406,-0.03906 0.105469,-0.121093 0.08594,-0.146485 0.158203,0 -0.04492,-0.115234 0.09766,-0.06641 0,0.126953 0.21875,0.05469 0.210937,-0.18164 0.01367,-0.08008 0.0039,-0.0039 z m 0.69336,1.734375 -0.04492,0.04687 0.06641,0.242188 0.117188,0.134765 c 0.06889,0.202235 0.141958,0.396533 0.232422,0.589844 0.0498,0 0.09608,-0.0046 0.144531,-0.0078 l -0.105469,-0.126953 0.05859,-0.140626 -0.117188,-0.134765 -0.193359,-0.416016 -0.158203,-0.1875 z m -5.386719,0.44336 0.04297,0 c -0.0139,0.111111 -0.03308,0.224806 -0.04687,0.335937 l 0.171875,-0.02148 0,0.173828 0.05273,0.162109 c 0.06687,0.04181 0.155365,0.04436 0.230469,0.06641 l 0,-0.0332 0.251953,-0.220703 0.238281,0.173828 0.269531,-0.0332 0.111329,0.302735 0.205078,0.04687 0.111328,0.220703 c 0.224651,0.117514 0.449443,0.235468 0.675781,0.349609 l -0.02734,0.240234 -0.166015,0.236329 0.02734,0.314453 -0.105468,0.255859 -0.210938,0.04687 -0.09375,0.146484 0.03906,0.09375 -0.05859,0.146485 a 3,3 0 0 1 -1.474609,-1.501953 l 0.04297,-0.154297 -0.02734,-0.05859 0.08789,-0.128906 0.103516,-0.300781 0,-0.02734 -0.07813,-0.04102 -0.113281,0.01953 -0.189453,-0.146485 -0.06836,-0.08398 A 3,3 0 0 1 13,22 3,3 0 0 1 13.01563,21.712891 Z"
       id="path6495-6" />
    <path
       d="m 2.5006194,12.499999 0.62498,15.999999 25.7491696,0 0.62498,-15.999999 z"
       id="use7699"
       style="opacity:0.5;color:#000000;fill:none;stroke:url(#linearGradient15169);stroke-width:1.00000012;stroke-linecap:round;stroke-linejoin:miter;stroke-miterlimit:4;stroke-opacity:1;stroke-dasharray:none;stroke-dashoffset:0;marker:none;visibility:visible;display:inline;overflow:visible;enable-background:accumulate" />
    <path
       d="m 1.9270194,11.499999 c -0.69105,0.0796 -0.32196,0.90258 -0.37705,1.36535 0.0802,0.29906 0.59771,15.717989 0.59771,16.247439 0,0.46018 0.22667,0.38222 0.80101,0.38222 8.4993996,0 17.8980796,0 26.3974796,0 0.61872,0.0143 0.48796,0.007 0.48796,-0.38947 0.0452,-0.20269 0.63993,-16.978479 0.66282,-17.243439 0,-0.279 0.0581,-0.3621 -0.30493,-0.3621 -9.0765,0 -19.18849,0 -28.2649996,0 z"
       id="path3388-5-53"
       style="opacity:0.3;color:#000000;fill:none;stroke:#000000;stroke-width:0.99999994;stroke-linecap:round;stroke-linejoin:round;stroke-miterlimit:4;stroke-opacity:1;stroke-dasharray:none;stroke-dashoffset:0;marker:none;visibility:visible;display:inline;overflow:visible;enable-background:accumulate" />
    <path
       style="fill:#175785;fill-opacity:0.5529412;fill-rule:nonzero;stroke:none;stroke-width:0.99999994;stroke-miterlimit:4;stroke-dasharray:none"
       d="M 16 17 A 4 4 0 0 0 15.205078 17.080078 A 4 4 0 0 0 15.193359 17.082031 C 15.187216 17.083288 15.181914 17.086605 15.175781 17.087891 A 4 4 0 0 0 14.464844 17.308594 C 14.458042 17.311426 14.450142 17.311584 14.443359 17.314453 A 4 4 0 0 0 14.441406 17.316406 C 14.436007 17.318694 14.431168 17.321908 14.425781 17.324219 A 4 4 0 0 0 13.796875 17.666016 C 13.782212 17.675724 13.76648 17.683464 13.751953 17.693359 A 4 4 0 0 0 13.201172 18.146484 C 13.187951 18.159453 13.175149 18.172398 13.162109 18.185547 A 4 4 0 0 0 12.716797 18.722656 C 12.701259 18.745012 12.685012 18.766378 12.669922 18.789062 A 4 4 0 0 0 12.345703 19.386719 C 12.331722 19.418322 12.315915 19.448442 12.302734 19.480469 A 4 4 0 0 0 12.101562 20.132812 C 12.094 20.166941 12.08481 20.199925 12.078125 20.234375 A 4 4 0 0 0 12 21 A 4 4 0 0 0 12.080078 21.794922 A 4 4 0 0 0 12.082031 21.800781 C 12.08366 21.808801 12.086214 21.816217 12.087891 21.824219 A 4 4 0 0 0 12.308594 22.535156 C 12.311426 22.541958 12.311584 22.549858 12.314453 22.556641 A 4 4 0 0 0 12.316406 22.558594 C 12.318694 22.563993 12.321908 22.568832 12.324219 22.574219 A 4 4 0 0 0 12.666016 23.203125 C 12.675724 23.217788 12.683464 23.23352 12.693359 23.248047 A 4 4 0 0 0 13.146484 23.798828 C 13.159452 23.812049 13.172398 23.824851 13.185547 23.837891 A 4 4 0 0 0 13.722656 24.283203 C 13.745012 24.29874 13.766378 24.314988 13.789062 24.330078 A 4 4 0 0 0 14.386719 24.654297 C 14.418322 24.668278 14.448442 24.684085 14.480469 24.697266 A 4 4 0 0 0 15.132812 24.898438 C 15.166942 24.906 15.199924 24.915191 15.234375 24.921875 A 4 4 0 0 0 16 25 A 4 4 0 0 0 16.794922 24.919922 A 4 4 0 0 0 16.806641 24.917969 C 16.812784 24.916712 16.818086 24.913395 16.824219 24.912109 A 4 4 0 0 0 17.535156 24.691406 A 4 4 0 0 0 17.556641 24.685547 C 17.55746 24.6852 17.557775 24.683941 17.558594 24.683594 A 4 4 0 0 0 17.574219 24.675781 A 4 4 0 0 0 18.203125 24.333984 C 18.217788 24.324277 18.23352 24.316536 18.248047 24.306641 A 4 4 0 0 0 18.798828 23.853516 C 18.812049 23.840548 18.82485 23.827602 18.837891 23.814453 A 4 4 0 0 0 19.283203 23.277344 C 19.298741 23.254988 19.314987 23.233622 19.330078 23.210938 A 4 4 0 0 0 19.654297 22.613281 C 19.66828 22.581678 19.684084 22.551558 19.697266 22.519531 A 4 4 0 0 0 19.898438 21.867188 C 19.906001 21.833058 19.91519 21.800076 19.921875 21.765625 A 4 4 0 0 0 20 21 A 4 4 0 0 0 19.919922 20.205078 A 4 4 0 0 0 19.917969 20.193359 C 19.916712 20.187216 19.913395 20.181914 19.912109 20.175781 A 4 4 0 0 0 19.691406 19.464844 A 4 4 0 0 0 19.685547 19.443359 C 19.6852 19.44254 19.683941 19.442225 19.683594 19.441406 A 4 4 0 0 0 19.675781 19.425781 A 4 4 0 0 0 19.333984 18.796875 C 19.324276 18.782212 19.316536 18.76648 19.306641 18.751953 A 4 4 0 0 0 18.853516 18.201172 C 18.840547 18.187951 18.827603 18.17515 18.814453 18.162109 A 4 4 0 0 0 18.277344 17.716797 C 18.254988 17.701259 18.233623 17.685012 18.210938 17.669922 A 4 4 0 0 0 17.613281 17.345703 C 17.581679 17.331721 17.551558 17.315915 17.519531 17.302734 A 4 4 0 0 0 16.867188 17.101562 C 16.83306 17.094 16.800074 17.08481 16.765625 17.078125 A 4 4 0 0 0 16 17 z M 15.990234 18 C 15.859998 18.054163 15.731618 18.11229 15.591797 18.15625 L 15.433594 18.404297 L 15.308594 18.478516 L 15.136719 18.128906 A 3 3 0 0 1 15.990234 18 z M 16.226562 18.011719 A 3 3 0 0 1 16.384766 18.029297 L 16.318359 18.074219 L 16.226562 18.011719 z M 17.183594 18.244141 A 3 3 0 0 1 17.511719 18.412109 L 17.533203 18.470703 L 17.460938 18.666016 L 17.347656 18.599609 L 17.248047 18.484375 L 17.089844 18.599609 L 17.037109 18.337891 L 17.183594 18.244141 z M 16.615234 18.291016 L 16.707031 18.291016 C 16.752561 18.385496 16.789792 18.473756 16.826172 18.572266 L 16.939453 18.679688 L 16.814453 18.806641 L 16.642578 18.839844 L 16.675781 18.626953 L 16.675781 18.464844 L 16.615234 18.398438 L 16.615234 18.291016 z M 14.384766 18.472656 L 14.392578 18.478516 L 14.365234 18.605469 L 14.529297 18.539062 L 14.603516 18.679688 L 14.576172 18.779297 L 14.667969 18.806641 L 14.753906 18.886719 L 14.728516 18.974609 L 14.833984 19.048828 L 14.742188 19.195312 L 14.701172 18.988281 L 14.490234 19.060547 L 14.326172 19.060547 L 14.087891 19.175781 L 14.464844 19.175781 L 14.337891 19.363281 L 14.087891 19.410156 L 13.982422 19.572266 L 13.785156 19.652344 L 13.693359 19.886719 L 13.427734 20.107422 L 13.402344 20.429688 L 13.25 20.236328 L 13.111328 20.205078 A 3 3 0 0 1 13.806641 18.957031 L 13.818359 19.001953 L 13.865234 18.896484 A 3 3 0 0 1 14.035156 18.738281 L 14.060547 18.726562 L 14.058594 18.716797 A 3 3 0 0 1 14.384766 18.472656 z M 16.470703 18.505859 L 16.529297 18.660156 L 16.390625 18.732422 L 16.365234 18.539062 L 16.470703 18.505859 z M 17.708984 18.535156 A 3 3 0 0 1 19 21 A 3 3 0 0 1 18.988281 21.216797 L 18.931641 21.275391 C 18.949911 21.274078 18.968145 21.271205 18.986328 21.269531 A 3 3 0 0 1 18.769531 22.150391 L 18.746094 22.205078 A 3 3 0 0 1 17.570312 23.552734 C 17.525454 23.422165 17.479975 23.291985 17.433594 23.162109 C 17.433594 23.041775 17.440226 22.926956 17.447266 22.806641 L 17.519531 22.638672 L 17.419922 22.443359 L 17.427734 22.175781 L 17.294922 22.021484 L 17.361328 21.792969 L 17.25 21.666016 L 17.056641 21.666016 L 16.992188 21.591797 L 16.800781 21.71875 L 16.726562 21.625 L 16.548828 21.779297 C 16.428209 21.640241 16.306343 21.502238 16.185547 21.363281 L 16.041016 21.021484 L 16.173828 20.826172 L 16.101562 20.746094 L 16.251953 20.369141 C 16.380215 20.206894 16.518785 20.050759 16.654297 19.894531 L 16.892578 19.826172 L 17.164062 19.792969 L 17.347656 19.847656 L 17.611328 20.115234 L 17.705078 20.007812 L 17.830078 19.994141 L 18.074219 20.074219 L 18.257812 20.074219 L 18.382812 19.960938 L 18.443359 19.873047 L 18.318359 19.792969 L 18.099609 19.779297 C 18.040449 19.695837 17.986253 19.605399 17.916016 19.53125 L 17.849609 19.564453 L 17.816406 19.779297 L 17.691406 19.632812 L 17.664062 19.470703 L 17.519531 19.349609 L 17.460938 19.349609 L 17.605469 19.517578 L 17.544922 19.666016 L 17.433594 19.699219 L 17.505859 19.552734 L 17.380859 19.484375 L 17.261719 19.349609 L 17.050781 19.404297 L 17.025391 19.470703 L 16.892578 19.552734 L 16.826172 19.732422 L 16.648438 19.820312 L 16.568359 19.732422 L 16.482422 19.732422 L 16.482422 19.4375 L 16.667969 19.335938 L 16.806641 19.335938 L 16.779297 19.222656 L 16.667969 19.107422 L 16.859375 19.068359 L 16.964844 18.947266 L 17.050781 18.800781 L 17.208984 18.800781 L 17.164062 18.685547 L 17.261719 18.619141 L 17.261719 18.746094 L 17.480469 18.800781 L 17.691406 18.619141 L 17.705078 18.539062 L 17.708984 18.535156 z M 18.402344 20.269531 L 18.357422 20.316406 L 18.423828 20.558594 L 18.541016 20.693359 C 18.609906 20.895594 18.682974 21.089892 18.773438 21.283203 C 18.823238 21.283203 18.869516 21.278591 18.917969 21.275391 L 18.8125 21.148438 L 18.871094 21.007812 L 18.753906 20.873047 L 18.560547 20.457031 L 18.402344 20.269531 z M 13.015625 20.712891 L 13.058594 20.712891 C 13.044694 20.824002 13.025519 20.937697 13.011719 21.048828 L 13.183594 21.027344 L 13.183594 21.201172 L 13.236328 21.363281 C 13.303198 21.405091 13.391693 21.407637 13.466797 21.429688 L 13.466797 21.396484 L 13.71875 21.175781 L 13.957031 21.349609 L 14.226562 21.316406 L 14.337891 21.619141 L 14.542969 21.666016 L 14.654297 21.886719 C 14.878948 22.004233 15.10374 22.122187 15.330078 22.236328 L 15.302734 22.476562 L 15.136719 22.712891 L 15.164062 23.027344 L 15.058594 23.283203 L 14.847656 23.330078 L 14.753906 23.476562 L 14.792969 23.570312 L 14.734375 23.716797 A 3 3 0 0 1 13.259766 22.214844 L 13.302734 22.060547 L 13.275391 22.001953 L 13.363281 21.873047 L 13.466797 21.572266 L 13.466797 21.544922 L 13.388672 21.503906 L 13.275391 21.523438 L 13.085938 21.376953 L 13.017578 21.292969 A 3 3 0 0 1 13 21 A 3 3 0 0 1 13.015625 20.712891 z "
       id="path6495" />
  </g>
</svg>
