<?xml version="1.0" encoding="UTF-8" standalone="no"?>
<!-- Created with Inkscape (http://www.inkscape.org/) -->

<svg
   xmlns:dc="http://purl.org/dc/elements/1.1/"
   xmlns:cc="http://creativecommons.org/ns#"
   xmlns:rdf="http://www.w3.org/1999/02/22-rdf-syntax-ns#"
   xmlns:svg="http://www.w3.org/2000/svg"
   xmlns="http://www.w3.org/2000/svg"
   xmlns:xlink="http://www.w3.org/1999/xlink"
   xmlns:sodipodi="http://sodipodi.sourceforge.net/DTD/sodipodi-0.dtd"
   xmlns:inkscape="http://www.inkscape.org/namespaces/inkscape"
   width="96"
   height="96"
   id="svg18157"
   version="1.1"
   inkscape:version="0.91 r13725"
   sodipodi:docname="folder-bookmarks.svg"
   inkscape:export-filename="/home/sergio/Pictures/elementary-xfce-new/96/folder_.png"
   inkscape:export-xdpi="90"
   inkscape:export-ydpi="90">
  <defs
     id="defs18159">
    <linearGradient
       inkscape:collect="always"
       xlink:href="#linearGradient6129-963-697-142-998-580-273-44-2-2"
       id="linearGradient12487"
       gradientUnits="userSpaceOnUse"
       gradientTransform="matrix(2.2651514,0,0,2.0354763,-6.3636329,-48.531036)"
       x1="22.934725"
       y1="49.629246"
       x2="22.809399"
       y2="36.657963" />
    <linearGradient
       id="linearGradient6129-963-697-142-998-580-273-44-2-2">
      <stop
         id="stop2661-01-6-2"
         style="stop-color:#0a0a0a;stop-opacity:0.498"
         offset="0" />
      <stop
         id="stop2663-64-5-5"
         style="stop-color:#0a0a0a;stop-opacity:0"
         offset="1" />
    </linearGradient>
    <linearGradient
       inkscape:collect="always"
       xlink:href="#linearGradient4632-0-6-4"
       id="linearGradient12481"
       gradientUnits="userSpaceOnUse"
       gradientTransform="matrix(1.9997551,0,0,2.0714256,0.0113782,-51.678507)"
       x1="35.792694"
       y1="17.118193"
       x2="35.792694"
       y2="43.761127" />
    <linearGradient
       id="linearGradient4632-0-6-4">
      <stop
         style="stop-color:#b4cee1;stop-opacity:1;"
         offset="0"
         id="stop4634-4-4-7" />
      <stop
         style="stop-color:#5d9fcd;stop-opacity:1;"
         offset="1"
         id="stop4636-3-1-5" />
    </linearGradient>
    <radialGradient
       inkscape:collect="always"
       xlink:href="#linearGradient5060-820-91-9-0"
       id="radialGradient12475"
       gradientUnits="userSpaceOnUse"
       gradientTransform="matrix(-0.06159637,0,0,0.04973261,46.790195,15.21972)"
       cx="605.71429"
       cy="486.64789"
       fx="605.71429"
       fy="486.64789"
       r="117.14286" />
    <linearGradient
       id="linearGradient5060-820-91-9-0">
      <stop
         id="stop2681-778-5-1"
         style="stop-color:#000000;stop-opacity:1"
         offset="0" />
      <stop
         id="stop2683-2-86-2"
         style="stop-color:#000000;stop-opacity:0"
         offset="1" />
    </linearGradient>
    <radialGradient
       inkscape:collect="always"
       xlink:href="#linearGradient5060-179-37-4-0"
       id="radialGradient12471"
       gradientUnits="userSpaceOnUse"
       gradientTransform="matrix(0.06159637,0,0,0.04973261,49.231778,15.21972)"
       cx="605.71429"
       cy="486.64789"
       fx="605.71429"
       fy="486.64789"
       r="117.14286" />
    <linearGradient
       id="linearGradient5060-179-37-4-0">
      <stop
         id="stop2675-91-9-2"
         style="stop-color:#000000;stop-opacity:1"
         offset="0" />
      <stop
         id="stop2677-09-0-9"
         style="stop-color:#000000;stop-opacity:0"
         offset="1" />
    </linearGradient>
    <linearGradient
       inkscape:collect="always"
       xlink:href="#linearGradient5048-585-73-1-5"
       id="linearGradient12467"
       gradientUnits="userSpaceOnUse"
       gradientTransform="matrix(0.15881504,0,0,0.04973261,-9.3893001,15.21972)"
       x1="302.85715"
       y1="366.64789"
       x2="302.85715"
       y2="609.50507" />
    <linearGradient
       id="linearGradient5048-585-73-1-5">
      <stop
         id="stop2667-99-4-6"
         style="stop-color:#000000;stop-opacity:0"
         offset="0" />
      <stop
         id="stop2669-5-9-4"
         style="stop-color:#000000;stop-opacity:1"
         offset="0.5" />
      <stop
         id="stop2671-56-4-2"
         style="stop-color:#000000;stop-opacity:0"
         offset="1" />
    </linearGradient>
    <linearGradient
       inkscape:collect="always"
       xlink:href="#linearGradient4507-0-4-7"
       id="linearGradient12463"
       gradientUnits="userSpaceOnUse"
       gradientTransform="matrix(1.8490408,0,0,2.2218594,4.7135631,-39.207438)"
       x1="21.37039"
       y1="4.2476678"
       x2="21.37039"
       y2="34.143417" />
    <linearGradient
       id="linearGradient4507-0-4-7">
      <stop
         id="stop4509-35-6-1"
         style="stop-color:#ffffff;stop-opacity:1"
         offset="0" />
      <stop
         id="stop4511-46-3-8"
         style="stop-color:#ffffff;stop-opacity:0.23529412"
         offset="0.07395859" />
      <stop
         id="stop4513-15-5-9"
         style="stop-color:#ffffff;stop-opacity:0.15686275"
         offset="0.99001008" />
      <stop
         id="stop4515-1-1-8"
         style="stop-color:#ffffff;stop-opacity:0.39215687"
         offset="1" />
    </linearGradient>
    <linearGradient
       inkscape:collect="always"
       xlink:href="#linearGradient4646-7-4-3"
       id="linearGradient12459"
       gradientUnits="userSpaceOnUse"
       gradientTransform="matrix(2.047619,0,0,2.0999999,-105.45041,-49.899998)"
       x1="62.988873"
       y1="13"
       x2="62.988873"
       y2="16" />
    <linearGradient
       id="linearGradient4646-7-4-3">
      <stop
         offset="0"
         style="stop-color:#f9f9f9;stop-opacity:1"
         id="stop4648-8-0-3" />
      <stop
         offset="1"
         style="stop-color:#d8d8d8;stop-opacity:1"
         id="stop4650-1-7-3" />
    </linearGradient>
    <linearGradient
       id="linearGradient3104-8-8-97-4-6-11-5-5">
      <stop
         offset="0"
         style="stop-color:#000000;stop-opacity:0.32173914"
         id="stop3106-5-4-3-5-0-2-1-0" />
      <stop
         offset="1"
         style="stop-color:#000000;stop-opacity:0.27826086"
         id="stop3108-4-3-7-8-2-0-7-9" />
    </linearGradient>
    <linearGradient
       y2="3.6336823"
       x2="-51.786404"
       y1="53.514328"
       x1="-51.786404"
       gradientTransform="matrix(1.6337756,0,0,1.7432828,215.6808,-49.418757)"
       gradientUnits="userSpaceOnUse"
       id="linearGradient18155"
       xlink:href="#linearGradient3104-8-8-97-4-6-11-5-5"
       inkscape:collect="always" />
    <linearGradient
       inkscape:collect="always"
       xlink:href="#linearGradient8272"
       id="linearGradient5891"
       gradientUnits="userSpaceOnUse"
       gradientTransform="matrix(1.9636254,0,0,2.0287677,-104.69613,-50.62191)"
       x1="97.538795"
       y1="16.962049"
       x2="97.538795"
       y2="44.260689" />
    <linearGradient
       id="linearGradient8272">
      <stop
         offset="0"
         style="stop-color:#ffffff;stop-opacity:1"
         id="stop8274" />
      <stop
         offset="0.0221225"
         style="stop-color:#ffffff;stop-opacity:0.23529412"
         id="stop8276" />
      <stop
         offset="0.97909725"
         style="stop-color:#ffffff;stop-opacity:0.15686275"
         id="stop8278" />
      <stop
         offset="1"
         style="stop-color:#ffffff;stop-opacity:0.39215687"
         id="stop8280" />
    </linearGradient>
  </defs>
  <sodipodi:namedview
     id="base"
     pagecolor="#ffffff"
     bordercolor="#666666"
     borderopacity="1.0"
     inkscape:pageopacity="0.0"
     inkscape:pageshadow="2"
     inkscape:zoom="16"
     inkscape:cx="41.337912"
     inkscape:cy="39.376224"
     inkscape:current-layer="g4175"
     showgrid="true"
     inkscape:grid-bbox="true"
     inkscape:document-units="px"
     inkscape:window-width="2560"
     inkscape:window-height="1372"
     inkscape:window-x="0"
     inkscape:window-y="36"
     inkscape:window-maximized="1"
     showguides="false"
     inkscape:snap-global="false">
    <inkscape:grid
       type="xygrid"
       id="grid4112" />
  </sodipodi:namedview>
  <metadata
     id="metadata18162">
    <rdf:RDF>
      <cc:Work
         rdf:about="">
        <dc:format>image/svg+xml</dc:format>
        <dc:type
           rdf:resource="http://purl.org/dc/dcmitype/StillImage" />
        <dc:title></dc:title>
      </cc:Work>
    </rdf:RDF>
  </metadata>
  <g
     id="layer1"
     inkscape:label="Layer 1"
     inkscape:groupmode="layer"
     transform="translate(0,48)">
    <g
       id="g4111"
       transform="translate(0,-1.0000015)">
      <path
         sodipodi:nodetypes="sscsssssssscsss"
         id="rect4251-0-0-61"
         d="m 10.5,-31.5 c -1.1208845,0 -2.0128829,0.932618 -2,2.09091 l 0.046511,3.909091 -2.0232557,0 c -1.1208833,0 -2.0232553,0.841636 -2.0232553,2 l 0,12.909091 C 4.5,-9.4325438 5.402372,-8.5 6.5232558,-8.5 l 82.9534852,0 c 1.120884,0 2.023257,-0.9325438 2.023257,-2.090908 l 0,-12.909091 c 0,-1.158364 -0.879114,-2 -1.999998,-2 l -46.988371,0 -0.01163,-4 c -0.0034,-1.158359 -0.879116,-2.000001 -2,-2.000001 z"
         style="opacity:0.8;color:#000000;fill:none;stroke:url(#linearGradient18155);stroke-width:1;stroke-linecap:butt;stroke-linejoin:miter;stroke-miterlimit:4;stroke-opacity:1;stroke-dasharray:none;stroke-dashoffset:0;marker:none;visibility:visible;display:inline;overflow:visible;enable-background:accumulate"
         inkscape:connector-curvature="0" />
      <path
         sodipodi:nodetypes="sscsssssssscsss"
         inkscape:connector-curvature="0"
         id="rect4251-3-2"
         d="m 10.5,-30.999999 c -0.8384207,0 -1.5,0.832067 -1.5,1.5 l 0,4.5 -2.5,0 c -1.1558134,0 -1.5,1.079599 -1.5,1.5 l 0,12.45 c 0,0.5817 0.456619,1.05 1.0238094,1.05 l 83.9523806,0 c 0.567191,0 1.02381,-0.4683 1.02381,-1.05 l 0,-12.45 c 0,-0.672063 -0.562261,-1.5 -1.5,-1.5 l -47.5,0 0,-4.5 c 0,-0.788784 -0.692749,-1.5 -1.5,-1.5 z"
         style="color:#000000;fill:url(#linearGradient12459);fill-opacity:1;fill-rule:nonzero;stroke:none;stroke-width:1;marker:none;visibility:visible;display:inline;overflow:visible;enable-background:accumulate" />
      <path
         sodipodi:nodetypes="ccccccccccccc"
         inkscape:connector-curvature="0"
         id="rect4251-9-21-7"
         d="m 10.5,-30.499999 c -0.5872251,0.10637 -0.95027,0.447766 -1,1 l 0,5 -3,0 c -0.5809284,0.05823 -0.9489291,0.353042 -1,1 l -2e-7,13.9999991 85.0000002,0 0,-13.9999991 c -0.09353,-0.778684 -0.49653,-0.982634 -1,-1 l -48,0 0,-5 c -0.05959,-0.637493 -0.410196,-0.951634 -1,-1 z"
         style="color:#000000;fill:none;stroke:url(#linearGradient12463);stroke-width:0.99999976;stroke-linecap:round;stroke-linejoin:round;stroke-miterlimit:4;stroke-opacity:1;stroke-dasharray:none;stroke-dashoffset:0;marker:none;visibility:visible;display:inline;overflow:visible;enable-background:accumulate" />
      <rect
         width="76.684975"
         height="12.077923"
         x="9.6685123"
         y="33.454079"
         id="rect4173-8-8"
         style="opacity:0.3;fill:url(#linearGradient12467);fill-opacity:1;fill-rule:nonzero;stroke:none;stroke-width:1;marker:none;visibility:visible;display:inline;overflow:visible" />
      <path
         d="m 86.353483,33.454503 c 0,0 0,12.077258 0,12.077258 3.172057,0.02275 7.668491,-2.705897 7.668491,-6.039404 0,-3.333506 -3.539785,-6.037854 -7.668491,-6.037854 z"
         inkscape:connector-curvature="0"
         id="path5058-9-0"
         style="opacity:0.3;fill:url(#radialGradient12471);fill-opacity:1;fill-rule:nonzero;stroke:none;stroke-width:1;marker:none;visibility:visible;display:inline;overflow:visible" />
      <path
         d="m 9.6684912,33.454503 c 0,0 0,12.077258 0,12.077258 C 6.4964337,45.554511 2,42.825864 2,39.492357 2,36.158851 5.5397853,33.454503 9.6684912,33.454503 Z"
         inkscape:connector-curvature="0"
         id="path5018-6-6"
         style="opacity:0.3;fill:url(#radialGradient12475);fill-opacity:1;fill-rule:nonzero;stroke:none;stroke-width:1;marker:none;visibility:visible;display:inline;overflow:visible" />
      <path
         sodipodi:nodetypes="ccsscccsc"
         d="m 4.3360685,-17.499997 c -1.496068,0.534816 -1.3252964,1.367822 -1.33402,1.876795 l 2.008001,53.639336 c 0.055752,1.48929 0.9996388,2.483867 2.4990969,2.483867 l 80.9707396,0 c 1.499457,0 2.499096,-0.993547 2.499096,-2.483867 0,0 1.896081,-52.504103 1.967112,-53.357882 0.116149,-0.78283 -0.608381,-2.158251 -1.946094,-2.158251 z"
         inkscape:connector-curvature="0"
         id="path3388-7-1"
         style="fill:url(#linearGradient12481);fill-opacity:1;stroke:none" />
      <path
         sodipodi:nodetypes="ssccccccs"
         d="m 4.5681736,-17.998875 86.8636524,8.14e-4 c 1.254895,0 1.996358,0.912556 1.996358,2.040218 l -1.971146,53.818556 c -0.123122,1.787131 -0.968822,3.085032 -2.799854,3.139288 l -81.457184,0 C 5.4630556,40.871731 4.5756201,39.64185 4.5028636,38.046972 L 2.5,-15.963408 c 0,-1.127663 0.8132791,-2.035467 2.0681736,-2.035467 z"
         inkscape:connector-curvature="0"
         id="path6127-1-4"
         style="opacity:0.4;fill:url(#linearGradient12487);fill-opacity:1;stroke:none" />
      <path
         sodipodi:nodetypes="ccsscccsc"
         d="m 4.3251027,-17.498855 c -1.4498058,0.490696 -1.3251137,1.367794 -1.3416418,1.884521 l 2.014212,53.485004 c 0.055801,1.481731 0.7176742,2.629332 2.4993083,2.629339 l 81.0291138,3.01e-4 c 1.919334,0.0462 2.430691,-1.630307 2.434048,-2.9013 0,0 1.927661,-52.249247 1.99867,-53.103009 0,-0.89896 -0.832577,-1.996015 -1.958813,-1.996 z"
         inkscape:connector-curvature="0"
         id="path3388-7-1-7"
         style="opacity:0.3;fill:none;stroke:#000000;stroke-width:1;stroke-linecap:round;stroke-linejoin:round;stroke-miterlimit:4;stroke-opacity:1;stroke-dashoffset:0" />
      <path
         sodipodi:nodetypes="ccccccccc"
         inkscape:connector-curvature="0"
         id="path8263"
         d="M 5,-16.50001 C 4.1930051,-16.53398 3.9234407,-16.238472 4,-15.499999 4.5788399,1.3358033 5.4366806,21.442605 6.0141504,38.278431 6.2647172,39.293687 6.5140709,39.51614 8,39.500001 c 25.953775,0.01531 54.546235,-0.01531 80.5,0 0.87582,-0.01003 1.33346,-0.395498 1.5,-2 0.629524,-16.851886 1.95,-52.8 1.95,-52.8 0.0098,-0.764126 -0.447953,-1.296561 -1.45,-1.200003 z"
         style="opacity:0.5;fill:none;stroke:url(#linearGradient5891);stroke-width:1;stroke-linecap:round;stroke-linejoin:round;stroke-miterlimit:4;stroke-opacity:1;stroke-dasharray:none;stroke-dashoffset:0;marker:none;visibility:visible;display:inline;overflow:visible;enable-background:accumulate" />
    </g>
    <g
       id="g4175"
       transform="translate(-1,0)">
      <path
         style="color:#000000;font-style:normal;font-variant:normal;font-weight:normal;font-stretch:normal;font-size:medium;line-height:normal;font-family:sans-serif;text-indent:0;text-align:start;text-decoration:none;text-decoration-line:none;text-decoration-style:solid;text-decoration-color:#000000;letter-spacing:normal;word-spacing:normal;text-transform:none;direction:ltr;block-progression:tb;writing-mode:lr-tb;baseline-shift:baseline;text-anchor:start;white-space:normal;clip-rule:nonzero;display:inline;overflow:visible;visibility:visible;opacity:0.3;isolation:auto;mix-blend-mode:normal;color-interpolation:sRGB;color-interpolation-filters:linearRGB;solid-color:#000000;solid-opacity:1;fill:#ffffff;fill-opacity:0.5529412;fill-rule:nonzero;stroke:none;stroke-width:1.8840543;stroke-linecap:butt;stroke-linejoin:round;stroke-miterlimit:4;stroke-dasharray:none;stroke-dashoffset:0;stroke-opacity:1;marker:none;color-rendering:auto;image-rendering:auto;shape-rendering:auto;text-rendering:auto;enable-background:accumulate"
         d="m 49,-5.0457229 c -0.769105,0 -0.987682,0.407311 -1.259766,0.728516 -0.272083,0.321205 -0.530513,0.713738 -0.80664,1.171875 -0.552255,0.916274 -1.156684,2.094863 -1.753906,3.28906192 C 44.582465,1.337929 43.994394,2.54384 43.507812,3.4777151 c -0.24329,0.466937 -0.462579,0.867429 -0.634765,1.148437 -0.172187,0.281008 -0.391979,0.469076 -0.214844,0.341797 0.177138,-0.12728 -0.07609,0.02234 -0.400391,0.09766 -0.324303,0.07532 -0.776294,0.159554 -1.300781,0.244141 -1.048974,0.169173 -2.391842,0.348335 -3.724609,0.541015 -1.332768,0.19268 -2.652538,0.396788 -3.703125,0.632813 -0.525294,0.118012 -0.979377,0.240323 -1.371094,0.396484 -0.195859,0.07808 -0.378005,0.162792 -0.5625,0.291016 -0.184495,0.128223 -0.409475,0.307065 -0.53125,0.677734 -0.121779,0.370666 -0.0464,0.650306 0.02734,0.863281 0.07374,0.212975 0.170693,0.386699 0.283203,0.564453 0.225021,0.355509 0.521816,0.719918 0.876953,1.1210939 0.710275,0.802352 1.655345,1.735307 2.619141,2.666017 0.963795,0.93071 1.945512,1.855163 2.693359,2.601563 0.373924,0.3732 0.689092,0.704177 0.90625,0.953125 0.217158,0.248947 0.331488,0.517056 0.261719,0.304687 -0.06977,-0.212361 -0.0016,0.0694 -0.0293,0.396484 -0.02768,0.327089 -0.08729,0.777756 -0.167969,1.296876 -0.161358,1.038238 -0.404264,2.356581 -0.630859,3.669921 -0.226596,1.31334 -0.437326,2.618868 -0.535156,3.681641 -0.04892,0.531386 -0.07227,0.998707 -0.04297,1.417969 0.01465,0.209631 0.03853,0.407812 0.105469,0.623047 0.06694,0.215234 0.172318,0.485309 0.486328,0.710937 0.628018,0.451255 1.039733,0.245847 1.449219,0.144531 0.409485,-0.101315 0.850506,-0.268594 1.345703,-0.478515 0.990393,-0.419842 2.180258,-1.019782 3.373047,-1.638672 1.192788,-0.61889 2.384914,-1.255658 3.333984,-1.728516 0.474535,-0.236428 0.89025,-0.433009 1.197266,-0.560547 0.307015,-0.127538 0.597654,-0.152343 0.382812,-0.152343 -0.214842,0 0.0758,0.02481 0.382812,0.152343 0.307016,0.127538 0.722731,0.324119 1.197266,0.560547 0.94907,0.472858 2.141196,1.109626 3.333984,1.728516 1.192789,0.61889 2.382654,1.21883 3.373047,1.638672 0.495197,0.209921 0.936218,0.3772 1.345703,0.478515 0.409486,0.101316 0.821201,0.306724 1.449219,-0.144531 0.31401,-0.225627 0.419388,-0.495703 0.486328,-0.710937 0.06694,-0.215235 0.09082,-0.413416 0.105469,-0.623047 0.0293,-0.419262 0.0059,-0.886583 -0.04297,-1.417969 -0.09783,-1.062773 -0.308561,-2.368301 -0.535156,-3.681641 -0.226595,-1.31334 -0.4695,-2.631682 -0.630859,-3.669921 -0.08068,-0.51912 -0.140287,-0.969786 -0.167969,-1.296876 -0.02768,-0.327089 0.04047,-0.608841 -0.0293,-0.396484 -0.06977,0.212358 0.04456,-0.05574 0.261719,-0.304687 0.217159,-0.248948 0.532326,-0.579925 0.90625,-0.953125 0.747847,-0.7464 1.729565,-1.670853 2.693359,-2.601563 0.963806,-0.93071 1.908879,-1.863665 2.619153,-2.666017 0.355137,-0.4011759 0.651932,-0.7655849 0.876953,-1.1210929 0.11251,-0.177754 0.20946,-0.35148 0.283203,-0.564454 0.07374,-0.212973 0.149117,-0.492615 0.02734,-0.863281 -0.121777,-0.370667 -0.346755,-0.549512 -0.53125,-0.677734 -0.184495,-0.128223 -0.366641,-0.212935 -0.5625,-0.291016 -0.391718,-0.15616 -0.8458,-0.278472 -1.371094,-0.396484 -1.050588,-0.236025 -2.370358,-0.440133 -3.703125,-0.632813 -1.332767,-0.19268 -2.675636,-0.371841 -3.724609,-0.541015 -0.524487,-0.08459 -0.976479,-0.168822 -1.300781,-0.244141 -0.324303,-0.07532 -0.57753,-0.224938 -0.400391,-0.09766 0.177139,0.127278 -0.04265,-0.06079 -0.21484,-0.341797 -0.172187,-0.281008 -0.391474,-0.6815 -0.634765,-1.148437 C 54.005605,2.54384 53.417535,1.337929 52.820312,0.14373002 52.22309,-1.0504689 51.618661,-2.2290579 51.066406,-3.1453319 c -0.276127,-0.458137 -0.534557,-0.85067 -0.80664,-1.171875 C 49.987682,-4.6384119 49.769105,-5.0457229 49,-5.0457229 Z m 0,2.207031 c 0.137711,0.187296 0.274807,0.368206 0.453125,0.664063 0.496265,0.823378 1.092927,1.97906596 1.683594,3.16015588 0.590667,1.18109002 1.176606,2.39024312 1.683593,3.36328112 0.253494,0.486519 0.485768,0.913367 0.699219,1.261719 0.213452,0.348352 0.312742,0.592179 0.722657,0.886719 0.409916,0.294541 0.674129,0.311376 1.074218,0.404297 0.400089,0.09292 0.879862,0.179534 1.425782,0.267578 1.091839,0.176087 2.437349,0.354303 3.755859,0.544922 1.318509,0.190618 2.614187,0.394813 3.560547,0.607421 0.331945,0.07458 0.54023,0.146266 0.761718,0.216797 -0.136419,0.184102 -0.260962,0.359206 -0.482421,0.609375 -0.638654,0.721448 -1.566207,1.6399479 -2.519532,2.5605479 -0.953324,0.9206 -1.933985,1.847602 -2.71289,2.625 -0.389453,0.388699 -0.727199,0.738618 -0.996094,1.046875 -0.268895,0.308257 -0.472177,0.472088 -0.630859,0.955079 -0.158676,0.482989 -0.09298,0.738283 -0.05859,1.144531 0.03438,0.406247 0.09951,0.884753 0.183594,1.425781 0.168169,1.082057 0.412625,2.40233 0.636718,3.701172 0.224094,1.298842 0.427795,2.581006 0.515625,3.535156 0.0309,0.335625 0.0268,0.554082 0.02734,0.783203 -0.223014,-0.07172 -0.440951,-0.138287 -0.759765,-0.273437 C 57.131628,26.273493 55.96315,25.685646 54.783203,25.073419 53.603256,24.461191 52.408006,23.82548 51.419922,23.333184 50.92588,23.087036 50.484489,22.877353 50.105469,22.719903 49.726448,22.562453 49.502572,22.423028 49,22.423028 c -0.502572,0 -0.726448,0.139425 -1.105469,0.296875 -0.37902,0.15745 -0.820411,0.367133 -1.314453,0.613281 -0.988084,0.492296 -2.183334,1.128007 -3.363281,1.740235 -1.179947,0.612227 -2.348425,1.200074 -3.240235,1.578125 -0.318814,0.13515 -0.536751,0.20172 -0.759765,0.273437 5.47e-4,-0.229121 -0.0036,-0.447578 0.02734,-0.783203 0.08783,-0.95415 0.291531,-2.236314 0.515625,-3.535156 0.224094,-1.298842 0.46855,-2.619115 0.636718,-3.701172 0.08409,-0.541029 0.149213,-1.019533 0.183594,-1.425781 0.03438,-0.406249 0.100088,-0.661538 -0.05859,-1.144531 -0.158679,-0.483002 -0.361964,-0.646821 -0.630859,-0.955079 -0.268895,-0.308257 -0.606641,-0.658175 -0.996094,-1.046875 -0.778906,-0.777399 -1.759564,-1.7044 -2.71289,-2.625 -0.953327,-0.920601 -1.880878,-1.8391009 -2.519532,-2.5605479 -0.22146,-0.250169 -0.346002,-0.425274 -0.482421,-0.609375 0.221488,-0.07053 0.429773,-0.142222 0.761718,-0.216797 0.946359,-0.212608 2.242037,-0.416803 3.560547,-0.607421 1.31851,-0.190619 2.664019,-0.368835 3.755859,-0.544922 0.545921,-0.08804 1.025692,-0.174658 1.425782,-0.267578 0.400089,-0.09292 0.664302,-0.109757 1.074218,-0.404297 0.409914,-0.29454 0.509206,-0.538368 0.722657,-0.886719 0.21345,-0.348352 0.445725,-0.7752 0.699219,-1.261719 0.506986,-0.973038 1.092926,-2.1821911 1.683593,-3.36328112 0.590667,-1.18108992 1.187329,-2.33677788 1.683594,-3.16015588 0.178318,-0.295857 0.315413,-0.476767 0.453125,-0.664063 z"
         id="path1307-3"
         inkscape:connector-curvature="0" />
      <path
         style="color:#000000;font-style:normal;font-variant:normal;font-weight:normal;font-stretch:normal;font-size:medium;line-height:normal;font-family:sans-serif;text-indent:0;text-align:start;text-decoration:none;text-decoration-line:none;text-decoration-style:solid;text-decoration-color:#000000;letter-spacing:normal;word-spacing:normal;text-transform:none;direction:ltr;block-progression:tb;writing-mode:lr-tb;baseline-shift:baseline;text-anchor:start;white-space:normal;clip-rule:nonzero;display:inline;overflow:visible;visibility:visible;opacity:1;isolation:auto;mix-blend-mode:normal;color-interpolation:sRGB;color-interpolation-filters:linearRGB;solid-color:#000000;solid-opacity:1;fill:#175785;fill-opacity:0.5529412;fill-rule:nonzero;stroke:none;stroke-width:1.8840543;stroke-linecap:butt;stroke-linejoin:round;stroke-miterlimit:4;stroke-dasharray:none;stroke-dashoffset:0;stroke-opacity:1;marker:none;color-rendering:auto;image-rendering:auto;shape-rendering:auto;text-rendering:auto;enable-background:accumulate"
         d="m 49,-7.0449219 c -0.769105,0 -0.987682,0.4073107 -1.259766,0.7285157 -0.272083,0.3212049 -0.530513,0.713738 -0.80664,1.171875 -0.552255,0.9162739 -1.156684,2.0948633 -1.753906,3.2890624 -0.597223,1.19419923 -1.185294,2.40010938 -1.671876,3.3339844 -0.24329,0.4669375 -0.462579,0.8674292 -0.634765,1.1484375 -0.172187,0.2810083 -0.391979,0.4690758 -0.214844,0.3417969 0.177138,-0.12728 -0.07609,0.022337 -0.400391,0.097656 -0.324303,0.075319 -0.776294,0.1595538 -1.300781,0.2441407 -1.048974,0.1691738 -2.391842,0.3483356 -3.724609,0.5410156 -1.332768,0.19268 -2.652538,0.3967877 -3.703125,0.6328125 -0.525294,0.1180124 -0.979377,0.2403235 -1.371094,0.3964844 -0.195859,0.07808 -0.378005,0.1627924 -0.5625,0.2910156 -0.184495,0.1282232 -0.409475,0.3070649 -0.53125,0.6777344 -0.121779,0.3706661 -0.0464,0.6503063 0.02734,0.8632812 0.07374,0.212975 0.170693,0.3866988 0.283203,0.5644532 0.225021,0.3555086 0.521816,0.7199178 0.876953,1.1210937 0.710275,0.8023518 1.655345,1.7353055 2.619141,2.6660155 0.963795,0.93071 1.945512,1.855163 2.693359,2.601563 0.373924,0.3732 0.689092,0.704177 0.90625,0.953125 0.217158,0.248947 0.331488,0.517056 0.261719,0.304687 -0.06977,-0.212361 -0.0016,0.0694 -0.0293,0.396484 -0.02768,0.327089 -0.08729,0.777756 -0.167969,1.296876 -0.161358,1.038238 -0.404264,2.356581 -0.630859,3.669921 -0.226596,1.31334 -0.437326,2.618868 -0.535156,3.681641 -0.04892,0.531386 -0.07227,0.998707 -0.04297,1.417969 0.01465,0.209631 0.03853,0.407812 0.105469,0.623047 0.06694,0.215234 0.172318,0.485309 0.486328,0.710937 0.628018,0.451255 1.039733,0.245847 1.449219,0.144531 0.409485,-0.101315 0.850506,-0.268594 1.345703,-0.478515 0.990393,-0.419842 2.180258,-1.019782 3.373047,-1.638672 1.192788,-0.61889 2.384914,-1.255658 3.333984,-1.728516 0.474535,-0.236428 0.89025,-0.433009 1.197266,-0.560547 0.307015,-0.127538 0.597654,-0.152343 0.382812,-0.152343 -0.214842,0 0.0758,0.02481 0.382812,0.152343 0.307016,0.127538 0.722731,0.324119 1.197266,0.560547 0.94907,0.472858 2.141196,1.109626 3.333984,1.728516 1.192789,0.61889 2.382654,1.21883 3.373047,1.638672 0.495197,0.209921 0.936218,0.3772 1.345703,0.478515 0.409486,0.101316 0.821201,0.306724 1.449219,-0.144531 0.31401,-0.225627 0.419388,-0.495703 0.486328,-0.710937 0.06694,-0.215235 0.09082,-0.413416 0.105469,-0.623047 0.0293,-0.419262 0.0059,-0.886583 -0.04297,-1.417969 -0.09783,-1.062773 -0.308561,-2.368301 -0.535156,-3.681641 -0.226595,-1.31334 -0.4695,-2.631682 -0.630859,-3.669921 -0.08068,-0.51912 -0.140287,-0.969786 -0.167969,-1.296876 -0.02768,-0.327089 0.04047,-0.608841 -0.0293,-0.396484 -0.06977,0.212358 0.04456,-0.05574 0.261719,-0.304687 0.217159,-0.248948 0.532326,-0.579925 0.90625,-0.953125 0.747847,-0.7464 1.729565,-1.670853 2.693359,-2.601563 C 64.0927,10.133743 65.037773,9.2007893 65.748047,8.3984375 66.103184,7.9972616 66.399979,7.6328518 66.625,7.2773438 66.73751,7.0995897 66.83446,6.9258642 66.908203,6.7128906 66.981946,6.4999171 67.05732,6.2202747 66.935547,5.8496094 66.81377,5.4789423 66.588792,5.3000975 66.404297,5.171875 66.219802,5.0436525 66.037656,4.9589397 65.841797,4.8808594 65.450079,4.7246987 64.995997,4.6023874 64.470703,4.484375 63.420115,4.2483502 62.100345,4.0442425 60.767578,3.8515625 59.434811,3.6588825 58.091942,3.4797207 57.042969,3.3105469 56.518482,3.22596 56.06649,3.1417251 55.742188,3.0664062 55.417885,2.9910874 55.164658,2.8414683 55.341797,2.96875 55.518932,3.0960283 55.29914,2.9079612 55.126953,2.6269531 54.954766,2.3459451 54.735479,1.9454531 54.492188,1.4785156 54.005605,0.54464076 53.417535,-0.66126963 52.820312,-1.8554688 52.22309,-3.0496679 51.618661,-4.2282573 51.066406,-5.1445312 50.790279,-5.6026682 50.531849,-5.9952013 50.259766,-6.3164062 49.987682,-6.6376112 49.769105,-7.0449219 49,-7.0449219 Z m 0,2.2070313 c 0.137711,0.1872957 0.274807,0.3682059 0.453125,0.6640625 0.496265,0.8233778 1.092927,1.9790659 1.683594,3.1601562 0.590667,1.1810903 1.176606,2.3902431 1.683593,3.3632813 0.253494,0.4865191 0.485768,0.913367 0.699219,1.2617187 0.213452,0.3483517 0.312742,0.5921792 0.722657,0.8867188 0.409916,0.2945416 0.674129,0.3113766 1.074218,0.4042969 0.400089,0.09292 0.879862,0.1795345 1.425782,0.2675781 1.091839,0.1760871 2.437349,0.354303 3.755859,0.5449219 1.318509,0.1906188 2.614187,0.3948129 3.560547,0.6074218 0.331945,0.074575 0.54023,0.1462655 0.761718,0.2167969 -0.136419,0.1841015 -0.260962,0.3592056 -0.482421,0.609375 -0.638654,0.7214473 -1.566207,1.6399473 -2.519532,2.5605469 -0.953324,0.9205996 -1.933985,1.8476016 -2.71289,2.6249996 -0.389453,0.388699 -0.727199,0.738618 -0.996094,1.046875 -0.268895,0.308257 -0.472177,0.472088 -0.630859,0.955079 -0.158676,0.482989 -0.09298,0.738283 -0.05859,1.144531 0.03438,0.406247 0.09951,0.884753 0.183594,1.425781 0.168169,1.082057 0.412625,2.40233 0.636718,3.701172 0.224094,1.298842 0.427795,2.581006 0.515625,3.535156 0.0309,0.335625 0.0268,0.554082 0.02734,0.783203 -0.223014,-0.07172 -0.440951,-0.138287 -0.759765,-0.273437 C 57.131628,24.274293 55.96315,23.686446 54.783203,23.074219 53.603256,22.461991 52.408006,21.82628 51.419922,21.333984 50.92588,21.087836 50.484489,20.878153 50.105469,20.720703 49.726448,20.563253 49.502572,20.423828 49,20.423828 c -0.502572,0 -0.726448,0.139425 -1.105469,0.296875 -0.37902,0.15745 -0.820411,0.367133 -1.314453,0.613281 -0.988084,0.492296 -2.183334,1.128007 -3.363281,1.740235 -1.179947,0.612227 -2.348425,1.200074 -3.240235,1.578125 -0.318814,0.13515 -0.536751,0.20172 -0.759765,0.273437 5.47e-4,-0.229121 -0.0036,-0.447578 0.02734,-0.783203 0.08783,-0.95415 0.291531,-2.236314 0.515625,-3.535156 0.224094,-1.298842 0.46855,-2.619115 0.636718,-3.701172 0.08409,-0.541029 0.149213,-1.019533 0.183594,-1.425781 0.03438,-0.406249 0.100088,-0.661538 -0.05859,-1.144531 -0.158679,-0.483002 -0.361964,-0.646821 -0.630859,-0.955079 -0.268895,-0.308257 -0.606641,-0.658175 -0.996094,-1.046875 -0.778906,-0.777399 -1.759564,-1.7044 -2.71289,-2.6249996 -0.953327,-0.9206 -1.880878,-1.8391 -2.519532,-2.5605469 -0.22146,-0.2501692 -0.346002,-0.425274 -0.482421,-0.609375 0.221488,-0.070531 0.429773,-0.1422221 0.761718,-0.2167969 0.946359,-0.2126088 2.242037,-0.416803 3.560547,-0.6074218 1.31851,-0.1906189 2.664019,-0.3688348 3.755859,-0.5449219 0.545921,-0.088044 1.025692,-0.1746579 1.425782,-0.2675781 0.400089,-0.09292 0.664302,-0.109757 1.074218,-0.4042969 0.409914,-0.2945402 0.509206,-0.5383673 0.722657,-0.8867188 0.21345,-0.3483515 0.445725,-0.7751997 0.699219,-1.2617187 0.506986,-0.973038 1.092926,-2.18219105 1.683593,-3.3632813 0.590667,-1.1810902 1.187329,-2.3367784 1.683594,-3.1601562 C 48.725193,-4.4696847 48.862288,-4.6505949 49,-4.8378906 Z"
         id="path1307"
         inkscape:connector-curvature="0" />
    </g>
  </g>
</svg>
