<?xml version="1.0" encoding="UTF-8" standalone="no"?>
<!-- Created with Inkscape (http://www.inkscape.org/) -->

<svg
   xmlns:dc="http://purl.org/dc/elements/1.1/"
   xmlns:cc="http://creativecommons.org/ns#"
   xmlns:rdf="http://www.w3.org/1999/02/22-rdf-syntax-ns#"
   xmlns:svg="http://www.w3.org/2000/svg"
   xmlns="http://www.w3.org/2000/svg"
   xmlns:xlink="http://www.w3.org/1999/xlink"
   xmlns:sodipodi="http://sodipodi.sourceforge.net/DTD/sodipodi-0.dtd"
   xmlns:inkscape="http://www.inkscape.org/namespaces/inkscape"
   width="96"
   height="96"
   id="svg18157"
   version="1.1"
   inkscape:version="0.91 r13725"
   sodipodi:docname="folder-html.svg"
   inkscape:export-filename="/home/sergio/Pictures/elementary-xfce-new/96/folder_.png"
   inkscape:export-xdpi="90"
   inkscape:export-ydpi="90">
  <defs
     id="defs18159">
    <linearGradient
       inkscape:collect="always"
       xlink:href="#linearGradient6129-963-697-142-998-580-273-44-2-2"
       id="linearGradient12487"
       gradientUnits="userSpaceOnUse"
       gradientTransform="matrix(2.2651514,0,0,2.0354763,-6.3636329,-48.531036)"
       x1="22.934725"
       y1="49.629246"
       x2="22.809399"
       y2="36.657963" />
    <linearGradient
       id="linearGradient6129-963-697-142-998-580-273-44-2-2">
      <stop
         id="stop2661-01-6-2"
         style="stop-color:#0a0a0a;stop-opacity:0.498"
         offset="0" />
      <stop
         id="stop2663-64-5-5"
         style="stop-color:#0a0a0a;stop-opacity:0"
         offset="1" />
    </linearGradient>
    <linearGradient
       inkscape:collect="always"
       xlink:href="#linearGradient4632-0-6-4"
       id="linearGradient12481"
       gradientUnits="userSpaceOnUse"
       gradientTransform="matrix(1.9997551,0,0,2.0714256,0.0113782,-51.678507)"
       x1="35.792694"
       y1="17.118193"
       x2="35.792694"
       y2="43.761127" />
    <linearGradient
       id="linearGradient4632-0-6-4">
      <stop
         style="stop-color:#b4cee1;stop-opacity:1;"
         offset="0"
         id="stop4634-4-4-7" />
      <stop
         style="stop-color:#5d9fcd;stop-opacity:1;"
         offset="1"
         id="stop4636-3-1-5" />
    </linearGradient>
    <radialGradient
       inkscape:collect="always"
       xlink:href="#linearGradient5060-820-91-9-0"
       id="radialGradient12475"
       gradientUnits="userSpaceOnUse"
       gradientTransform="matrix(-0.06159637,0,0,0.04973261,46.790195,15.21972)"
       cx="605.71429"
       cy="486.64789"
       fx="605.71429"
       fy="486.64789"
       r="117.14286" />
    <linearGradient
       id="linearGradient5060-820-91-9-0">
      <stop
         id="stop2681-778-5-1"
         style="stop-color:#000000;stop-opacity:1"
         offset="0" />
      <stop
         id="stop2683-2-86-2"
         style="stop-color:#000000;stop-opacity:0"
         offset="1" />
    </linearGradient>
    <radialGradient
       inkscape:collect="always"
       xlink:href="#linearGradient5060-179-37-4-0"
       id="radialGradient12471"
       gradientUnits="userSpaceOnUse"
       gradientTransform="matrix(0.06159637,0,0,0.04973261,49.231778,15.21972)"
       cx="605.71429"
       cy="486.64789"
       fx="605.71429"
       fy="486.64789"
       r="117.14286" />
    <linearGradient
       id="linearGradient5060-179-37-4-0">
      <stop
         id="stop2675-91-9-2"
         style="stop-color:#000000;stop-opacity:1"
         offset="0" />
      <stop
         id="stop2677-09-0-9"
         style="stop-color:#000000;stop-opacity:0"
         offset="1" />
    </linearGradient>
    <linearGradient
       inkscape:collect="always"
       xlink:href="#linearGradient5048-585-73-1-5"
       id="linearGradient12467"
       gradientUnits="userSpaceOnUse"
       gradientTransform="matrix(0.15881504,0,0,0.04973261,-9.3893001,15.21972)"
       x1="302.85715"
       y1="366.64789"
       x2="302.85715"
       y2="609.50507" />
    <linearGradient
       id="linearGradient5048-585-73-1-5">
      <stop
         id="stop2667-99-4-6"
         style="stop-color:#000000;stop-opacity:0"
         offset="0" />
      <stop
         id="stop2669-5-9-4"
         style="stop-color:#000000;stop-opacity:1"
         offset="0.5" />
      <stop
         id="stop2671-56-4-2"
         style="stop-color:#000000;stop-opacity:0"
         offset="1" />
    </linearGradient>
    <linearGradient
       inkscape:collect="always"
       xlink:href="#linearGradient4507-0-4-7"
       id="linearGradient12463"
       gradientUnits="userSpaceOnUse"
       gradientTransform="matrix(1.8490408,0,0,2.2218594,4.7135631,-39.207438)"
       x1="21.37039"
       y1="4.2476678"
       x2="21.37039"
       y2="34.143417" />
    <linearGradient
       id="linearGradient4507-0-4-7">
      <stop
         id="stop4509-35-6-1"
         style="stop-color:#ffffff;stop-opacity:1"
         offset="0" />
      <stop
         id="stop4511-46-3-8"
         style="stop-color:#ffffff;stop-opacity:0.23529412"
         offset="0.07395859" />
      <stop
         id="stop4513-15-5-9"
         style="stop-color:#ffffff;stop-opacity:0.15686275"
         offset="0.99001008" />
      <stop
         id="stop4515-1-1-8"
         style="stop-color:#ffffff;stop-opacity:0.39215687"
         offset="1" />
    </linearGradient>
    <linearGradient
       inkscape:collect="always"
       xlink:href="#linearGradient4646-7-4-3"
       id="linearGradient12459"
       gradientUnits="userSpaceOnUse"
       gradientTransform="matrix(2.047619,0,0,2.0999999,-105.45041,-49.899998)"
       x1="62.988873"
       y1="13"
       x2="62.988873"
       y2="16" />
    <linearGradient
       id="linearGradient4646-7-4-3">
      <stop
         offset="0"
         style="stop-color:#f9f9f9;stop-opacity:1"
         id="stop4648-8-0-3" />
      <stop
         offset="1"
         style="stop-color:#d8d8d8;stop-opacity:1"
         id="stop4650-1-7-3" />
    </linearGradient>
    <linearGradient
       id="linearGradient3104-8-8-97-4-6-11-5-5">
      <stop
         offset="0"
         style="stop-color:#000000;stop-opacity:0.32173914"
         id="stop3106-5-4-3-5-0-2-1-0" />
      <stop
         offset="1"
         style="stop-color:#000000;stop-opacity:0.27826086"
         id="stop3108-4-3-7-8-2-0-7-9" />
    </linearGradient>
    <linearGradient
       y2="3.6336823"
       x2="-51.786404"
       y1="53.514328"
       x1="-51.786404"
       gradientTransform="matrix(1.6337756,0,0,1.7432828,215.6808,-49.418757)"
       gradientUnits="userSpaceOnUse"
       id="linearGradient18155"
       xlink:href="#linearGradient3104-8-8-97-4-6-11-5-5"
       inkscape:collect="always" />
    <linearGradient
       inkscape:collect="always"
       xlink:href="#linearGradient8272"
       id="linearGradient5891"
       gradientUnits="userSpaceOnUse"
       gradientTransform="matrix(1.9636254,0,0,2.0287677,-104.69613,-50.62191)"
       x1="97.538795"
       y1="16.962049"
       x2="97.538795"
       y2="44.260689" />
    <linearGradient
       id="linearGradient8272">
      <stop
         offset="0"
         style="stop-color:#ffffff;stop-opacity:1"
         id="stop8274" />
      <stop
         offset="0.0221225"
         style="stop-color:#ffffff;stop-opacity:0.23529412"
         id="stop8276" />
      <stop
         offset="0.97909725"
         style="stop-color:#ffffff;stop-opacity:0.15686275"
         id="stop8278" />
      <stop
         offset="1"
         style="stop-color:#ffffff;stop-opacity:0.39215687"
         id="stop8280" />
    </linearGradient>
  </defs>
  <sodipodi:namedview
     id="base"
     pagecolor="#ffffff"
     bordercolor="#666666"
     borderopacity="1.0"
     inkscape:pageopacity="0.0"
     inkscape:pageshadow="2"
     inkscape:zoom="5.6568542"
     inkscape:cx="133.4887"
     inkscape:cy="24.510552"
     inkscape:current-layer="layer1"
     showgrid="true"
     inkscape:grid-bbox="true"
     inkscape:document-units="px"
     inkscape:window-width="2560"
     inkscape:window-height="1372"
     inkscape:window-x="0"
     inkscape:window-y="36"
     inkscape:window-maximized="1"
     showguides="false"
     inkscape:snap-global="false">
    <inkscape:grid
       type="xygrid"
       id="grid4112" />
  </sodipodi:namedview>
  <metadata
     id="metadata18162">
    <rdf:RDF>
      <cc:Work
         rdf:about="">
        <dc:format>image/svg+xml</dc:format>
        <dc:type
           rdf:resource="http://purl.org/dc/dcmitype/StillImage" />
        <dc:title></dc:title>
      </cc:Work>
    </rdf:RDF>
  </metadata>
  <g
     id="layer1"
     inkscape:label="Layer 1"
     inkscape:groupmode="layer"
     transform="translate(0,48)">
    <g
       id="g4111"
       transform="translate(0,-1.0000015)">
      <path
         sodipodi:nodetypes="sscsssssssscsss"
         id="rect4251-0-0-61"
         d="m 10.5,-31.5 c -1.1208845,0 -2.0128829,0.932618 -2,2.09091 l 0.046511,3.909091 -2.0232557,0 c -1.1208833,0 -2.0232553,0.841636 -2.0232553,2 l 0,12.909091 C 4.5,-9.4325438 5.402372,-8.5 6.5232558,-8.5 l 82.9534852,0 c 1.120884,0 2.023257,-0.9325438 2.023257,-2.090908 l 0,-12.909091 c 0,-1.158364 -0.879114,-2 -1.999998,-2 l -46.988371,0 -0.01163,-4 c -0.0034,-1.158359 -0.879116,-2.000001 -2,-2.000001 z"
         style="opacity:0.8;color:#000000;fill:none;stroke:url(#linearGradient18155);stroke-width:1;stroke-linecap:butt;stroke-linejoin:miter;stroke-miterlimit:4;stroke-opacity:1;stroke-dasharray:none;stroke-dashoffset:0;marker:none;visibility:visible;display:inline;overflow:visible;enable-background:accumulate"
         inkscape:connector-curvature="0" />
      <path
         sodipodi:nodetypes="sscsssssssscsss"
         inkscape:connector-curvature="0"
         id="rect4251-3-2"
         d="m 10.5,-30.999999 c -0.8384207,0 -1.5,0.832067 -1.5,1.5 l 0,4.5 -2.5,0 c -1.1558134,0 -1.5,1.079599 -1.5,1.5 l 0,12.45 c 0,0.5817 0.456619,1.05 1.0238094,1.05 l 83.9523806,0 c 0.567191,0 1.02381,-0.4683 1.02381,-1.05 l 0,-12.45 c 0,-0.672063 -0.562261,-1.5 -1.5,-1.5 l -47.5,0 0,-4.5 c 0,-0.788784 -0.692749,-1.5 -1.5,-1.5 z"
         style="color:#000000;fill:url(#linearGradient12459);fill-opacity:1;fill-rule:nonzero;stroke:none;stroke-width:1;marker:none;visibility:visible;display:inline;overflow:visible;enable-background:accumulate" />
      <path
         sodipodi:nodetypes="ccccccccccccc"
         inkscape:connector-curvature="0"
         id="rect4251-9-21-7"
         d="m 10.5,-30.499999 c -0.5872251,0.10637 -0.95027,0.447766 -1,1 l 0,5 -3,0 c -0.5809284,0.05823 -0.9489291,0.353042 -1,1 l -2e-7,13.9999991 85.0000002,0 0,-13.9999991 c -0.09353,-0.778684 -0.49653,-0.982634 -1,-1 l -48,0 0,-5 c -0.05959,-0.637493 -0.410196,-0.951634 -1,-1 z"
         style="color:#000000;fill:none;stroke:url(#linearGradient12463);stroke-width:0.99999976;stroke-linecap:round;stroke-linejoin:round;stroke-miterlimit:4;stroke-opacity:1;stroke-dasharray:none;stroke-dashoffset:0;marker:none;visibility:visible;display:inline;overflow:visible;enable-background:accumulate" />
      <rect
         width="76.684975"
         height="12.077923"
         x="9.6685123"
         y="33.454079"
         id="rect4173-8-8"
         style="opacity:0.3;fill:url(#linearGradient12467);fill-opacity:1;fill-rule:nonzero;stroke:none;stroke-width:1;marker:none;visibility:visible;display:inline;overflow:visible" />
      <path
         d="m 86.353483,33.454503 c 0,0 0,12.077258 0,12.077258 3.172057,0.02275 7.668491,-2.705897 7.668491,-6.039404 0,-3.333506 -3.539785,-6.037854 -7.668491,-6.037854 z"
         inkscape:connector-curvature="0"
         id="path5058-9-0"
         style="opacity:0.3;fill:url(#radialGradient12471);fill-opacity:1;fill-rule:nonzero;stroke:none;stroke-width:1;marker:none;visibility:visible;display:inline;overflow:visible" />
      <path
         d="m 9.6684912,33.454503 c 0,0 0,12.077258 0,12.077258 C 6.4964337,45.554511 2,42.825864 2,39.492357 2,36.158851 5.5397853,33.454503 9.6684912,33.454503 Z"
         inkscape:connector-curvature="0"
         id="path5018-6-6"
         style="opacity:0.3;fill:url(#radialGradient12475);fill-opacity:1;fill-rule:nonzero;stroke:none;stroke-width:1;marker:none;visibility:visible;display:inline;overflow:visible" />
      <path
         sodipodi:nodetypes="ccsscccsc"
         d="m 4.3360685,-17.499997 c -1.496068,0.534816 -1.3252964,1.367822 -1.33402,1.876795 l 2.008001,53.639336 c 0.055752,1.48929 0.9996388,2.483867 2.4990969,2.483867 l 80.9707396,0 c 1.499457,0 2.499096,-0.993547 2.499096,-2.483867 0,0 1.896081,-52.504103 1.967112,-53.357882 0.116149,-0.78283 -0.608381,-2.158251 -1.946094,-2.158251 z"
         inkscape:connector-curvature="0"
         id="path3388-7-1"
         style="fill:url(#linearGradient12481);fill-opacity:1;stroke:none" />
      <path
         sodipodi:nodetypes="ssccccccs"
         d="m 4.5681736,-17.998875 86.8636524,8.14e-4 c 1.254895,0 1.996358,0.912556 1.996358,2.040218 l -1.971146,53.818556 c -0.123122,1.787131 -0.968822,3.085032 -2.799854,3.139288 l -81.457184,0 C 5.4630556,40.871731 4.5756201,39.64185 4.5028636,38.046972 L 2.5,-15.963408 c 0,-1.127663 0.8132791,-2.035467 2.0681736,-2.035467 z"
         inkscape:connector-curvature="0"
         id="path6127-1-4"
         style="opacity:0.4;fill:url(#linearGradient12487);fill-opacity:1;stroke:none" />
      <path
         sodipodi:nodetypes="ccsscccsc"
         d="m 4.3251027,-17.498855 c -1.4498058,0.490696 -1.3251137,1.367794 -1.3416418,1.884521 l 2.014212,53.485004 c 0.055801,1.481731 0.7176742,2.629332 2.4993083,2.629339 l 81.0291138,3.01e-4 c 1.919334,0.0462 2.430691,-1.630307 2.434048,-2.9013 0,0 1.927661,-52.249247 1.99867,-53.103009 0,-0.89896 -0.832577,-1.996015 -1.958813,-1.996 z"
         inkscape:connector-curvature="0"
         id="path3388-7-1-7"
         style="opacity:0.3;fill:none;stroke:#000000;stroke-width:1;stroke-linecap:round;stroke-linejoin:round;stroke-miterlimit:4;stroke-opacity:1;stroke-dashoffset:0" />
      <path
         sodipodi:nodetypes="ccccccccc"
         inkscape:connector-curvature="0"
         id="path8263"
         d="M 5,-16.50001 C 4.1930051,-16.53398 3.9234407,-16.238472 4,-15.499999 4.5788399,1.3358033 5.4366806,21.442605 6.0141504,38.278431 6.2647172,39.293687 6.5140709,39.51614 8,39.500001 c 25.953775,0.01531 54.546235,-0.01531 80.5,0 0.87582,-0.01003 1.33346,-0.395498 1.5,-2 0.629524,-16.851886 1.95,-52.8 1.95,-52.8 0.0098,-0.764126 -0.447953,-1.296561 -1.45,-1.200003 z"
         style="opacity:0.5;fill:none;stroke:url(#linearGradient5891);stroke-width:1;stroke-linecap:round;stroke-linejoin:round;stroke-miterlimit:4;stroke-opacity:1;stroke-dasharray:none;stroke-dashoffset:0;marker:none;visibility:visible;display:inline;overflow:visible;enable-background:accumulate" />
    </g>
    <g
       id="g4175"
       transform="translate(-1,0)">
      <path
         inkscape:connector-curvature="0"
         style="fill:#ffffff;fill-opacity:0.5529412;fill-rule:nonzero;stroke:none;stroke-width:0.99999994;stroke-miterlimit:4;stroke-dasharray:none;opacity:0.3"
         d="m 49.000005,-6.06201 a 18.000002,18.000002 0 0 0 -3.57715,0.36036 18.000002,18.000002 0 0 0 -0.05274,0.009 c -0.02745,0.0059 -0.05148,0.0207 -0.07911,0.02655 a 18.000002,18.000002 0 0 0 -3.199217,0.993164 c -0.0306,0.0126 -0.06615,0.0135 -0.09671,0.02655 a 18.000002,18.000002 0 0 0 -0.009,0.009 c -0.0243,0.01035 -0.04608,0.02475 -0.07034,0.0351 a 18.000002,18.000002 0 0 0 -2.830077,1.538087 c -0.06597,0.04365 -0.1368,0.07853 -0.20214,0.12303 a 18.000002,18.000002 0 0 0 -2.478515,2.039062 c -0.05949,0.05837 -0.11709,0.116595 -0.17577,0.17577 a 18.000002,18.000002 0 0 0 -2.003904,2.416991 c -0.06993,0.10062 -0.14301,0.19674 -0.210915,0.298845 a 18.000002,18.000002 0 0 0 -1.458986,2.689457 c -0.06291,0.1422 -0.134055,0.27774 -0.193365,0.421875 a 18.000002,18.000002 0 0 0 -0.905274,2.935544 c -0.0342,0.153585 -0.07537,0.301995 -0.10548,0.457034 a 18.000002,18.000002 0 0 0 -0.351315,3.444584 18.000002,18.000002 0 0 0 0.36036,3.577149 18.000002,18.000002 0 0 0 0.009,0.02655 c 0.0072,0.036 0.0189,0.06948 0.02655,0.10548 a 18.000002,18.000002 0 0 0 0.993164,3.199217 c 0.0126,0.0306 0.0135,0.06615 0.02655,0.09666 a 18.000002,18.000002 0 0 0 0.009,0.009 c 0.01035,0.0243 0.02475,0.04608 0.0351,0.07034 a 18.000002,18.000002 0 0 0 1.538086,2.830077 c 0.04365,0.06597 0.07852,0.136755 0.12303,0.20214 a 18.000002,18.000002 0 0 0 2.039063,2.478515 c 0.05837,0.05949 0.116595,0.11709 0.17577,0.17577 a 18.000002,18.000002 0 0 0 2.416991,2.003905 c 0.10062,0.06993 0.19674,0.14301 0.298845,0.210915 a 18.000002,18.000002 0 0 0 2.689457,1.458985 c 0.1422,0.06291 0.27774,0.134055 0.421875,0.193365 a 18.000002,18.000002 0 0 0 2.935544,0.905274 c 0.153585,0.0342 0.301995,0.07537 0.457033,0.10548 a 18.000002,18.000002 0 0 0 3.444584,0.351185 18.000002,18.000002 0 0 0 3.57715,-0.36036 18.000002,18.000002 0 0 0 0.05274,-0.009 c 0.02745,-0.0058 0.05152,-0.0207 0.07911,-0.02655 a 18.000002,18.000002 0 0 0 3.199217,-0.993164 18.000002,18.000002 0 0 0 0.09666,-0.02655 c 0.0037,-0.0016 0.0049,-0.0072 0.009,-0.009 a 18.000002,18.000002 0 0 0 0.07034,-0.0351 18.000002,18.000002 0 0 0 2.830077,-1.538087 c 0.06597,-0.04365 0.136755,-0.07852 0.20214,-0.12303 a 18.000002,18.000002 0 0 0 2.478515,-2.039062 c 0.05949,-0.05837 0.117091,-0.116595 0.17577,-0.17577 a 18.000002,18.000002 0 0 0 2.003905,-2.416991 c 0.06993,-0.10062 0.14301,-0.19674 0.210915,-0.298845 a 18.000002,18.000002 0 0 0 1.458986,-2.689457 c 0.06291,-0.1422 0.134055,-0.27774 0.193365,-0.421875 a 18.000002,18.000002 0 0 0 0.905274,-2.935544 c 0.0342,-0.153585 0.07538,-0.301995 0.10548,-0.457033 a 18.000002,18.000002 0 0 0 0.35136,-3.444584 18.000002,18.000002 0 0 0 -0.36036,-3.57715 18.000002,18.000002 0 0 0 -0.009,-0.05274 c -0.0058,-0.02745 -0.0207,-0.05152 -0.02655,-0.07911 a 18.000002,18.000002 0 0 0 -0.993164,-3.199217 18.000002,18.000002 0 0 0 -0.02655,-0.09666 c -0.0016,-0.0037 -0.0072,-0.005 -0.009,-0.009 a 18.000002,18.000002 0 0 0 -0.0351,-0.07034 18.000002,18.000002 0 0 0 -1.538086,-2.830077 c -0.04365,-0.06597 -0.07852,-0.136755 -0.12303,-0.20214 A 18.000002,18.000002 0 0 0 61.8401,-0.656956 c -0.05836,-0.05949 -0.116595,-0.11709 -0.17577,-0.17577 A 18.000002,18.000002 0 0 0 59.247339,-2.83663 c -0.10062,-0.06993 -0.19674,-0.14301 -0.298845,-0.210915 a 18.000002,18.000002 0 0 0 -2.689457,-1.458986 c -0.1422,-0.06291 -0.27774,-0.134055 -0.421875,-0.193365 A 18.000002,18.000002 0 0 0 52.901618,-5.60517 c -0.153585,-0.0342 -0.301995,-0.07538 -0.457033,-0.10548 a 18.000002,18.000002 0 0 0 -3.444584,-0.351365 z m -0.0441,4.500001 c -0.586062,0.24372 -1.163772,0.505305 -1.792967,0.703125 l -0.711914,1.116212 -0.5625,0.33399 -0.773437,-1.573246 a 13.500002,13.500002 0 0 1 3.840971,-0.580081 z m 1.063476,0.05274 a 13.500002,13.500002 0 0 1 0.711918,0.07911 l -0.298845,0.20214 -0.4131,-0.28125 z m 4.306644,1.045899 a 13.500002,13.500002 0 0 1 1.476563,0.755856 L 55.899248,0.556141 55.574033,1.43505 55.064264,1.136205 54.616019,0.617652 53.904105,1.136205 53.66682,-0.041526 54.326003,-0.463401 Z m -2.55762,0.210915 0.4131,0 c 0.204885,0.42516 0.37242,0.82233 0.536135,1.265625 l 0.509764,0.483399 -0.5625,0.571289 -0.773437,0.1494 0.1494,-0.95801 0,-0.72949 -0.272475,-0.298845 0,-0.483399 z m -10.037107,0.81738 0.0351,0.02655 -0.12303,0.571289 0.738283,-0.298845 0.33399,0.632817 -0.12303,0.448245 0.413101,0.12303 0.38673,0.36036 -0.114255,0.395505 0.474606,0.33399 -0.4131,0.659178 -0.18459,-0.93164 -0.949222,0.325215 -0.738279,0 -1.072264,0.518554 1.696288,0 -0.571288,0.84375 -1.125,0.210915 -0.474611,0.729495 -0.887697,0.36036 -0.4131,1.054687 -1.195313,0.993164 -0.114255,1.450197 -0.685548,-0.87012 -0.624024,-0.140625 a 13.500002,13.500002 0 0 1 3.128909,-5.616212 l 0.05274,0.20214 0.210915,-0.474611 A 13.500002,13.500002 0 0 1 40.158003,1.7604 l 0.114255,-0.05274 -0.009,-0.0441 a 13.500002,13.500002 0 0 1 1.467774,-1.098635 z m 9.386718,0.1494 0.263655,0.694337 -0.624025,0.325215 -0.114255,-0.87012 0.474611,-0.1494 z m 5.572265,0.13185 a 13.500002,13.500002 0 0 1 5.809725,11.091818 13.500002,13.500002 0 0 1 -0.05274,0.975586 l -0.25488,0.263655 c 0.08222,-0.0058 0.16425,-0.0189 0.246105,-0.02655 a 13.500002,13.500002 0 0 1 -0.975586,3.963871 l -0.10548,0.246105 a 13.500002,13.500002 0 0 1 -5.29102,6.064453 c -0.20187,-0.587561 -0.40653,-1.173371 -0.615231,-1.757813 0,-0.541503 0.0297,-1.058189 0.06151,-1.599606 l 0.325215,-0.755861 -0.448245,-0.878909 0.0351,-1.204101 -0.597654,-0.694336 0.298845,-1.028318 -0.500976,-0.571289 -0.870116,0 -0.290025,-0.33399 -0.861331,0.571289 -0.33399,-0.421875 -0.799803,0.694337 c -0.542786,-0.625753 -1.091183,-1.246766 -1.634765,-1.872073 l -0.65039,-1.538086 0.597654,-0.878905 -0.325215,-0.36036 0.67676,-1.696288 C 50.710927,8.368817 51.334492,7.66621 51.944296,6.963183 l 1.072265,-0.30762 1.221678,-0.1494 0.826173,0.246105 1.186524,1.204102 0.421875,-0.483399 0.5625,-0.06151 1.098635,0.36036 0.826169,0 0.5625,-0.509765 0.272475,-0.395505 -0.5625,-0.36036 -0.984376,-0.06151 C 58.181994,6.069111 57.938112,5.66214 57.622046,5.328469 l -0.298845,0.1494 -0.1494,0.966798 -0.5625,-0.659182 -0.12303,-0.729491 -0.65039,-0.544923 -0.263655,0 0.65039,0.755861 -0.272475,0.667971 -0.500976,0.1494 L 55.77638,5.42512 55.21388,5.1175 54.677749,4.511053 53.728528,4.757158 53.614273,5.056003 53.016615,5.425138 52.71777,6.233734 l -0.799802,0.395505 -0.36036,-0.395505 -0.38673,0 0,-1.327149 0.834961,-0.457029 0.624024,0 -0.12303,-0.509769 -0.500976,-0.518553 0.861327,-0.17577 0.474611,-0.544919 0.38673,-0.659182 0.711913,0 -0.20214,-0.518553 0.43947,-0.298845 0,0.571288 0.984376,0.246105 0.949216,-0.81738 0.06151,-0.36036 0.01755,-0.01755 z m 3.12012,7.804689 -0.20214,0.210915 0.298845,1.089846 0.527346,0.606442 c 0.310005,0.910058 0.638811,1.784399 1.045899,2.654299 0.2241,0 0.43236,-0.0207 0.65039,-0.0351 L 61.65613,12.605977 61.919785,11.97316 61.392439,11.366718 60.522324,9.494645 59.810411,8.650895 Z m -24.240238,1.99512 0.193365,0 c -0.06255,0.499999 -0.14886,1.011627 -0.210915,1.511717 l 0.773437,-0.09666 0,0.782226 0.237285,0.72949 c 0.300915,0.188145 0.699143,0.19962 1.037111,0.298845 l 0,-0.1494 1.133788,-0.993163 1.072265,0.782226 1.21289,-0.1494 0.50098,1.362307 0.922851,0.210915 0.500976,0.993164 c 1.01093,0.528813 2.022494,1.059606 3.041015,1.573241 l -0.12303,1.081053 -0.747067,1.063481 0.12303,1.415038 -0.474606,1.151366 -0.949221,0.210915 -0.421875,0.659178 0.17577,0.421875 -0.263655,0.659183 a 13.500002,13.500002 0 0 1 -6.635742,-6.75879 l 0.193365,-0.694336 -0.12303,-0.263655 0.395505,-0.580077 0.465822,-1.353515 0,-0.12303 -0.351585,-0.18459 -0.509764,0.08788 -0.852539,-0.659183 -0.30762,-0.37791 a 13.500002,13.500002 0 0 1 -0.07897,-1.318387 13.500002,13.500002 0 0 1 0.07034,-1.291991 z"
         id="path6495-3" />
      <path
         inkscape:connector-curvature="0"
         style="fill:#175785;fill-opacity:0.55294118;fill-rule:nonzero;stroke:none;stroke-width:0.99999994;stroke-miterlimit:4;stroke-dasharray:none"
         d="m 49.000005,-7.062505 a 18.000002,18.000002 0 0 0 -3.57715,0.36036 18.000002,18.000002 0 0 0 -0.05274,0.009 c -0.02745,0.0059 -0.05148,0.0207 -0.07911,0.02655 a 18.000002,18.000002 0 0 0 -3.199217,0.993164 c -0.0306,0.0126 -0.06615,0.0135 -0.09671,0.02655 a 18.000002,18.000002 0 0 0 -0.009,0.009 c -0.0243,0.01035 -0.04608,0.02475 -0.07034,0.0351 a 18.000002,18.000002 0 0 0 -2.830077,1.538087 c -0.06597,0.04365 -0.1368,0.07853 -0.20214,0.12303 a 18.000002,18.000002 0 0 0 -2.478515,2.039062 c -0.05949,0.05837 -0.11709,0.116595 -0.17577,0.17577 a 18.000002,18.000002 0 0 0 -2.003904,2.416991 c -0.06993,0.10062 -0.14301,0.19674 -0.210915,0.298845 a 18.000002,18.000002 0 0 0 -1.458986,2.689457 c -0.06291,0.1422 -0.134055,0.27774 -0.193365,0.421875 A 18.000002,18.000002 0 0 0 31.456792,7.03588 c -0.0342,0.153585 -0.07537,0.301995 -0.10548,0.457034 a 18.000002,18.000002 0 0 0 -0.351315,3.444584 18.000002,18.000002 0 0 0 0.36036,3.577149 18.000002,18.000002 0 0 0 0.009,0.02655 c 0.0072,0.036 0.0189,0.06948 0.02655,0.10548 a 18.000002,18.000002 0 0 0 0.993164,3.199217 c 0.0126,0.0306 0.0135,0.06615 0.02655,0.09666 a 18.000002,18.000002 0 0 0 0.009,0.009 c 0.01035,0.0243 0.02475,0.04608 0.0351,0.07034 a 18.000002,18.000002 0 0 0 1.538086,2.830077 c 0.04365,0.06597 0.07852,0.136755 0.12303,0.20214 a 18.000002,18.000002 0 0 0 2.039063,2.478515 c 0.05837,0.05949 0.116595,0.11709 0.17577,0.17577 a 18.000002,18.000002 0 0 0 2.416991,2.003905 c 0.10062,0.06993 0.19674,0.14301 0.298845,0.210915 a 18.000002,18.000002 0 0 0 2.689457,1.458985 c 0.1422,0.06291 0.27774,0.134055 0.421875,0.193365 a 18.000002,18.000002 0 0 0 2.935544,0.905274 c 0.153585,0.0342 0.301995,0.07537 0.457033,0.10548 a 18.000002,18.000002 0 0 0 3.444584,0.351185 18.000002,18.000002 0 0 0 3.57715,-0.36036 18.000002,18.000002 0 0 0 0.05274,-0.009 c 0.02745,-0.0058 0.05152,-0.0207 0.07911,-0.02655 a 18.000002,18.000002 0 0 0 3.199217,-0.993164 18.000002,18.000002 0 0 0 0.09666,-0.02655 c 0.0037,-0.0016 0.0049,-0.0072 0.009,-0.009 a 18.000002,18.000002 0 0 0 0.07034,-0.0351 18.000002,18.000002 0 0 0 2.830077,-1.538087 c 0.06597,-0.04365 0.136755,-0.07852 0.20214,-0.12303 a 18.000002,18.000002 0 0 0 2.478515,-2.039062 c 0.05949,-0.05837 0.117091,-0.116595 0.17577,-0.17577 a 18.000002,18.000002 0 0 0 2.003905,-2.416991 c 0.06993,-0.10062 0.14301,-0.19674 0.210915,-0.298845 a 18.000002,18.000002 0 0 0 1.458986,-2.689457 c 0.06291,-0.1422 0.134055,-0.27774 0.193365,-0.421875 a 18.000002,18.000002 0 0 0 0.905274,-2.935544 c 0.0342,-0.153585 0.07538,-0.301995 0.10548,-0.457033 a 18.000002,18.000002 0 0 0 0.35136,-3.444584 18.000002,18.000002 0 0 0 -0.36036,-3.57715 18.000002,18.000002 0 0 0 -0.009,-0.05274 c -0.0058,-0.02745 -0.0207,-0.05152 -0.02655,-0.07911 a 18.000002,18.000002 0 0 0 -0.993164,-3.199217 18.000002,18.000002 0 0 0 -0.02655,-0.09666 c -0.0016,-0.0037 -0.0072,-0.005 -0.009,-0.009 a 18.000002,18.000002 0 0 0 -0.0351,-0.07034 18.000002,18.000002 0 0 0 -1.538086,-2.830077 c -0.04365,-0.06597 -0.07852,-0.136755 -0.12303,-0.20214 A 18.000002,18.000002 0 0 0 61.8401,-1.657451 c -0.05836,-0.05949 -0.116595,-0.11709 -0.17577,-0.17577 a 18.000002,18.000002 0 0 0 -2.416991,-2.003904 c -0.10062,-0.06993 -0.19674,-0.14301 -0.298845,-0.210915 a 18.000002,18.000002 0 0 0 -2.689457,-1.458986 c -0.1422,-0.06291 -0.27774,-0.134055 -0.421875,-0.193365 a 18.000002,18.000002 0 0 0 -2.935544,-0.905274 c -0.153585,-0.0342 -0.301995,-0.07538 -0.457033,-0.10548 A 18.000002,18.000002 0 0 0 49.000001,-7.06251 Z m -0.0441,4.500001 c -0.586062,0.24372 -1.163772,0.505305 -1.792967,0.703125 l -0.711914,1.116212 -0.5625,0.33399 -0.773437,-1.573246 a 13.500002,13.500002 0 0 1 3.840971,-0.580081 z m 1.063476,0.05274 a 13.500002,13.500002 0 0 1 0.711918,0.07911 l -0.298845,0.20214 -0.4131,-0.28125 z m 4.306644,1.045899 a 13.500002,13.500002 0 0 1 1.476563,0.755856 l 0.09666,0.263655 L 55.574033,0.434555 55.064264,0.13571 54.616019,-0.382843 53.904105,0.13571 53.66682,-1.042021 54.326003,-1.463896 Z m -2.55762,0.210915 0.4131,0 c 0.204885,0.42516 0.37242,0.82233 0.536135,1.265625 l 0.509764,0.483399 -0.5625,0.571289 -0.773437,0.1494 0.1494,-0.95801 0,-0.72949 -0.272475,-0.298845 0,-0.483399 z m -10.037107,0.81738 0.0351,0.02655 -0.12303,0.571289 0.738283,-0.298845 0.33399,0.632817 -0.12303,0.448245 0.413101,0.12303 0.38673,0.36036 -0.114255,0.395505 0.474606,0.33399 -0.4131,0.659178 -0.18459,-0.93164 -0.949222,0.325215 -0.738279,0 -1.072264,0.518554 1.696288,0 -0.571288,0.84375 -1.125,0.210915 -0.474611,0.729495 -0.887697,0.36036 -0.4131,1.054687 -1.195313,0.993164 -0.114255,1.450197 -0.685548,-0.87012 -0.624024,-0.140625 a 13.500002,13.500002 0 0 1 3.128909,-5.616212 l 0.05274,0.20214 0.210915,-0.474611 a 13.500002,13.500002 0 0 1 0.764649,-0.711913 l 0.114255,-0.05274 -0.009,-0.0441 a 13.500002,13.500002 0 0 1 1.467774,-1.098635 z m 9.386718,0.1494 0.263655,0.694337 -0.624025,0.325215 -0.114255,-0.87012 0.474611,-0.1494 z m 5.572265,0.13185 a 13.500002,13.500002 0 0 1 5.809725,11.091818 13.500002,13.500002 0 0 1 -0.05274,0.975586 l -0.25488,0.263655 c 0.08222,-0.0058 0.16425,-0.0189 0.246105,-0.02655 a 13.500002,13.500002 0 0 1 -0.975586,3.963871 l -0.10548,0.246105 a 13.500002,13.500002 0 0 1 -5.29102,6.064453 c -0.20187,-0.587561 -0.40653,-1.173371 -0.615231,-1.757813 0,-0.541503 0.0297,-1.058189 0.06151,-1.599606 l 0.325215,-0.755861 -0.448245,-0.878909 0.0351,-1.204101 -0.597654,-0.694336 0.298845,-1.028318 -0.500976,-0.571289 -0.870116,0 -0.290025,-0.33399 -0.861331,0.571289 -0.33399,-0.421875 -0.799803,0.694337 C 50.926918,13.818393 50.378521,13.19738 49.834939,12.572073 l -0.65039,-1.538086 0.597654,-0.878905 -0.325215,-0.36036 0.67676,-1.696288 c 0.577179,-0.730112 1.200744,-1.432719 1.810548,-2.135746 l 1.072265,-0.30762 1.221678,-0.1494 0.826173,0.246105 1.186524,1.204102 0.421875,-0.483399 0.5625,-0.06151 1.098635,0.36036 0.826169,0 0.5625,-0.509765 0.272475,-0.395505 -0.5625,-0.36036 -0.984376,-0.06151 C 58.181994,5.068616 57.938112,4.661645 57.622046,4.327974 l -0.298845,0.1494 -0.1494,0.966798 -0.5625,-0.659182 -0.12303,-0.729491 -0.65039,-0.544923 -0.263655,0 0.65039,0.755861 -0.272475,0.667971 -0.500976,0.1494 0.325215,-0.659183 -0.5625,-0.30762 -0.536131,-0.606447 -0.949221,0.246105 -0.114255,0.298845 -0.597658,0.369135 -0.298845,0.808596 -0.799802,0.395505 -0.36036,-0.395505 -0.38673,0 0,-1.327149 0.834961,-0.457029 0.624024,0 -0.12303,-0.509769 -0.500976,-0.518553 0.861327,-0.17577 0.474611,-0.544919 0.38673,-0.659182 0.711913,0 -0.20214,-0.518553 0.43947,-0.298845 0,0.571288 0.984376,0.246105 0.949216,-0.81738 0.06151,-0.36036 0.01755,-0.01755 z m 3.12012,7.804689 -0.20214,0.210915 0.298845,1.089846 0.527346,0.606442 c 0.310005,0.910058 0.638811,1.784399 1.045899,2.654299 0.2241,0 0.43236,-0.0207 0.65039,-0.0351 L 61.65613,11.605482 61.919785,10.972665 61.392439,10.366223 60.522324,8.49415 59.810411,7.6504 Z m -24.240238,1.99512 0.193365,0 c -0.06255,0.499999 -0.14886,1.011627 -0.210915,1.511717 l 0.773437,-0.09666 0,0.782226 0.237285,0.72949 c 0.300915,0.188145 0.699143,0.19962 1.037111,0.298845 l 0,-0.1494 1.133788,-0.993163 1.072265,0.782226 1.21289,-0.1494 0.50098,1.362307 0.922851,0.210915 0.500976,0.993164 c 1.01093,0.528813 2.022494,1.059606 3.041015,1.573241 l -0.12303,1.081053 -0.747067,1.063481 0.12303,1.415038 -0.474606,1.151366 -0.949221,0.210915 -0.421875,0.659178 0.17577,0.421875 -0.263655,0.659183 a 13.500002,13.500002 0 0 1 -6.635742,-6.75879 l 0.193365,-0.694336 -0.12303,-0.263655 0.395505,-0.580077 0.465822,-1.353515 0,-0.12303 -0.351585,-0.18459 -0.509764,0.08788 -0.852539,-0.659183 -0.30762,-0.37791 a 13.500002,13.500002 0 0 1 -0.07897,-1.318387 13.500002,13.500002 0 0 1 0.07034,-1.291991 z"
         id="path6495" />
    </g>
  </g>
</svg>
