<?xml version="1.0" encoding="UTF-8" standalone="no"?>
<svg
   xmlns:dc="http://purl.org/dc/elements/1.1/"
   xmlns:cc="http://creativecommons.org/ns#"
   xmlns:rdf="http://www.w3.org/1999/02/22-rdf-syntax-ns#"
   xmlns:svg="http://www.w3.org/2000/svg"
   xmlns="http://www.w3.org/2000/svg"
   xmlns:xlink="http://www.w3.org/1999/xlink"
   xmlns:sodipodi="http://sodipodi.sourceforge.net/DTD/sodipodi-0.dtd"
   xmlns:inkscape="http://www.inkscape.org/namespaces/inkscape"
   version="1.1"
   width="48"
   height="48"
   id="svg21739"
   inkscape:version="0.91 r13725"
   sodipodi:docname="folder-important.svg">
  <sodipodi:namedview
     pagecolor="#ffffff"
     bordercolor="#666666"
     borderopacity="1"
     objecttolerance="10"
     gridtolerance="10"
     guidetolerance="10"
     inkscape:pageopacity="0"
     inkscape:pageshadow="2"
     inkscape:window-width="2560"
     inkscape:window-height="1372"
     id="namedview59"
     showgrid="false"
     inkscape:zoom="13.906433"
     inkscape:cx="24.827505"
     inkscape:cy="34.51397"
     inkscape:window-x="0"
     inkscape:window-y="36"
     inkscape:window-maximized="1"
     inkscape:current-layer="layer1" />
  <defs
     id="defs21741">
    <linearGradient
       x1="42.470848"
       y1="11.952797"
       x2="42.470848"
       y2="35.581654"
       id="linearGradient3381-56-2-43-7-2"
       xlink:href="#linearGradient3454-2-8-7-0-3"
       gradientUnits="userSpaceOnUse"
       gradientTransform="matrix(0.89189031,0,0,1.0580283,3.1206609,5.3536023)" />
    <linearGradient
       id="linearGradient3454-2-8-7-0-3">
      <stop
         id="stop3456-4-7-1-7-23"
         style="stop-color:#ffffff;stop-opacity:1"
         offset="0" />
      <stop
         id="stop3458-39-0-1-8-77"
         style="stop-color:#ffffff;stop-opacity:0.23529412"
         offset="0.0097359" />
      <stop
         id="stop3460-7-5-9-6-3"
         style="stop-color:#ffffff;stop-opacity:0.15686275"
         offset="0.99001008" />
      <stop
         id="stop3462-0-5-41-2-7"
         style="stop-color:#ffffff;stop-opacity:0.39215687"
         offset="1" />
    </linearGradient>
    <linearGradient
       x1="22.934725"
       y1="49.629246"
       x2="22.809399"
       y2="36.657963"
       id="linearGradient3072-0-9-4-3"
       xlink:href="#linearGradient6129-963-697-142-998-580-273-0-4-4-5"
       gradientUnits="userSpaceOnUse"
       gradientTransform="matrix(1.1446925,0,0,0.9977536,-3.4660853,1.0988052)" />
    <linearGradient
       id="linearGradient6129-963-697-142-998-580-273-0-4-4-5">
      <stop
         id="stop2661-3-72-3-7"
         style="stop-color:#0a0a0a;stop-opacity:0.498"
         offset="0" />
      <stop
         id="stop2663-2-85-1-5"
         style="stop-color:#0a0a0a;stop-opacity:0"
         offset="1" />
    </linearGradient>
    <linearGradient
       x1="35.792694"
       y1="17.118193"
       x2="35.792694"
       y2="43.761127"
       id="linearGradient4638-4-65-4-6"
       xlink:href="#linearGradient4632-92-3-0-8"
       gradientUnits="userSpaceOnUse"
       gradientTransform="matrix(1,0,0,1.0357143,1.4680025e-5,-1.5891248)" />
    <linearGradient
       id="linearGradient4632-92-3-0-8">
      <stop
         id="stop4634-68-8-0-2"
         style="stop-color:#cdc9e3;stop-opacity:1"
         offset="0" />
      <stop
         id="stop4636-8-21-7-1"
         style="stop-color:#9389cb;stop-opacity:1"
         offset="1" />
    </linearGradient>
    <radialGradient
       cx="605.71429"
       cy="486.64789"
       r="117.14286"
       fx="605.71429"
       fy="486.64789"
       id="radialGradient3080-2-1-6-1"
       xlink:href="#linearGradient5060-820-9-8-0-1"
       gradientUnits="userSpaceOnUse"
       gradientTransform="matrix(-0.03079083,0,0,0.02470588,23.389815,31.941605)" />
    <linearGradient
       id="linearGradient5060-820-9-8-0-1">
      <stop
         id="stop2681-5-8-1-8"
         style="stop-color:#000000;stop-opacity:1"
         offset="0" />
      <stop
         id="stop2683-8-8-6-4"
         style="stop-color:#000000;stop-opacity:0"
         offset="1" />
    </linearGradient>
    <radialGradient
       cx="605.71429"
       cy="486.64789"
       r="117.14286"
       fx="605.71429"
       fy="486.64789"
       id="radialGradient3083-4-6-0-7"
       xlink:href="#linearGradient5060-179-2-5-1-0"
       gradientUnits="userSpaceOnUse"
       gradientTransform="matrix(0.03079083,0,0,0.02470588,24.610315,31.941605)" />
    <linearGradient
       id="linearGradient5060-179-2-5-1-0">
      <stop
         id="stop2675-9-8-3-2"
         style="stop-color:#000000;stop-opacity:1"
         offset="0" />
      <stop
         id="stop2677-1-21-7-4"
         style="stop-color:#000000;stop-opacity:0"
         offset="1" />
    </linearGradient>
    <linearGradient
       x1="302.85715"
       y1="366.64789"
       x2="302.85715"
       y2="609.50507"
       id="linearGradient3086-4-8-1-8"
       xlink:href="#linearGradient5048-585-4-34-3-5"
       gradientUnits="userSpaceOnUse"
       gradientTransform="matrix(0.07938856,0,0,0.02470588,-4.6932853,31.941605)" />
    <linearGradient
       id="linearGradient5048-585-4-34-3-5">
      <stop
         id="stop2667-5-7-5-6"
         style="stop-color:#000000;stop-opacity:0"
         offset="0" />
      <stop
         id="stop2669-4-9-4-0"
         style="stop-color:#000000;stop-opacity:1"
         offset="0.5" />
      <stop
         id="stop2671-2-5-4-8"
         style="stop-color:#000000;stop-opacity:0"
         offset="1" />
    </linearGradient>
    <linearGradient
       x1="21.37039"
       y1="4.2476678"
       x2="21.37039"
       y2="34.143417"
       id="linearGradient3381-5-5-8-4-8"
       xlink:href="#linearGradient4507-9-5-4-6"
       gradientUnits="userSpaceOnUse"
       gradientTransform="matrix(0.89189031,0,0,1.0580283,3.1207147,5.3535652)" />
    <linearGradient
       id="linearGradient4507-9-5-4-6">
      <stop
         id="stop4509-9-5-3-5"
         style="stop-color:#ffffff;stop-opacity:1"
         offset="0" />
      <stop
         id="stop4511-7-3-2-5"
         style="stop-color:#ffffff;stop-opacity:0.23529412"
         offset="0.07395859" />
      <stop
         id="stop4513-2-3-2-9"
         style="stop-color:#ffffff;stop-opacity:0.15686275"
         offset="0.99001008" />
      <stop
         id="stop4515-3-0-7-3"
         style="stop-color:#ffffff;stop-opacity:0.39215687"
         offset="1" />
    </linearGradient>
    <linearGradient
       x1="62.988873"
       y1="13"
       x2="62.988873"
       y2="16"
       id="linearGradient3089-5-2-9-9-9-0"
       xlink:href="#linearGradient4646-6-8-7-4"
       gradientUnits="userSpaceOnUse"
       gradientTransform="translate(-50.940882,-3.479245e-5)" />
    <linearGradient
       id="linearGradient4646-6-8-7-4">
      <stop
         id="stop4648-2-38-0-2"
         style="stop-color:#f9f9f9;stop-opacity:1"
         offset="0" />
      <stop
         id="stop4650-3-1-2-70"
         style="stop-color:#d8d8d8;stop-opacity:1"
         offset="1" />
    </linearGradient>
    <linearGradient
       id="linearGradient3104-8-8-97-4-6-2-75-0-1">
      <stop
         id="stop3106-5-4-3-5-0-1-9-2-1"
         style="stop-color:#000000;stop-opacity:0.32173914"
         offset="0" />
      <stop
         id="stop3108-4-3-7-8-2-4-1-8-9"
         style="stop-color:#000000;stop-opacity:0.27826086"
         offset="1" />
    </linearGradient>
    <linearGradient
       x1="-51.786404"
       y1="53.514328"
       x2="-51.786404"
       y2="3.6336823"
       id="linearGradient21737"
       xlink:href="#linearGradient3104-8-8-97-4-6-2-75-0-1"
       gradientUnits="userSpaceOnUse"
       gradientTransform="matrix(0.80749834,0,0,0.83374395,106.87671,-0.06987479)" />
    <linearGradient
       id="linearGradient3856-1-6-5">
      <stop
         id="stop3858-0-6-4"
         style="stop-color:#634215;stop-opacity:1"
         offset="0" />
      <stop
         id="stop3860-2-8-2"
         style="stop-color:#93700d;stop-opacity:1"
         offset="1" />
    </linearGradient>
    <linearGradient
       id="linearGradient3117">
      <stop
         id="stop3119"
         style="stop-color:#ffffff;stop-opacity:1"
         offset="0" />
      <stop
         id="stop3121"
         style="stop-color:#ffffff;stop-opacity:0.23529412"
         offset="0.56911701" />
      <stop
         id="stop3123"
         style="stop-color:#ffffff;stop-opacity:0.15686275"
         offset="0.93297637" />
      <stop
         id="stop3125"
         style="stop-color:#ffffff;stop-opacity:0.39215687"
         offset="1" />
    </linearGradient>
    <linearGradient
       id="linearGradient3846">
      <stop
         id="stop3848"
         style="stop-color:#fff3cb;stop-opacity:1"
         offset="0" />
      <stop
         id="stop3850"
         style="stop-color:#fdde76;stop-opacity:1"
         offset="0.26238" />
      <stop
         id="stop3852"
         style="stop-color:#f9c440;stop-opacity:1"
         offset="0.66093999" />
      <stop
         id="stop3854"
         style="stop-color:#e48b20;stop-opacity:1"
         offset="1" />
    </linearGradient>
    <linearGradient
       x1="29.126724"
       y1="19.787613"
       x2="29.291178"
       y2="57.567127"
       id="linearGradient3039"
       xlink:href="#linearGradient3117"
       gradientUnits="userSpaceOnUse"
       gradientTransform="matrix(0.3209283,0,-0.00139699,0.29826454,-1.3199469,-3.5360874)" />
    <linearGradient
       x1="24"
       y1="-14.603537"
       x2="24"
       y2="54.669891"
       id="linearGradient3042"
       xlink:href="#linearGradient3846"
       gradientUnits="userSpaceOnUse"
       gradientTransform="matrix(0.3333471,0,0,0.32559732,-3.3227132e-4,-0.00505258)" />
    <linearGradient
       xlink:href="#linearGradient3856-1-6-5"
       id="linearGradient4229"
       x1="8"
       y1="16"
       x2="8"
       y2="1"
       gradientUnits="userSpaceOnUse" />
  </defs>
  <metadata
     id="metadata21744">
    <rdf:RDF>
      <cc:Work
         rdf:about="">
        <dc:format>image/svg+xml</dc:format>
        <dc:type
           rdf:resource="http://purl.org/dc/dcmitype/StillImage" />
        <dc:title></dc:title>
      </cc:Work>
    </rdf:RDF>
  </metadata>
  <g
     id="layer1">
    <path
       d="m 5.5000147,8.4999652 c -0.554,0 -1,0.446 -1,1 l 0,1.9999998 -1,0 c -0.554,0 -1,0.446 -1,1 l 0,6 c 0,0.554 0.446,1 1,1 l 41.0000003,0 c 0.554,0 1,-0.446 1,-1 l 0,-6 c 0,-0.554 -0.446,-1 -1,-1 l -23,0 0,-1.9999998 c 0,-0.554 -0.446,-1 -1,-1 l -15.0000003,0 z"
       id="rect4251-0-0-6-8-6"
       style="opacity:0.8;color:#000000;fill:none;stroke:url(#linearGradient21737);stroke-width:1;stroke-linecap:butt;stroke-linejoin:miter;stroke-miterlimit:4;stroke-opacity:1;stroke-dasharray:none;stroke-dashoffset:0;marker:none;visibility:visible;display:inline;overflow:visible;enable-background:accumulate" />
    <path
       d="m 5.5000147,8.9999652 c -0.277,0 -0.5,0.223 -0.5,0.5 l 0,2.4999998 -1.5,0 c -0.277,0 -0.5,0.223 -0.5,0.5 l 0,6 c 0,0.277 0.223,0.5 0.5,0.5 l 41.0000003,0 c 0.277,0 0.5,-0.223 0.5,-0.5 l 0,-6 c 0,-0.277 -0.223,-0.5 -0.5,-0.5 l -23.5,0 0,-2.4999998 c 0,-0.277 -0.223,-0.5 -0.5,-0.5 l -15.0000003,0 z"
       id="rect4251-4-9-5-5"
       style="color:#000000;fill:url(#linearGradient3089-5-2-9-9-9-0);fill-opacity:1;fill-rule:nonzero;stroke:none;stroke-width:0.99992168;marker:none;visibility:visible;display:inline;overflow:visible;enable-background:accumulate" />
    <path
       d="m 5.5000147,9.4999652 0,2.9999998 -2,0 0,7 41.0000003,0 0,-7 -24,0 0,-2.9999998 -15.0000003,0 z"
       id="rect4251-9-9-07-9-7"
       style="color:#000000;fill:none;stroke:url(#linearGradient3381-5-5-8-4-8);stroke-width:1;stroke-linecap:round;stroke-linejoin:round;stroke-miterlimit:4;stroke-opacity:1;stroke-dasharray:none;stroke-dashoffset:0;marker:none;visibility:visible;display:inline;overflow:visible;enable-background:accumulate" />
    <rect
       width="38.333332"
       height="6.0000005"
       x="4.8333893"
       y="41"
       id="rect4173-6-77-9-9"
       style="opacity:0.3;fill:url(#linearGradient3086-4-8-1-8);fill-opacity:1;fill-rule:nonzero;stroke:none;stroke-width:1;marker:none;visibility:visible;display:inline;overflow:visible" />
    <path
       d="m 43.166715,41.000175 c 0,0 0,5.99967 0,5.99967 1.5856,0.0113 3.8333,-1.34422 3.8333,-3.00022 0,-1.656 -1.7695,-2.99945 -3.8333,-2.99945 z"
       id="path5058-7-7-3-6"
       style="opacity:0.3;fill:url(#radialGradient3083-4-6-0-7);fill-opacity:1;fill-rule:nonzero;stroke:none;stroke-width:1;marker:none;visibility:visible;display:inline;overflow:visible" />
    <path
       d="m 4.8333147,41.000175 c 0,0 0,5.99967 0,5.99967 -1.5856,0.0113 -3.8333,-1.34422 -3.8333,-3.00022 0,-1.656 1.7695,-2.99945 3.8333,-2.99945 z"
       id="path5018-8-18-9-7"
       style="opacity:0.3;fill:url(#radialGradient3080-2-1-6-1);fill-opacity:1;fill-rule:nonzero;stroke:none;stroke-width:1;marker:none;visibility:visible;display:inline;overflow:visible" />
    <path
       d="m 2.1626147,15.500155 c -1.0723,0.12829 -0.4996,1.45416 -0.5851,2.19974 0.1245,0.48182 0.9275,26.17643 0.9275,26.17643 0,0.7414 0.3517,0.61579 1.2429,0.61579 13.1886003,0 27.7726003,0 40.9611003,0 0.9601,0.0231 0.7572,0.0121 0.7572,-0.62748 0,0 0.993,-27.35421 1.0285,-27.7811 0,-0.44949 0.09,-0.58338 -0.4732,-0.58338 -14.084,0 -29.7748,0 -43.8589003,0 z"
       id="path3388-1-5-0-5"
       style="fill:url(#linearGradient4638-4-65-4-6);fill-opacity:1;stroke:none" />
    <path
       d="m 2.0583147,16.065115 43.8964003,4e-4 c 0.6342,0 1.0452,0.44461 1.0452,0.99737 l -1.0324,26.96037 c 0.015,0.6994 -0.2091,0.97671 -0.9459,0.96204 l -41.7807003,-0.0176 c -0.6342,0 -1.2737,-0.41276 -1.2737,-0.96551 l -0.9541,-26.93932 c 0,-0.55276 0.411,-0.99775 1.0452,-0.99775 z"
       id="path6127-7-7-9-3"
       style="opacity:0.4;fill:url(#linearGradient3072-0-9-4-3);fill-opacity:1;stroke:none" />
    <path
       d="m 2.5,17.5 c 0.016793,0.176427 0.022163,0.517935 0.03125,0.875 0.023112,0.08641 0.025524,0.05923 0.03125,0.09375 0.011058,0.06665 0.027034,0.138257 0.03125,0.1875 0.0064,0.07474 -0.00668,0.173042 0,0.28125 0.013352,0.216416 0.045306,0.510844 0.0625,0.875 0.034388,0.728313 0.078083,1.708883 0.125,2.90625 0.093834,2.394734 0.2030642,5.55569 0.3125,8.6875 C 3.3060459,37.481691 3.4883163,43.143759 3.5,43.5 c 0.1225025,0.0036 0.071108,0 0.25,0 l 40.71875,0 c 0.0124,-0.328836 0.253182,-6.426721 0.5,-12.90625 0.126691,-3.325928 0.245386,-6.68527 0.34375,-9.21875 0.04918,-1.26674 0.09434,-2.331501 0.125,-3.09375 0.01322,-0.328618 0.02246,-0.572975 0.03125,-0.78125 L 2.5,17.5 z"
       transform="matrix(1,0,0,1.0383977,1.4680025e-5,-1.6703948)"
       id="path4587-4-2-2-9"
       style="opacity:0.5;color:#000000;fill:none;stroke:url(#linearGradient3381-56-2-43-7-2);stroke-width:0.98133707;stroke-linecap:round;stroke-linejoin:miter;stroke-miterlimit:4;stroke-opacity:1;stroke-dasharray:none;stroke-dashoffset:0;marker:none;visibility:visible;display:inline;overflow:visible;enable-background:accumulate" />
    <path
       d="m 2.1626147,15.500155 c -1.0723,0.12829 -0.4996,1.45416 -0.5851,2.19974 0.1245,0.48182 0.9275,26.17643 0.9275,26.17643 0,0.7414 0.3517,0.61579 1.2429,0.61579 13.1886003,0 27.7726003,0 40.9611003,0 0.9601,0.0231 0.7572,0.0121 0.7572,-0.62748 0,0 0.993,-27.35421 1.0285,-27.7811 0,-0.44949 0.09,-0.58338 -0.4732,-0.58338 -14.084,0 -29.7748,0 -43.8589003,0 z"
       id="path3388-1-5-0-5-4"
       style="opacity:0.3;fill:none;stroke:#000000;stroke-width:1;stroke-linecap:round;stroke-linejoin:round;stroke-miterlimit:4;stroke-opacity:1;stroke-dashoffset:0" />
    <path
       inkscape:connector-curvature="0"
       style="color:#000000;font-style:normal;font-variant:normal;font-weight:normal;font-stretch:normal;font-size:medium;line-height:normal;font-family:sans-serif;text-indent:0;text-align:start;text-decoration:none;text-decoration-line:none;text-decoration-style:solid;text-decoration-color:#000000;letter-spacing:normal;word-spacing:normal;text-transform:none;direction:ltr;block-progression:tb;writing-mode:lr-tb;baseline-shift:baseline;text-anchor:start;white-space:normal;clip-rule:nonzero;display:inline;overflow:visible;visibility:visible;opacity:0.3;isolation:auto;mix-blend-mode:normal;color-interpolation:sRGB;color-interpolation-filters:linearRGB;solid-color:#000000;solid-opacity:1;fill:#ffffff;fill-opacity:0.5529412;fill-rule:nonzero;stroke:none;stroke-width:0.99999976;stroke-linecap:butt;stroke-linejoin:miter;stroke-miterlimit:4;stroke-dasharray:none;stroke-dashoffset:0;stroke-opacity:1;marker:none;color-rendering:auto;image-rendering:auto;shape-rendering:auto;text-rendering:auto;enable-background:accumulate"
       d="m 23.973066,24.499965 c -0.573528,0 -1.071961,0.335118 -1.341797,0.808594 l -0.0039,0.0039 -6.466796,12.009766 -0.002,0.0059 c -0.236435,0.460577 -0.243949,1.021684 0.05469,1.49414 C 16.489629,39.25945 16.994272,39.5 17.502325,39.5 l 12.972657,0 c 0.531109,0 1.034338,-0.266591 1.291015,-0.740235 0.273824,-0.449544 0.278561,-0.993791 0.07617,-1.445312 l -0.0078,-0.01758 -0.0098,-0.01758 -6.511719,-12.001953 -0.002,-0.0039 c -0.274462,-0.488908 -0.797099,-0.773437 -1.33789,-0.773437 z m 0,1 c 0.212731,0 0.36503,0.08706 0.464843,0.263672 0,0 0.002,0 0.002,0 l 6.490235,11.964844 c 0.08903,0.203155 0.0796,0.383071 -0.0078,0.519531 l -0.01172,0.02148 -0.01172,0.02148 c -0.05245,0.102144 -0.21042,0.208984 -0.423828,0.208984 l -12.972657,0 c -0.246146,0 -0.345154,-0.05557 -0.443359,-0.210937 -0.07564,-0.119672 -0.07868,-0.371479 -0.01172,-0.503907 0,0 0,-0.002 0,-0.002 l 6.453125,-11.980469 c 0.110102,-0.193193 0.291988,-0.302734 0.472657,-0.302734 z m -0.980469,3 0,4 0.5,2.000001 1,0 0.5,-2.000001 0,-4 -2,0 z m 1,7 c -0.552285,0 -1,0.447715 -1,1 0,0.552285 0.447715,1 1,1 0.552284,0 1,-0.447715 1,-1 0,-0.552285 -0.447716,-1 -1,-1 z"
       id="path11155-59-3" />
    <path
       inkscape:connector-curvature="0"
       style="color:#000000;font-style:normal;font-variant:normal;font-weight:normal;font-stretch:normal;font-size:medium;line-height:normal;font-family:sans-serif;text-indent:0;text-align:start;text-decoration:none;text-decoration-line:none;text-decoration-style:solid;text-decoration-color:#000000;letter-spacing:normal;word-spacing:normal;text-transform:none;direction:ltr;block-progression:tb;writing-mode:lr-tb;baseline-shift:baseline;text-anchor:start;white-space:normal;clip-rule:nonzero;display:inline;overflow:visible;visibility:visible;opacity:1;isolation:auto;mix-blend-mode:normal;color-interpolation:sRGB;color-interpolation-filters:linearRGB;solid-color:#000000;solid-opacity:1;fill:#382a72;fill-opacity:0.5529412;fill-rule:nonzero;stroke:none;stroke-width:0.99999976;stroke-linecap:butt;stroke-linejoin:miter;stroke-miterlimit:4;stroke-dasharray:none;stroke-dashoffset:0;stroke-opacity:1;marker:none;color-rendering:auto;image-rendering:auto;shape-rendering:auto;text-rendering:auto;enable-background:accumulate"
       d="m 23.973066,23.499947 c -0.573528,0 -1.071961,0.335118 -1.341797,0.808594 l -0.0039,0.0039 -6.466796,12.009766 -0.002,0.0059 c -0.236435,0.460577 -0.243949,1.021684 0.05469,1.49414 0.276366,0.437185 0.781009,0.677735 1.289062,0.677735 l 12.972657,0 c 0.531109,0 1.034338,-0.266591 1.291015,-0.740235 0.273824,-0.449544 0.278561,-0.993791 0.07617,-1.445312 l -0.0078,-0.01758 -0.0098,-0.01758 -6.511719,-12.001953 -0.002,-0.0039 c -0.274462,-0.488908 -0.797099,-0.773437 -1.33789,-0.773437 z m 0,1 c 0.212731,0 0.36503,0.08706 0.464843,0.263672 0,0 0.002,0 0.002,0 l 6.490235,11.964844 c 0.08903,0.203155 0.0796,0.383071 -0.0078,0.519531 l -0.01172,0.02148 -0.01172,0.02148 c -0.05245,0.102144 -0.21042,0.208984 -0.423828,0.208984 l -12.972657,0 c -0.246146,0 -0.345154,-0.05557 -0.443359,-0.210937 -0.07564,-0.119672 -0.07868,-0.371479 -0.01172,-0.503907 0,0 0,-0.002 0,-0.002 l 6.453125,-11.980469 c 0.110102,-0.193193 0.291988,-0.302734 0.472657,-0.302734 z m -0.980469,3 0,4 0.5,2.000001 1,0 0.5,-2.000001 0,-4 -2,0 z m 1,7 c -0.552285,0 -1,0.447715 -1,1 0,0.552285 0.447715,1 1,1 0.552284,0 1,-0.447715 1,-1 0,-0.552285 -0.447716,-1 -1,-1 z"
       id="path11155-59" />
  </g>
  <g
     id="g4229"
     transform="translate(57.292529,27.889831)">
    <path
       d="M 14,12.518301 C 12.045538,9.0468886 10,5 7.975142,1.5 6,5 4.1044533,8.9457609 2,12.513164 c -0.3189516,0.522763 -0.6329068,0.692927 -0.4793859,0.923014 0.1535186,0.230089 0.4184294,0.04807 1.1467418,0.06307 l 10.7955961,0 c 0.678046,0.0075 0.864678,0.10371 0.989435,-0.126372 C 14.608061,13.142791 14.297545,12.987276 14,12.518301 Z"
       id="path11159"
       style="opacity:0.6;fill:none;stroke:url(#linearGradient3039);stroke-width:1;stroke-linejoin:round;stroke-miterlimit:4;stroke-dasharray:none;stroke-opacity:1"
       inkscape:connector-curvature="0" />
  </g>
</svg>
