<?xml version="1.0" encoding="UTF-8" standalone="no"?>
<!-- Created with Inkscape (http://www.inkscape.org/) -->

<svg
   xmlns:dc="http://purl.org/dc/elements/1.1/"
   xmlns:cc="http://creativecommons.org/ns#"
   xmlns:rdf="http://www.w3.org/1999/02/22-rdf-syntax-ns#"
   xmlns:svg="http://www.w3.org/2000/svg"
   xmlns="http://www.w3.org/2000/svg"
   xmlns:xlink="http://www.w3.org/1999/xlink"
   xmlns:sodipodi="http://sodipodi.sourceforge.net/DTD/sodipodi-0.dtd"
   xmlns:inkscape="http://www.inkscape.org/namespaces/inkscape"
   width="48px"
   height="48px"
   id="svg18433"
   version="1.1"
   inkscape:version="0.91 r13725"
   sodipodi:docname="folder-locked.svg">
  <defs
     id="defs18435">
    <linearGradient
       inkscape:collect="always"
       xlink:href="#linearGradient3454-2-8-6-1-1-8-0-6-7-3-1-1"
       id="linearGradient3381-56-2-7-5-0-8-0-0-4-6-1-9"
       gradientUnits="userSpaceOnUse"
       gradientTransform="matrix(0.89189031,0,0,1.0580283,3.1206609,5.3536023)"
       x1="42.470848"
       y1="11.952797"
       x2="42.470848"
       y2="35.581654" />
    <linearGradient
       id="linearGradient3454-2-8-6-1-1-8-0-6-7-3-1-1">
      <stop
         offset="0"
         style="stop-color:#ffffff;stop-opacity:1"
         id="stop3456-4-7-9-4-0-3-6-2-9-6-7-2" />
      <stop
         offset="0.0097359"
         style="stop-color:#ffffff;stop-opacity:0.23529412"
         id="stop3458-39-0-8-61-3-8-9-0-4-7-1-8" />
      <stop
         offset="0.99001008"
         style="stop-color:#ffffff;stop-opacity:0.15686275"
         id="stop3460-7-5-4-1-6-6-6-2-1-4-0-1" />
      <stop
         offset="1"
         style="stop-color:#ffffff;stop-opacity:0.39215687"
         id="stop3462-0-5-6-6-2-1-6-0-3-1-3-7" />
    </linearGradient>
    <linearGradient
       inkscape:collect="always"
       xlink:href="#linearGradient6129-963-697-142-998-580-273-0-8-4-9-0-0-0-1-3-6-6"
       id="linearGradient3072-0-3-0-7-4-8-7-3-6-5-8"
       gradientUnits="userSpaceOnUse"
       gradientTransform="matrix(1.1446925,0,0,0.9977536,-3.4660853,1.0988398)"
       x1="22.934725"
       y1="49.629246"
       x2="22.809399"
       y2="36.657963" />
    <linearGradient
       id="linearGradient6129-963-697-142-998-580-273-0-8-4-9-0-0-0-1-3-6-6">
      <stop
         id="stop2661-3-02-4-8-0-4-3-4-7-9-8"
         style="stop-color:#0a0a0a;stop-opacity:0.498"
         offset="0" />
      <stop
         id="stop2663-2-8-06-2-4-6-4-3-8-8-5"
         style="stop-color:#0a0a0a;stop-opacity:0"
         offset="1" />
    </linearGradient>
    <linearGradient
       inkscape:collect="always"
       xlink:href="#linearGradient4632-0-6-4"
       id="linearGradient4638-4-6-8-9-9-5-8-7-2-3-4"
       x1="35.792694"
       y1="17.118193"
       x2="35.792694"
       y2="43.761127"
       gradientUnits="userSpaceOnUse"
       gradientTransform="matrix(1,0,0,1.0357143,1.4680025e-5,-1.5890902)" />
    <linearGradient
       id="linearGradient4632-0-6-4">
      <stop
         style="stop-color:#b4cee1;stop-opacity:1;"
         offset="0"
         id="stop4634-4-4-7" />
      <stop
         style="stop-color:#5d9fcd;stop-opacity:1;"
         offset="1"
         id="stop4636-3-1-5" />
    </linearGradient>
    <radialGradient
       inkscape:collect="always"
       xlink:href="#linearGradient5060-820-9-0-7-1-7-7-1-6-6-0-7"
       id="radialGradient3080-2-3-9-9-8-8-9-6-1-3-7"
       gradientUnits="userSpaceOnUse"
       gradientTransform="matrix(-0.03079083,0,0,0.02470588,23.389805,31.941639)"
       cx="605.71429"
       cy="486.64789"
       fx="605.71429"
       fy="486.64789"
       r="117.14286" />
    <linearGradient
       id="linearGradient5060-820-9-0-7-1-7-7-1-6-6-0-7">
      <stop
         id="stop2681-5-4-3-6-3-8-2-6-8-6-0"
         style="stop-color:#000000;stop-opacity:1"
         offset="0" />
      <stop
         id="stop2683-8-6-9-4-6-6-2-9-6-6-0"
         style="stop-color:#000000;stop-opacity:0"
         offset="1" />
    </linearGradient>
    <radialGradient
       inkscape:collect="always"
       xlink:href="#linearGradient5060-179-2-0-3-6-2-2-8-9-8-8-6"
       id="radialGradient3083-4-5-6-4-5-0-5-1-0-7-5"
       gradientUnits="userSpaceOnUse"
       gradientTransform="matrix(0.03079083,0,0,0.02470588,24.610205,31.941639)"
       cx="605.71429"
       cy="486.64789"
       fx="605.71429"
       fy="486.64789"
       r="117.14286" />
    <linearGradient
       id="linearGradient5060-179-2-0-3-6-2-2-8-9-8-8-6">
      <stop
         id="stop2675-9-9-4-1-4-4-9-5-7-2-7"
         style="stop-color:#000000;stop-opacity:1"
         offset="0" />
      <stop
         id="stop2677-1-7-2-6-1-8-3-8-0-8-1"
         style="stop-color:#000000;stop-opacity:0"
         offset="1" />
    </linearGradient>
    <linearGradient
       inkscape:collect="always"
       xlink:href="#linearGradient5048-585-4-0-56-2-5-2-1-1-6-8-7"
       id="linearGradient3086-4-4-0-5-5-7-4-8-7-0-1"
       gradientUnits="userSpaceOnUse"
       gradientTransform="matrix(0.07938856,0,0,0.02470588,-4.6932853,31.941639)"
       x1="302.85715"
       y1="366.64789"
       x2="302.85715"
       y2="609.50507" />
    <linearGradient
       id="linearGradient5048-585-4-0-56-2-5-2-1-1-6-8-7">
      <stop
         id="stop2667-5-0-7-4-7-7-2-4-6-2-9"
         style="stop-color:#000000;stop-opacity:0"
         offset="0" />
      <stop
         id="stop2669-4-1-8-0-6-9-3-7-4-6-2"
         style="stop-color:#000000;stop-opacity:1"
         offset="0.5" />
      <stop
         id="stop2671-2-6-3-2-0-6-0-0-8-2-8"
         style="stop-color:#000000;stop-opacity:0"
         offset="1" />
    </linearGradient>
    <linearGradient
       inkscape:collect="always"
       xlink:href="#linearGradient4507-9-2-2-3-6-9-9-4-9-0-3"
       id="linearGradient3381-5-5-29-4-6-5-0-4-9-2-5-0"
       gradientUnits="userSpaceOnUse"
       gradientTransform="matrix(0.89189031,0,0,1.0580283,3.1207147,5.3535998)"
       x1="21.37039"
       y1="4.2476678"
       x2="21.37039"
       y2="34.143417" />
    <linearGradient
       id="linearGradient4507-9-2-2-3-6-9-9-4-9-0-3">
      <stop
         id="stop4509-9-8-4-2-3-4-5-1-6-1-2"
         style="stop-color:#ffffff;stop-opacity:1"
         offset="0" />
      <stop
         id="stop4511-7-50-2-1-3-9-4-5-9-8-8"
         style="stop-color:#ffffff;stop-opacity:0.23529412"
         offset="0.07395859" />
      <stop
         id="stop4513-2-0-2-9-2-6-2-6-3-0-5"
         style="stop-color:#ffffff;stop-opacity:0.15686275"
         offset="0.99001008" />
      <stop
         id="stop4515-3-9-8-6-6-0-7-5-8-6-0"
         style="stop-color:#ffffff;stop-opacity:0.39215687"
         offset="1" />
    </linearGradient>
    <linearGradient
       inkscape:collect="always"
       xlink:href="#linearGradient4646-6-91-5-0-5-8-4-9-9-6-1"
       id="linearGradient3089-5-2-9-8-6-8-0-7-1-8-7-4-8"
       gradientUnits="userSpaceOnUse"
       gradientTransform="translate(-50.940887,-1.6368103e-7)"
       x1="62.988873"
       y1="13"
       x2="62.988873"
       y2="16" />
    <linearGradient
       id="linearGradient4646-6-91-5-0-5-8-4-9-9-6-1">
      <stop
         offset="0"
         style="stop-color:#f9f9f9;stop-opacity:1"
         id="stop4648-2-4-6-6-8-7-1-1-7-5-8" />
      <stop
         offset="1"
         style="stop-color:#d8d8d8;stop-opacity:1"
         id="stop4650-3-8-5-3-4-5-7-4-8-2-5" />
    </linearGradient>
    <linearGradient
       id="linearGradient3104-8-8-97-4-6-2-0-1-4-0-5-8-3-5-7-9">
      <stop
         offset="0"
         style="stop-color:#000000;stop-opacity:0.32173914"
         id="stop3106-5-4-3-5-0-1-61-9-2-7-3-3-1-3-4-3" />
      <stop
         offset="1"
         style="stop-color:#000000;stop-opacity:0.27826086"
         id="stop3108-4-3-7-8-2-4-01-9-9-0-6-4-4-0-4-0" />
    </linearGradient>
    <linearGradient
       y2="3.6336823"
       x2="-51.786404"
       y1="53.514328"
       x1="-51.786404"
       gradientTransform="matrix(0.80749834,0,0,0.83374395,106.8767,-0.06984016)"
       gradientUnits="userSpaceOnUse"
       id="linearGradient18431"
       xlink:href="#linearGradient3104-8-8-97-4-6-2-0-1-4-0-5-8-3-5-7-9"
       inkscape:collect="always" />
    <linearGradient
       gradientTransform="matrix(0.66666666,0,0,0.46666666,-3.1666666,0.46666564)"
       gradientUnits="userSpaceOnUse"
       xlink:href="#linearGradient5475-8"
       id="linearGradient4144"
       y2="14"
       x2="24"
       y1="29"
       x1="24" />
    <linearGradient
       id="linearGradient5475-8">
      <stop
         offset="0"
         style="stop-color:#d88f22;stop-opacity:1"
         id="stop5477-0" />
      <stop
         offset="1"
         style="stop-color:#d88f22;stop-opacity:0"
         id="stop5479-4" />
    </linearGradient>
    <linearGradient
       gradientTransform="matrix(0.66666666,0,0,0.46666666,-12.166666,0.46666564)"
       gradientUnits="userSpaceOnUse"
       xlink:href="#linearGradient5475-8"
       id="linearGradient3976"
       y2="14"
       x2="24"
       y1="29"
       x1="24" />
    <linearGradient
       gradientTransform="matrix(0.66666664,0,0,0.46667556,-1.1666667,-20.533589)"
       gradientUnits="userSpaceOnUse"
       xlink:href="#linearGradient3966-0-4"
       id="linearGradient3065"
       y2="14"
       x2="9"
       y1="29"
       x1="9" />
    <linearGradient
       id="linearGradient3966-0-4">
      <stop
         offset="0"
         style="stop-color:#ffffff;stop-opacity:1"
         id="stop3968-8-0" />
      <stop
         offset="1"
         style="stop-color:#ffffff;stop-opacity:0"
         id="stop3970-7-4" />
    </linearGradient>
    <linearGradient
       gradientTransform="matrix(0.66666664,0,0,0.46667556,5.8333347,-20.533589)"
       gradientUnits="userSpaceOnUse"
       xlink:href="#linearGradient3966-0-4"
       id="linearGradient3062"
       y2="14"
       x2="9"
       y1="29"
       x1="9" />
    <linearGradient
       gradientTransform="matrix(-0.93357748,0,0,1,23.379997,-15)"
       gradientUnits="userSpaceOnUse"
       xlink:href="#linearGradient5060-820-9-0-7-1-7-7-1-6-6-0-7"
       id="linearGradient4158"
       y2="27.5"
       x2="23.299999"
       y1="27.5"
       x1="8.6428576" />
    <linearGradient
       gradientTransform="matrix(-0.93357745,0,0,1,23.379997,-22)"
       gradientUnits="userSpaceOnUse"
       xlink:href="#linearGradient3966-0-4"
       id="linearGradient3951"
       y2="27.5"
       x2="23.299999"
       y1="27.5"
       x1="8.6428576" />
    <linearGradient
       gradientTransform="translate(0,-1.0003052)"
       gradientUnits="userSpaceOnUse"
       xlink:href="#linearGradient3957"
       id="linearGradient3963"
       y2="16.000305"
       x2="10.314445"
       y1="7.0003052"
       x1="10.314445" />
    <linearGradient
       id="linearGradient3957">
      <stop
         offset="0"
         style="stop-color:#b19c7d;stop-opacity:1"
         id="stop3959" />
      <stop
         offset="1"
         style="stop-color:#a08358;stop-opacity:1"
         id="stop3961" />
    </linearGradient>
    <linearGradient
       gradientTransform="matrix(0.47368427,0,0,0.42857142,0.4210521,1.2857141)"
       gradientUnits="userSpaceOnUse"
       xlink:href="#linearGradient5443"
       id="linearGradient3059"
       y2="27.924538"
       x2="21.771429"
       y1="14.871428"
       x1="21.771429" />
    <linearGradient
       id="linearGradient5443">
      <stop
         offset="0"
         style="stop-color:#ffffff;stop-opacity:1"
         id="stop5445" />
      <stop
         offset="0.03252051"
         style="stop-color:#ffffff;stop-opacity:0.23529412"
         id="stop5447" />
      <stop
         offset="0.98558509"
         style="stop-color:#ffffff;stop-opacity:0.15686275"
         id="stop5449" />
      <stop
         offset="1"
         style="stop-color:#ffffff;stop-opacity:0.39215687"
         id="stop5451" />
    </linearGradient>
    <radialGradient
       gradientTransform="matrix(0,0.80952382,-1.1390521,0,20.94881,-6.3693335)"
       gradientUnits="userSpaceOnUse"
       xlink:href="#linearGradient5409"
       id="radialGradient3074"
       fy="11.597148"
       fx="16.777113"
       r="10.5"
       cy="11.368058"
       cx="16.823883" />
    <linearGradient
       id="linearGradient5409">
      <stop
         offset="0"
         style="stop-color:#f2e0c4;stop-opacity:1"
         id="stop5411" />
      <stop
         offset="0.76470584"
         style="stop-color:#e5af5b;stop-opacity:1"
         id="stop5559" />
      <stop
         offset="1"
         style="stop-color:#af6900;stop-opacity:1"
         id="stop5413" />
    </linearGradient>
    <linearGradient
       gradientTransform="matrix(0.2606375,0,0,0.3148868,1.7267638,-0.04783173)"
       gradientUnits="userSpaceOnUse"
       xlink:href="#linearGradient10591-0"
       id="linearGradient3996"
       y2="17.470011"
       x2="27.192274"
       y1="2.9136841"
       x1="10.650842" />
    <linearGradient
       id="linearGradient10591-0">
      <stop
         offset="0"
         style="stop-color:#cad0c6;stop-opacity:1"
         id="stop10593-1" />
      <stop
         offset="0.5"
         style="stop-color:#eaece9;stop-opacity:1"
         id="stop10599-3" />
      <stop
         offset="1"
         style="stop-color:#c5cbc0;stop-opacity:1"
         id="stop10595-3" />
    </linearGradient>
    <linearGradient
       gradientTransform="matrix(0.2606375,0,0,0.3148868,1.7267638,-0.0481369)"
       gradientUnits="userSpaceOnUse"
       xlink:href="#linearGradient10591-0"
       id="linearGradient4097"
       y2="17.470011"
       x2="27.192274"
       y1="2.9136841"
       x1="10.650842" />
  </defs>
  <sodipodi:namedview
     id="base"
     pagecolor="#ffffff"
     bordercolor="#666666"
     borderopacity="1.0"
     inkscape:pageopacity="0.0"
     inkscape:pageshadow="2"
     inkscape:zoom="14"
     inkscape:cx="15.964674"
     inkscape:cy="19.09078"
     inkscape:current-layer="layer1"
     showgrid="true"
     inkscape:grid-bbox="true"
     inkscape:document-units="px"
     inkscape:window-width="2560"
     inkscape:window-height="1372"
     inkscape:window-x="0"
     inkscape:window-y="36"
     inkscape:window-maximized="1"
     inkscape:snap-global="false">
    <inkscape:grid
       type="xygrid"
       id="grid4329" />
  </sodipodi:namedview>
  <metadata
     id="metadata18438">
    <rdf:RDF>
      <cc:Work
         rdf:about="">
        <dc:format>image/svg+xml</dc:format>
        <dc:type
           rdf:resource="http://purl.org/dc/dcmitype/StillImage" />
        <dc:title />
      </cc:Work>
    </rdf:RDF>
  </metadata>
  <g
     id="layer1"
     inkscape:label="Layer 1"
     inkscape:groupmode="layer">
    <path
       inkscape:connector-curvature="0"
       style="opacity:0.8;color:#000000;fill:none;stroke:url(#linearGradient18431);stroke-width:1;stroke-linecap:butt;stroke-linejoin:miter;stroke-miterlimit:4;stroke-opacity:1;stroke-dasharray:none;stroke-dashoffset:0;marker:none;visibility:visible;display:inline;overflow:visible;enable-background:accumulate"
       d="m 5.5000147,8.4999998 c -0.554,0 -1,0.446 -1,1 l 0,2.0000002 -1,0 c -0.554,0 -1,0.446 -1,1 l 0,6 c 0,0.554 0.446,1 1,1 l 40.9999903,0 c 0.554,0 1,-0.446 1,-1 l 0,-6 c 0,-0.554 -0.446,-1 -1,-1 l -23,0 0,-2.0000002 c 0,-0.554 -0.446,-1 -1,-1 l -14.9999903,0 z"
       id="rect4251-0-0-1-1-9-5-2-3-2-5-9-2" />
    <path
       inkscape:connector-curvature="0"
       style="color:#000000;fill:url(#linearGradient3089-5-2-9-8-6-8-0-7-1-8-7-4-8);fill-opacity:1;fill-rule:nonzero;stroke:none;stroke-width:0.99992168;marker:none;visibility:visible;display:inline;overflow:visible;enable-background:accumulate"
       d="m 5.5000147,8.9999998 c -0.277,0 -0.5,0.223 -0.5,0.5 l 0,2.5000002 -1.5,0 c -0.277,0 -0.5,0.223 -0.5,0.5 l 0,6 c 0,0.277 0.223,0.5 0.5,0.5 l 40.9999903,0 c 0.277,0 0.5,-0.223 0.5,-0.5 l 0,-6 c 0,-0.277 -0.223,-0.5 -0.5,-0.5 l -23.5,0 0,-2.5000002 c 0,-0.277 -0.223,-0.5 -0.5,-0.5 l -14.9999903,0 z"
       id="rect4251-4-7-62-4-4-9-2-5-6-0-5" />
    <path
       inkscape:connector-curvature="0"
       style="color:#000000;fill:none;stroke:url(#linearGradient3381-5-5-29-4-6-5-0-4-9-2-5-0);stroke-width:1;stroke-linecap:round;stroke-linejoin:round;stroke-miterlimit:4;stroke-opacity:1;stroke-dasharray:none;stroke-dashoffset:0;marker:none;visibility:visible;display:inline;overflow:visible;enable-background:accumulate"
       d="m 5.5000147,9.4999998 0,3.0000002 -2,0 0,7 40.9999903,0 0,-7 -24,0 0,-3.0000002 -14.9999903,0 z"
       id="rect4251-9-9-0-05-2-0-5-9-2-3-8-8" />
    <rect
       style="opacity:0.3;fill:url(#linearGradient3086-4-4-0-5-5-7-4-8-7-0-1);fill-opacity:1;fill-rule:nonzero;stroke:none;stroke-width:1;marker:none;visibility:visible;display:inline;overflow:visible"
       id="rect4173-6-7-7-3-5-1-4-5-7-0-3"
       y="41"
       x="4.8333616"
       height="6.0000005"
       width="38.333332" />
    <path
       style="opacity:0.3;fill:url(#radialGradient3083-4-5-6-4-5-0-5-1-0-7-5);fill-opacity:1;fill-rule:nonzero;stroke:none;stroke-width:1;marker:none;visibility:visible;display:inline;overflow:visible"
       id="path5058-7-9-1-3-0-3-4-8-9-3-1"
       inkscape:connector-curvature="0"
       d="m 43.166705,41.000209 c 0,0 0,5.99967 0,5.99967 1.5856,0.0113 3.8333,-1.34422 3.8333,-3.00022 0,-1.656 -1.7695,-2.99945 -3.8333,-2.99945 z" />
    <path
       style="opacity:0.3;fill:url(#radialGradient3080-2-3-9-9-8-8-9-6-1-3-7);fill-opacity:1;fill-rule:nonzero;stroke:none;stroke-width:1;marker:none;visibility:visible;display:inline;overflow:visible"
       id="path5018-8-1-1-6-9-4-9-7-5-7-8"
       inkscape:connector-curvature="0"
       d="m 4.8333147,41.000209 c 0,0 0,5.99967 0,5.99967 -1.5856,0.0113 -3.8333,-1.34422 -3.8333,-3.00022 0,-1.656 1.7695,-2.99945 3.8333,-2.99945 z" />
    <path
       style="fill:url(#linearGradient4638-4-6-8-9-9-5-8-7-2-3-4);fill-opacity:1;stroke:none"
       id="path3388-1-43-0-7-6-2-7-8-5-7-9"
       inkscape:connector-curvature="0"
       d="m 2.1626147,15.50019 c -1.0723,0.12829 -0.4996,1.45416 -0.5851,2.19974 0.1245,0.48182 0.9275,26.176429 0.9275,26.176429 0,0.7414 0.3517,0.61579 1.2429,0.61579 13.1886003,0 27.7725903,0 40.9610903,0 0.9601,0.0231 0.7572,0.0121 0.7572,-0.62748 0,0 0.993,-27.354209 1.0285,-27.781099 0,-0.44949 0.09,-0.58338 -0.4732,-0.58338 -14.084,0 -29.77479,0 -43.8588903,0 z"
       sodipodi:nodetypes="ccsscccsc" />
    <path
       style="opacity:0.4;fill:url(#linearGradient3072-0-3-0-7-4-8-7-3-6-5-8);fill-opacity:1;stroke:none"
       id="path6127-7-1-6-4-8-5-0-8-2-3-9"
       inkscape:connector-curvature="0"
       d="m 2.0582147,16.06515 43.8964903,4e-4 c 0.6342,0 1.0452,0.44461 1.0452,0.99737 l -1.0324,26.960369 c 0.015,0.6994 -0.2091,0.97671 -0.9459,0.96204 l -41.7807903,-0.0176 c -0.6341,0 -1.2736,-0.41276 -1.2736,-0.96551 L 1.0131147,17.0629 c 0,-0.55276 0.411,-0.99775 1.0451,-0.99775 z" />
    <path
       sodipodi:type="inkscape:offset"
       inkscape:radius="-1.0151105"
       inkscape:original="M 2.15625 16.5 C 1.0839484 16.623862 1.6479947 17.905133 1.5625 18.625 C 1.6869357 19.090206 2.5 43.90625 2.5 43.90625 C 2.5 44.622082 2.8587963 44.5 3.75 44.5 L 44.71875 44.5 C 45.67883 44.52232 45.46875 44.492483 45.46875 43.875 C 45.46875 43.875 46.464479 17.474672 46.5 17.0625 C 46.5 16.628509 46.594572 16.5 46.03125 16.5 L 2.15625 16.5 z "
       style="opacity:0.5;color:#000000;fill:none;stroke:url(#linearGradient3381-56-2-7-5-0-8-0-0-4-6-1-9);stroke-width:0.98133707;stroke-linecap:round;stroke-linejoin:miter;stroke-miterlimit:4;stroke-opacity:1;stroke-dasharray:none;stroke-dashoffset:0;marker:none;visibility:visible;display:inline;overflow:visible;enable-background:accumulate"
       id="path4587-4-6-3-0-1-2-6-8-9-5-4"
       d="m 2.5,17.5 c 0.016793,0.176427 0.022163,0.517935 0.03125,0.875 0.023112,0.08641 0.025524,0.05923 0.03125,0.09375 0.011058,0.06665 0.027034,0.138257 0.03125,0.1875 0.0064,0.07474 -0.00668,0.173042 0,0.28125 0.013352,0.216416 0.045306,0.510844 0.0625,0.875 0.034388,0.728313 0.078083,1.708883 0.125,2.90625 0.093834,2.394734 0.2030642,5.55569 0.3125,8.6875 C 3.3060459,37.481691 3.4883163,43.143759 3.5,43.5 c 0.1225025,0.0036 0.071108,0 0.25,0 l 40.71875,0 c 0.0124,-0.328836 0.253182,-6.426721 0.5,-12.90625 0.126691,-3.325928 0.245386,-6.68527 0.34375,-9.21875 0.04918,-1.26674 0.09434,-2.331501 0.125,-3.09375 0.01322,-0.328618 0.02246,-0.572975 0.03125,-0.78125 L 2.5,17.5 z"
       transform="matrix(1,0,0,1.0383977,1.4680025e-5,-1.6703602)" />
    <path
       style="opacity:0.3;fill:none;stroke:#000000;stroke-width:1;stroke-linecap:round;stroke-linejoin:round;stroke-miterlimit:4;stroke-opacity:1;stroke-dashoffset:0"
       id="path3388-1-43-0-7-6-2-7-8-5-7-9-0"
       inkscape:connector-curvature="0"
       d="m 2.1626147,15.50019 c -1.0723,0.12829 -0.4996,1.45416 -0.5851,2.19974 0.1245,0.48182 0.9275,26.176429 0.9275,26.176429 0,0.7414 0.3517,0.61579 1.2429,0.61579 13.1886003,0 27.7725903,0 40.9610903,0 0.9601,0.0231 0.7572,0.0121 0.7572,-0.62748 0,0 0.993,-27.354209 1.0285,-27.781099 0,-0.44949 0.09,-0.58338 -0.4732,-0.58338 -14.084,0 -29.77479,0 -43.8588903,0 z"
       sodipodi:nodetypes="ccsscccsc" />
    <g
       style="color:#000000;display:inline;overflow:visible;visibility:visible;fill:#175785;fill-opacity:0.5521628;fill-rule:nonzero;stroke:none;stroke-width:1.70000005;marker:none;enable-background:accumulate"
       id="layer1-2-21-1-7"
       transform="matrix(0.99952577,0,0,1.0494828,15.992773,22.215894)">
      <path
         inkscape:connector-curvature="0"
         style="color:#000000;font-style:normal;font-variant:normal;font-weight:normal;font-stretch:normal;font-size:medium;line-height:normal;font-family:sans-serif;text-indent:0;text-align:start;text-decoration:none;text-decoration-line:none;text-decoration-style:solid;text-decoration-color:#000000;letter-spacing:normal;word-spacing:normal;text-transform:none;direction:ltr;block-progression:tb;writing-mode:lr-tb;baseline-shift:baseline;text-anchor:start;white-space:normal;clip-rule:nonzero;display:inline;overflow:visible;visibility:visible;opacity:0.3;isolation:auto;mix-blend-mode:normal;color-interpolation:sRGB;color-interpolation-filters:linearRGB;solid-color:#000000;solid-opacity:1;fill:#ffffff;fill-opacity:0.5529412;fill-rule:nonzero;stroke:none;stroke-width:1.11384273;stroke-linecap:square;stroke-linejoin:miter;stroke-miterlimit:4;stroke-dasharray:none;stroke-dashoffset:0;stroke-opacity:1;marker:none;color-rendering:auto;image-rendering:auto;shape-rendering:auto;text-rendering:auto;enable-background:accumulate"
         d="m 7.9739006,2.8147476 c -1.1082695,-0.01543 -1.9431225,0.264293 -2.5070485,0.794662 -0.563927,0.530372 -0.908634,1.34592 -0.908634,2.584979 l 0,0.93424 0.664378,0.0074 0.504145,0 0,-0.25124 c -0.0043,-0.297875 -0.06869,-0.991811 0.183681,-1.674932 0.25237,-0.68312 0.97239,-1.334363 2.0888806,-1.334363 1.1152939,-1e-6 1.8347741,0.649754 2.0830183,1.332502 0.248252,0.682749 0.181728,1.378192 0.181728,1.673071 l 0,0.254962 1.172431,0 0,-0.941684 c -10e-7,-1.25508 -0.346616,-2.04661 -0.914496,-2.566368 C 9.9541037,3.1082176 9.1001787,2.8302996 7.9739006,2.8147036 Z m 3.4625794,4.321324 0,0.03722 -1.172431,-0.02234 0,-0.01489 -4.5373079,0 0,0.0056 -0.504145,-0.0056 -2.36245,0 c -0.916973,0 -1.69807,0.72725 -1.69807,1.643295 l 0,6.5229304 c 0,0.916053 0.781096,1.643304 1.69807,1.643304 l 10.2704969,0 c 0.916975,0 1.700024,-0.72725 1.700024,-1.643294 l 0,-6.5229304 c 0,-0.916046 -0.783049,-1.643296 -1.700024,-1.643296 l -1.694163,0 z m -1.172431,1.101734 1.172431,0.01117 1.694163,0 c 0.34763,0 0.586215,0.242031 0.586215,0.530396 l 0,6.5229304 c 0,0.288362 -0.238585,0.528533 -0.586215,0.528533 l -10.2704969,0 c -0.347628,0 -0.584261,-0.240171 -0.584261,-0.528533 l 0,-6.5229304 c 0,-0.288365 0.236632,-0.530396 0.584261,-0.530396 l 2.866595,-0.0074 0,0.0074 4.5373079,0 0,-0.01117 z"
         id="path2086-3-7" />
      <path
         style="color:#000000;font-style:normal;font-variant:normal;font-weight:normal;font-stretch:normal;font-size:medium;line-height:normal;font-family:sans-serif;text-indent:0;text-align:start;text-decoration:none;text-decoration-line:none;text-decoration-style:solid;text-decoration-color:#000000;letter-spacing:normal;word-spacing:normal;text-transform:none;direction:ltr;block-progression:tb;writing-mode:lr-tb;baseline-shift:baseline;text-anchor:start;white-space:normal;clip-rule:nonzero;display:inline;overflow:visible;visibility:visible;opacity:1;isolation:auto;mix-blend-mode:normal;color-interpolation:sRGB;color-interpolation-filters:linearRGB;solid-color:#000000;solid-opacity:1;fill:#175785;fill-opacity:0.55294118;fill-rule:nonzero;stroke:none;stroke-width:1.11384273;stroke-linecap:square;stroke-linejoin:miter;stroke-miterlimit:4;stroke-dasharray:none;stroke-dashoffset:0;stroke-opacity:1;marker:none;color-rendering:auto;image-rendering:auto;shape-rendering:auto;text-rendering:auto;enable-background:accumulate"
         d="M 23.962891 24.169922 C 22.855147 24.153727 22.02069 24.447293 21.457031 25.003906 C 20.893372 25.560523 20.548828 26.416426 20.548828 27.716797 L 20.548828 28.697266 L 21.212891 28.705078 L 21.716797 28.705078 L 21.716797 28.441406 C 21.712476 28.128791 21.64814 27.400517 21.900391 26.683594 C 22.152641 25.966671 22.87232 25.283203 23.988281 25.283203 C 25.103046 25.283202 25.822185 25.965108 26.070312 26.681641 C 26.318446 27.398174 26.251953 28.128029 26.251953 28.4375 L 26.251953 28.705078 L 27.423828 28.705078 L 27.423828 27.716797 C 27.423827 26.399612 27.077377 25.568915 26.509766 25.023438 C 25.942155 24.47796 25.088635 24.18629 23.962891 24.169922 z M 27.423828 28.705078 L 27.423828 28.744141 L 26.251953 28.720703 L 26.251953 28.705078 L 21.716797 28.705078 L 21.716797 28.710938 L 21.212891 28.705078 L 18.851562 28.705078 C 17.935023 28.705078 17.154297 29.468314 17.154297 30.429688 L 17.154297 37.275391 C 17.154297 38.236763 17.935022 39 18.851562 39 L 29.117188 39 C 30.033728 39 30.816406 38.236764 30.816406 37.275391 L 30.816406 30.429688 C 30.816406 29.468314 30.033728 28.705078 29.117188 28.705078 L 27.423828 28.705078 z M 26.251953 29.861328 L 27.423828 29.873047 L 29.117188 29.873047 C 29.464653 29.873047 29.703125 30.127054 29.703125 30.429688 L 29.703125 37.275391 C 29.703125 37.578022 29.464653 37.830078 29.117188 37.830078 L 18.851562 37.830078 C 18.504098 37.830078 18.267578 37.578022 18.267578 37.275391 L 18.267578 30.429688 C 18.267578 30.127054 18.504097 29.873047 18.851562 29.873047 L 21.716797 29.865234 L 21.716797 29.873047 L 26.251953 29.873047 L 26.251953 29.861328 z "
         transform="matrix(1.0004745,0,0,0.9528503,-16.000361,-21.168421)"
         id="path2086-3" />
    </g>
    <g
       id="layer1-3"
       transform="translate(59.928571,40.929004)" />
  </g>
</svg>
