<?xml version="1.0" encoding="UTF-8" standalone="no"?>
<!-- Created with Inkscape (http://www.inkscape.org/) -->

<svg
   xmlns:dc="http://purl.org/dc/elements/1.1/"
   xmlns:cc="http://creativecommons.org/ns#"
   xmlns:rdf="http://www.w3.org/1999/02/22-rdf-syntax-ns#"
   xmlns:svg="http://www.w3.org/2000/svg"
   xmlns="http://www.w3.org/2000/svg"
   xmlns:xlink="http://www.w3.org/1999/xlink"
   xmlns:sodipodi="http://sodipodi.sourceforge.net/DTD/sodipodi-0.dtd"
   xmlns:inkscape="http://www.inkscape.org/namespaces/inkscape"
   width="48px"
   height="48px"
   id="svg18433"
   version="1.1"
   inkscape:version="0.91 r13725"
   sodipodi:docname="folder-html.svg">
  <defs
     id="defs18435">
    <linearGradient
       inkscape:collect="always"
       xlink:href="#linearGradient3454-2-8-6-1-1-8-0-6-7-3-1-1"
       id="linearGradient3381-56-2-7-5-0-8-0-0-4-6-1-9"
       gradientUnits="userSpaceOnUse"
       gradientTransform="matrix(0.89189031,0,0,1.0580283,3.1206609,5.3536023)"
       x1="42.470848"
       y1="11.952797"
       x2="42.470848"
       y2="35.581654" />
    <linearGradient
       id="linearGradient3454-2-8-6-1-1-8-0-6-7-3-1-1">
      <stop
         offset="0"
         style="stop-color:#ffffff;stop-opacity:1"
         id="stop3456-4-7-9-4-0-3-6-2-9-6-7-2" />
      <stop
         offset="0.0097359"
         style="stop-color:#ffffff;stop-opacity:0.23529412"
         id="stop3458-39-0-8-61-3-8-9-0-4-7-1-8" />
      <stop
         offset="0.99001008"
         style="stop-color:#ffffff;stop-opacity:0.15686275"
         id="stop3460-7-5-4-1-6-6-6-2-1-4-0-1" />
      <stop
         offset="1"
         style="stop-color:#ffffff;stop-opacity:0.39215687"
         id="stop3462-0-5-6-6-2-1-6-0-3-1-3-7" />
    </linearGradient>
    <linearGradient
       inkscape:collect="always"
       xlink:href="#linearGradient6129-963-697-142-998-580-273-0-8-4-9-0-0-0-1-3-6-6"
       id="linearGradient3072-0-3-0-7-4-8-7-3-6-5-8"
       gradientUnits="userSpaceOnUse"
       gradientTransform="matrix(1.1446925,0,0,0.9977536,-3.4660853,1.0988398)"
       x1="22.934725"
       y1="49.629246"
       x2="22.809399"
       y2="36.657963" />
    <linearGradient
       id="linearGradient6129-963-697-142-998-580-273-0-8-4-9-0-0-0-1-3-6-6">
      <stop
         id="stop2661-3-02-4-8-0-4-3-4-7-9-8"
         style="stop-color:#0a0a0a;stop-opacity:0.498"
         offset="0" />
      <stop
         id="stop2663-2-8-06-2-4-6-4-3-8-8-5"
         style="stop-color:#0a0a0a;stop-opacity:0"
         offset="1" />
    </linearGradient>
    <linearGradient
       inkscape:collect="always"
       xlink:href="#linearGradient4632-0-6-4"
       id="linearGradient4638-4-6-8-9-9-5-8-7-2-3-4"
       x1="35.792694"
       y1="17.118193"
       x2="35.792694"
       y2="43.761127"
       gradientUnits="userSpaceOnUse"
       gradientTransform="matrix(1,0,0,1.0357143,1.4680025e-5,-1.5890902)" />
    <linearGradient
       id="linearGradient4632-0-6-4">
      <stop
         style="stop-color:#b4cee1;stop-opacity:1;"
         offset="0"
         id="stop4634-4-4-7" />
      <stop
         style="stop-color:#5d9fcd;stop-opacity:1;"
         offset="1"
         id="stop4636-3-1-5" />
    </linearGradient>
    <radialGradient
       inkscape:collect="always"
       xlink:href="#linearGradient5060-820-9-0-7-1-7-7-1-6-6-0-7"
       id="radialGradient3080-2-3-9-9-8-8-9-6-1-3-7"
       gradientUnits="userSpaceOnUse"
       gradientTransform="matrix(-0.03079083,0,0,0.02470588,23.389805,31.941639)"
       cx="605.71429"
       cy="486.64789"
       fx="605.71429"
       fy="486.64789"
       r="117.14286" />
    <linearGradient
       id="linearGradient5060-820-9-0-7-1-7-7-1-6-6-0-7">
      <stop
         id="stop2681-5-4-3-6-3-8-2-6-8-6-0"
         style="stop-color:#000000;stop-opacity:1"
         offset="0" />
      <stop
         id="stop2683-8-6-9-4-6-6-2-9-6-6-0"
         style="stop-color:#000000;stop-opacity:0"
         offset="1" />
    </linearGradient>
    <radialGradient
       inkscape:collect="always"
       xlink:href="#linearGradient5060-179-2-0-3-6-2-2-8-9-8-8-6"
       id="radialGradient3083-4-5-6-4-5-0-5-1-0-7-5"
       gradientUnits="userSpaceOnUse"
       gradientTransform="matrix(0.03079083,0,0,0.02470588,24.610205,31.941639)"
       cx="605.71429"
       cy="486.64789"
       fx="605.71429"
       fy="486.64789"
       r="117.14286" />
    <linearGradient
       id="linearGradient5060-179-2-0-3-6-2-2-8-9-8-8-6">
      <stop
         id="stop2675-9-9-4-1-4-4-9-5-7-2-7"
         style="stop-color:#000000;stop-opacity:1"
         offset="0" />
      <stop
         id="stop2677-1-7-2-6-1-8-3-8-0-8-1"
         style="stop-color:#000000;stop-opacity:0"
         offset="1" />
    </linearGradient>
    <linearGradient
       inkscape:collect="always"
       xlink:href="#linearGradient5048-585-4-0-56-2-5-2-1-1-6-8-7"
       id="linearGradient3086-4-4-0-5-5-7-4-8-7-0-1"
       gradientUnits="userSpaceOnUse"
       gradientTransform="matrix(0.07938856,0,0,0.02470588,-4.6932853,31.941639)"
       x1="302.85715"
       y1="366.64789"
       x2="302.85715"
       y2="609.50507" />
    <linearGradient
       id="linearGradient5048-585-4-0-56-2-5-2-1-1-6-8-7">
      <stop
         id="stop2667-5-0-7-4-7-7-2-4-6-2-9"
         style="stop-color:#000000;stop-opacity:0"
         offset="0" />
      <stop
         id="stop2669-4-1-8-0-6-9-3-7-4-6-2"
         style="stop-color:#000000;stop-opacity:1"
         offset="0.5" />
      <stop
         id="stop2671-2-6-3-2-0-6-0-0-8-2-8"
         style="stop-color:#000000;stop-opacity:0"
         offset="1" />
    </linearGradient>
    <linearGradient
       inkscape:collect="always"
       xlink:href="#linearGradient4507-9-2-2-3-6-9-9-4-9-0-3"
       id="linearGradient3381-5-5-29-4-6-5-0-4-9-2-5-0"
       gradientUnits="userSpaceOnUse"
       gradientTransform="matrix(0.89189031,0,0,1.0580283,3.1207147,5.3535998)"
       x1="21.37039"
       y1="4.2476678"
       x2="21.37039"
       y2="34.143417" />
    <linearGradient
       id="linearGradient4507-9-2-2-3-6-9-9-4-9-0-3">
      <stop
         id="stop4509-9-8-4-2-3-4-5-1-6-1-2"
         style="stop-color:#ffffff;stop-opacity:1"
         offset="0" />
      <stop
         id="stop4511-7-50-2-1-3-9-4-5-9-8-8"
         style="stop-color:#ffffff;stop-opacity:0.23529412"
         offset="0.07395859" />
      <stop
         id="stop4513-2-0-2-9-2-6-2-6-3-0-5"
         style="stop-color:#ffffff;stop-opacity:0.15686275"
         offset="0.99001008" />
      <stop
         id="stop4515-3-9-8-6-6-0-7-5-8-6-0"
         style="stop-color:#ffffff;stop-opacity:0.39215687"
         offset="1" />
    </linearGradient>
    <linearGradient
       inkscape:collect="always"
       xlink:href="#linearGradient4646-6-91-5-0-5-8-4-9-9-6-1"
       id="linearGradient3089-5-2-9-8-6-8-0-7-1-8-7-4-8"
       gradientUnits="userSpaceOnUse"
       gradientTransform="translate(-50.940887,-1.6368103e-7)"
       x1="62.988873"
       y1="13"
       x2="62.988873"
       y2="16" />
    <linearGradient
       id="linearGradient4646-6-91-5-0-5-8-4-9-9-6-1">
      <stop
         offset="0"
         style="stop-color:#f9f9f9;stop-opacity:1"
         id="stop4648-2-4-6-6-8-7-1-1-7-5-8" />
      <stop
         offset="1"
         style="stop-color:#d8d8d8;stop-opacity:1"
         id="stop4650-3-8-5-3-4-5-7-4-8-2-5" />
    </linearGradient>
    <linearGradient
       id="linearGradient3104-8-8-97-4-6-2-0-1-4-0-5-8-3-5-7-9">
      <stop
         offset="0"
         style="stop-color:#000000;stop-opacity:0.32173914"
         id="stop3106-5-4-3-5-0-1-61-9-2-7-3-3-1-3-4-3" />
      <stop
         offset="1"
         style="stop-color:#000000;stop-opacity:0.27826086"
         id="stop3108-4-3-7-8-2-4-01-9-9-0-6-4-4-0-4-0" />
    </linearGradient>
    <linearGradient
       y2="3.6336823"
       x2="-51.786404"
       y1="53.514328"
       x1="-51.786404"
       gradientTransform="matrix(0.80749834,0,0,0.83374395,106.8767,-0.06984016)"
       gradientUnits="userSpaceOnUse"
       id="linearGradient18431"
       xlink:href="#linearGradient3104-8-8-97-4-6-2-0-1-4-0-5-8-3-5-7-9"
       inkscape:collect="always" />
  </defs>
  <sodipodi:namedview
     id="base"
     pagecolor="#ffffff"
     bordercolor="#666666"
     borderopacity="1.0"
     inkscape:pageopacity="0.0"
     inkscape:pageshadow="2"
     inkscape:zoom="11.313709"
     inkscape:cx="8.1138875"
     inkscape:cy="14.385844"
     inkscape:current-layer="layer1"
     showgrid="true"
     inkscape:grid-bbox="true"
     inkscape:document-units="px"
     inkscape:window-width="2560"
     inkscape:window-height="1372"
     inkscape:window-x="0"
     inkscape:window-y="36"
     inkscape:window-maximized="1" />
  <metadata
     id="metadata18438">
    <rdf:RDF>
      <cc:Work
         rdf:about="">
        <dc:format>image/svg+xml</dc:format>
        <dc:type
           rdf:resource="http://purl.org/dc/dcmitype/StillImage" />
        <dc:title></dc:title>
      </cc:Work>
    </rdf:RDF>
  </metadata>
  <g
     id="layer1"
     inkscape:label="Layer 1"
     inkscape:groupmode="layer">
    <g
       id="layer1-6"
       transform="translate(51.785714,45.785714)"
       style="fill:#175785;fill-opacity:0.5529412" />
    <path
       inkscape:connector-curvature="0"
       style="opacity:0.8;color:#000000;fill:none;stroke:url(#linearGradient18431);stroke-width:1;stroke-linecap:butt;stroke-linejoin:miter;stroke-miterlimit:4;stroke-opacity:1;stroke-dasharray:none;stroke-dashoffset:0;marker:none;visibility:visible;display:inline;overflow:visible;enable-background:accumulate"
       d="m 5.5000147,8.4999998 c -0.554,0 -1,0.446 -1,1 l 0,2.0000002 -1,0 c -0.554,0 -1,0.446 -1,1 l 0,6 c 0,0.554 0.446,1 1,1 l 40.9999903,0 c 0.554,0 1,-0.446 1,-1 l 0,-6 c 0,-0.554 -0.446,-1 -1,-1 l -23,0 0,-2.0000002 c 0,-0.554 -0.446,-1 -1,-1 l -14.9999903,0 z"
       id="rect4251-0-0-1-1-9-5-2-3-2-5-9-2" />
    <path
       inkscape:connector-curvature="0"
       style="color:#000000;fill:url(#linearGradient3089-5-2-9-8-6-8-0-7-1-8-7-4-8);fill-opacity:1;fill-rule:nonzero;stroke:none;stroke-width:0.99992168;marker:none;visibility:visible;display:inline;overflow:visible;enable-background:accumulate"
       d="m 5.5000147,8.9999998 c -0.277,0 -0.5,0.223 -0.5,0.5 l 0,2.5000002 -1.5,0 c -0.277,0 -0.5,0.223 -0.5,0.5 l 0,6 c 0,0.277 0.223,0.5 0.5,0.5 l 40.9999903,0 c 0.277,0 0.5,-0.223 0.5,-0.5 l 0,-6 c 0,-0.277 -0.223,-0.5 -0.5,-0.5 l -23.5,0 0,-2.5000002 c 0,-0.277 -0.223,-0.5 -0.5,-0.5 l -14.9999903,0 z"
       id="rect4251-4-7-62-4-4-9-2-5-6-0-5" />
    <path
       inkscape:connector-curvature="0"
       style="color:#000000;fill:none;stroke:url(#linearGradient3381-5-5-29-4-6-5-0-4-9-2-5-0);stroke-width:1;stroke-linecap:round;stroke-linejoin:round;stroke-miterlimit:4;stroke-opacity:1;stroke-dasharray:none;stroke-dashoffset:0;marker:none;visibility:visible;display:inline;overflow:visible;enable-background:accumulate"
       d="m 5.5000147,9.4999998 0,3.0000002 -2,0 0,7 40.9999903,0 0,-7 -24,0 0,-3.0000002 -14.9999903,0 z"
       id="rect4251-9-9-0-05-2-0-5-9-2-3-8-8" />
    <rect
       style="opacity:0.3;fill:url(#linearGradient3086-4-4-0-5-5-7-4-8-7-0-1);fill-opacity:1;fill-rule:nonzero;stroke:none;stroke-width:1;marker:none;visibility:visible;display:inline;overflow:visible"
       id="rect4173-6-7-7-3-5-1-4-5-7-0-3"
       y="41"
       x="4.8333616"
       height="6.0000005"
       width="38.333332" />
    <path
       style="opacity:0.3;fill:url(#radialGradient3083-4-5-6-4-5-0-5-1-0-7-5);fill-opacity:1;fill-rule:nonzero;stroke:none;stroke-width:1;marker:none;visibility:visible;display:inline;overflow:visible"
       id="path5058-7-9-1-3-0-3-4-8-9-3-1"
       inkscape:connector-curvature="0"
       d="m 43.166705,41.000209 c 0,0 0,5.99967 0,5.99967 1.5856,0.0113 3.8333,-1.34422 3.8333,-3.00022 0,-1.656 -1.7695,-2.99945 -3.8333,-2.99945 z" />
    <path
       style="opacity:0.3;fill:url(#radialGradient3080-2-3-9-9-8-8-9-6-1-3-7);fill-opacity:1;fill-rule:nonzero;stroke:none;stroke-width:1;marker:none;visibility:visible;display:inline;overflow:visible"
       id="path5018-8-1-1-6-9-4-9-7-5-7-8"
       inkscape:connector-curvature="0"
       d="m 4.8333147,41.000209 c 0,0 0,5.99967 0,5.99967 -1.5856,0.0113 -3.8333,-1.34422 -3.8333,-3.00022 0,-1.656 1.7695,-2.99945 3.8333,-2.99945 z" />
    <path
       style="fill:url(#linearGradient4638-4-6-8-9-9-5-8-7-2-3-4);fill-opacity:1;stroke:none"
       id="path3388-1-43-0-7-6-2-7-8-5-7-9"
       inkscape:connector-curvature="0"
       d="m 2.1626147,15.50019 c -1.0723,0.12829 -0.4996,1.45416 -0.5851,2.19974 0.1245,0.48182 0.9275,26.176429 0.9275,26.176429 0,0.7414 0.3517,0.61579 1.2429,0.61579 13.1886003,0 27.7725903,0 40.9610903,0 0.9601,0.0231 0.7572,0.0121 0.7572,-0.62748 0,0 0.993,-27.354209 1.0285,-27.781099 0,-0.44949 0.09,-0.58338 -0.4732,-0.58338 -14.084,0 -29.77479,0 -43.8588903,0 z"
       sodipodi:nodetypes="ccsscccsc" />
    <path
       style="opacity:0.4;fill:url(#linearGradient3072-0-3-0-7-4-8-7-3-6-5-8);fill-opacity:1;stroke:none"
       id="path6127-7-1-6-4-8-5-0-8-2-3-9"
       inkscape:connector-curvature="0"
       d="m 2.0582147,16.06515 43.8964903,4e-4 c 0.6342,0 1.0452,0.44461 1.0452,0.99737 l -1.0324,26.960369 c 0.015,0.6994 -0.2091,0.97671 -0.9459,0.96204 l -41.7807903,-0.0176 c -0.6341,0 -1.2736,-0.41276 -1.2736,-0.96551 L 1.0131147,17.0629 c 0,-0.55276 0.411,-0.99775 1.0451,-0.99775 z" />
    <path
       sodipodi:type="inkscape:offset"
       inkscape:radius="-1.0151105"
       inkscape:original="M 2.15625 16.5 C 1.0839484 16.623862 1.6479947 17.905133 1.5625 18.625 C 1.6869357 19.090206 2.5 43.90625 2.5 43.90625 C 2.5 44.622082 2.8587963 44.5 3.75 44.5 L 44.71875 44.5 C 45.67883 44.52232 45.46875 44.492483 45.46875 43.875 C 45.46875 43.875 46.464479 17.474672 46.5 17.0625 C 46.5 16.628509 46.594572 16.5 46.03125 16.5 L 2.15625 16.5 z "
       style="opacity:0.5;color:#000000;fill:none;stroke:url(#linearGradient3381-56-2-7-5-0-8-0-0-4-6-1-9);stroke-width:0.98133707;stroke-linecap:round;stroke-linejoin:miter;stroke-miterlimit:4;stroke-opacity:1;stroke-dasharray:none;stroke-dashoffset:0;marker:none;visibility:visible;display:inline;overflow:visible;enable-background:accumulate"
       id="path4587-4-6-3-0-1-2-6-8-9-5-4"
       d="m 2.5,17.5 c 0.016793,0.176427 0.022163,0.517935 0.03125,0.875 0.023112,0.08641 0.025524,0.05923 0.03125,0.09375 0.011058,0.06665 0.027034,0.138257 0.03125,0.1875 0.0064,0.07474 -0.00668,0.173042 0,0.28125 0.013352,0.216416 0.045306,0.510844 0.0625,0.875 0.034388,0.728313 0.078083,1.708883 0.125,2.90625 0.093834,2.394734 0.2030642,5.55569 0.3125,8.6875 C 3.3060459,37.481691 3.4883163,43.143759 3.5,43.5 c 0.1225025,0.0036 0.071108,0 0.25,0 l 40.71875,0 c 0.0124,-0.328836 0.253182,-6.426721 0.5,-12.90625 0.126691,-3.325928 0.245386,-6.68527 0.34375,-9.21875 0.04918,-1.26674 0.09434,-2.331501 0.125,-3.09375 0.01322,-0.328618 0.02246,-0.572975 0.03125,-0.78125 L 2.5,17.5 z"
       transform="matrix(1,0,0,1.0383977,1.4680025e-5,-1.6703602)" />
    <path
       style="opacity:0.3;fill:none;stroke:#000000;stroke-width:1;stroke-linecap:round;stroke-linejoin:round;stroke-miterlimit:4;stroke-opacity:1;stroke-dashoffset:0"
       id="path3388-1-43-0-7-6-2-7-8-5-7-9-0"
       inkscape:connector-curvature="0"
       d="m 2.1626147,15.50019 c -1.0723,0.12829 -0.4996,1.45416 -0.5851,2.19974 0.1245,0.48182 0.9275,26.176429 0.9275,26.176429 0,0.7414 0.3517,0.61579 1.2429,0.61579 13.1886003,0 27.7725903,0 40.9610903,0 0.9601,0.0231 0.7572,0.0121 0.7572,-0.62748 0,0 0.993,-27.354209 1.0285,-27.781099 0,-0.44949 0.09,-0.58338 -0.4732,-0.58338 -14.084,0 -29.77479,0 -43.8588903,0 z"
       sodipodi:nodetypes="ccsscccsc" />
    <g
       style="color:#000000;display:inline;overflow:visible;visibility:visible;fill:#ffffff;fill-opacity:0.55216283;fill-rule:nonzero;stroke:none;stroke-width:1.70000005;marker:none;enable-background:accumulate;opacity:0.3"
       id="layer1-2-21-1-7-0"
       transform="matrix(0.99952577,0,0,1.0494828,16.008358,23.215929)">
      <path
         inkscape:connector-curvature="0"
         style="color:#000000;font-style:normal;font-variant:normal;font-weight:normal;font-stretch:normal;font-size:medium;line-height:normal;font-family:sans-serif;text-indent:0;text-align:start;text-decoration:none;text-decoration-line:none;text-decoration-style:solid;text-decoration-color:#000000;letter-spacing:normal;word-spacing:normal;text-transform:none;direction:ltr;block-progression:tb;writing-mode:lr-tb;baseline-shift:baseline;text-anchor:start;white-space:normal;clip-rule:nonzero;display:inline;overflow:visible;visibility:visible;opacity:1;isolation:auto;mix-blend-mode:normal;color-interpolation:sRGB;color-interpolation-filters:linearRGB;solid-color:#000000;solid-opacity:1;fill:#ffffff;fill-opacity:0.55216283;fill-rule:nonzero;stroke:none;stroke-width:0.99999994;stroke-linecap:butt;stroke-linejoin:miter;stroke-miterlimit:4;stroke-dasharray:none;stroke-dashoffset:0;stroke-opacity:1;color-rendering:auto;image-rendering:auto;shape-rendering:auto;text-rendering:auto;enable-background:accumulate"
         d="m 7.9954336,0.74710244 c -4.4144668,0 -8.00379584,3.41853296 -8.00379584,7.62280196 0,4.2044036 3.58929904,7.6228026 8.00379584,7.6228026 4.4141404,0 8.0037964,-3.418352 8.0037964,-7.6228026 l 0,-0.476425 -0.0039,-0.0074 C 15.722716,3.9154154 12.23218,0.74711344 7.9954416,0.74711344 Z m 0.1035651,0.91190796 0.7542637,0.286599 -0.345867,0.863521 c -0.017138,0.0077 -0.033746,0.01665 -0.050804,0.02419 l 0.074252,0.02419 0.2364411,-0.132134 0.1719566,0.191687 -0.3458681,0.228907 -0.1973585,-0.132134 0.023451,-0.167493 c -0.394211,0.172979 -0.7703954,0.317862 -1.1880634,0.442927 L 6.9343862,3.7321974 6.6999,3.8643304 6.3520791,3.1924954 l 0.2598892,-0.251239 0,-0.264267 -0.6682857,-0.442927 0.1856348,-0.167493 c -0.070974,0.02696 -0.1387808,0.05063 -0.2090828,0.08375 l -0.297017,0.05955 -0.136783,0.132133 -0.234486,-0.04838 0.01173,0.05955 0.54518,0.06141 0.148508,0.2866 0.3204642,0.132133 -0.2833373,0.25124 C 5.8009146,2.9574784 5.6056046,2.8284514 5.4121866,2.7011824 l -0.297016,-0.09491 c -0.127497,0.08253 -0.246091,0.176669 -0.37127,0.262406 l -0.03713,0.0856 0.234486,-0.156326 0.285292,0.119106 0,0.228907 -0.234487,0 -0.285291,-0.191687 -0.111381,0.227047 -0.285292,0 0.136784,-0.348014 0.234486,-0.191686 -0.02345,-0.32382 0.04885,-0.119107 0.148508,0.2866 0.11138,-0.227047 0.185635,-0.03536 0.03713,-0.04839 0.123105,-0.05955 0.259889,-0.120967 0.285292,-0.03536 0.185634,-0.167494 0.3712701,-0.05955 0.1113808,0.191687 c -0.08413,0.02635 -0.1669752,0.05623 -0.2481647,0.08375 l 0.9535773,-0.253101 0.8675994,-0.09491 z m 3.1811963,1.138953 0.334143,0.119107 0.642883,0.120967 -0.160232,0.167493 -0.347822,0 0.347822,0.348014 0.271613,-0.288461 0.07425,-0.132134 c -1e-6,10e-7 1.026205,0.888966 1.610138,1.859175 0.583931,0.97053 0.85392,2.116309 0.85392,2.348628 l -0.199312,0.21588 c -0.122446,-0.139753 -0.255116,-0.2476 -0.394719,-0.370346 l -0.310695,0.03536 -0.271612,-0.299626 0,0.372207 0.234486,0.178659 0.162186,0.18052 0.209084,-0.240073 c 0.05371,0.09743 0.108849,0.202198 0.162186,0.299627 l 0,0.288461 -0.23644,0.262405 -0.445524,0.28846 -0.320465,0.310793 c 0.156709,-0.01079 0.308819,-0.02698 0.468973,-0.04653 l 0,0.2028526 -0.320464,0.766746 -0.298971,0.312654 -0.234485,0.50248 0,0.815134 0.08598,0.323821 -0.13483,0.14516 -0.297016,0.178659 -0.310693,0.240074 0.259888,0.275434 -0.345867,0.299626 0.06253,0.191687 -0.519778,0.563894 -0.347822,0 -0.283337,0.18052 -0.199312,0 0,-0.240073 -0.07426,-0.467121 c -0.103117,-0.293354 -0.211243,-0.583427 -0.320455,-0.874686 0,-0.214988 0.01018,-0.421519 0.02345,-0.636475 l 0.136784,-0.299626 -0.185635,-0.348014 0.01173,-0.478287 -0.246211,-0.277293 0.123106,-0.407568 -0.211038,-0.227046 -0.3595458,0 L 9.8557008,9.426968 9.4961553,9.655876 9.3613263,9.486522 9.0271829,9.763816 C 8.8009106,9.51538 8.5718149,9.267662 8.3452155,9.019402 L 8.0736017,8.4089824 8.3217663,8.0609694 8.1849825,7.9158084 8.4702748,7.2458354 c 0.2406021,-0.289873 0.5000571,-0.573239 0.7542637,-0.852354 l 0.4455232,-0.119106 0.5080543,-0.05955 0.345867,0.09491 0.496329,0.480147 0.171957,-0.191687 0.23644,-0.02419 0.457248,0.143299 0.345867,0 0.23644,-0.202852 0.111382,-0.156327 -0.236441,-0.1433 -0.408397,-0.02419 c -0.110973,-0.149092 -0.214109,-0.310452 -0.345867,-0.442927 l -0.123105,0.05955 -0.06253,0.383374 -0.234486,-0.264268 -0.0508,-0.286599 -0.271614,-0.215881 -0.11138,0 0.271613,0.299627 -0.111381,0.262406 -0.209085,0.06141 0.13483,-0.264268 -0.234486,-0.120967 -0.222762,-0.238212 -0.3966726,0.09491 -0.048853,0.120967 -0.2481647,0.143299 -0.1231043,0.323821 -0.3341435,0.156327 -0.1485074,-0.156327 -0.1621869,0 0,-0.528534 0.3478209,-0.178659 0.2598893,0 -0.050804,-0.204714 -0.2090842,-0.202854 0.3575916,-0.07258 0.1993135,-0.21588 0.160232,-0.264267 0.2970163,0 -0.08598,-0.202853 0.185635,-0.120968 0,0.228908 0.408396,0.09491 0.396673,-0.323821 0.02345,-0.143299 0.347821,-0.240073 c -0.125306,0.01509 -0.248824,0.02913 -0.37127,0.06141 l 0,-0.264268 0.13483,-0.28846 -0.13483,0 -0.297016,0.264268 -0.07425,0.143299 0.07425,0.204714 -0.136783,0.348013 -0.211039,-0.120967 -0.185635,-0.202853 -0.297015,0.202853 -0.099657,-0.46712 0.508052,-0.312654 0,-0.178659 0.322419,-0.204714 0.508054,-0.119107 z m -7.4390752,0.156327 0.209084,0.02234 0.162186,0.0856 -0.0254,0.310793 -0.285293,0.264266 -0.656561,0.35918 0.08793,0.264267 0.482651,0.191687 0.08598,0.348013 0.173912,-0.372206 0.285291,-0.119106 -0.0254,-0.169355 0.285291,-0.478286 0.357592,0.202853 -0.04885,0.228907 0.30874,-0.120967 0.136784,0.25124 -0.04885,0.18052 0.171956,0.04839 0.162186,0.1433 -0.0508,0.156327 0.199313,0.132133 -0.173911,0.262407 -0.07425,-0.370346 -0.396672,0.132133 -0.30874,0 -0.445524,0.202853 0.705413,0 -0.234486,0.334986 -0.470927,0.0856 -0.197359,0.286599 -0.37127,0.143299 -0.173911,0.420595 -0.496328,0.3964 -0.04885,0.57506 -0.285292,-0.348013 -0.382993,-0.08375 -0.06253,0.167493 -0.30874,0 -0.382994,0.288461 -0.0508,0.334986 0.0254,0.310793 0.259888,0.145161 0.173912,-0.08375 0.185635,-0.228907 0.185634,0 c -0.02608,0.19851 -0.06203,0.400708 -0.08793,0.599253 l 0.322418,-0.03536 0,0.312654 0.09966,0.2865986 c 0.125449,0.0747 0.290958,0.08158 0.431845,0.120967 l 0,-0.06141 0.470926,-0.3945396 0.445525,0.3107926 0.508054,-0.05955 0.211037,0.5397 0.382994,0.08375 0.211037,0.396401 c 0.421421,0.209951 0.8377317,0.419523 1.262318,0.623447 l -0.050804,0.4299 -0.3087394,0.420594 0.048853,0.563894 -0.1973596,0.454092 -0.3966721,0.0856 -0.171957,0.262407 0.07426,0.167493 -0.25989,0.623447 -0.334142,0.107939 -0.07425,0.204715 -0.211038,0.191686 0.04885,0.1433 c 0,0 -0.04647,0.03488 -0.09771,0.07258 -0.0514,0.03701 -0.859325,-0.401821 -0.879323,-0.46712 -0.01982,-0.06528 0,-0.05955 0,-0.05955 l 0.148508,-0.647631 -0.148509,-0.336847 0.0254,-0.599254 -0.211039,-0.2866 -0.470926,-0.396401 -0.457248,-0.815133 0.123106,-0.43176 -0.04885,-0.107941 0.160232,-0.227046 0.197359,-0.5397 0,-0.04839 -0.148507,-0.07258 -0.209084,0.03722 -0.359546,-0.264266 -0.234485,-0.275434 -0.545181,-0.1433 -0.54518,-0.312654 c 0,0 -0.22128704,-0.347681 -0.23448704,-0.407567 C 1.3020577,5.321662 2.7343037,3.947283 3.4444757,3.313469 c 0.05561,-0.0133 0.271612,-0.04839 0.271612,-0.04839 l 0.12506,-0.310793 z m 5.3091585,0.57506 0.1739104,0 c 0.085411,0.168804 0.1545203,0.326483 0.2227627,0.50248 l 0.2090831,0.191687 -0.2344862,0.228907 -0.3224189,0.05955 0.06253,-0.383373 0,-0.288461 -0.1113808,-0.119106 0,-0.191687 z m -0.2716129,0.383374 0.1113809,0.275433 -0.2598893,0.132133 -0.050804,-0.348013 0.1993135,-0.05955 z m 3.6267206,3.152595 -0.08793,0.08375 0.125059,0.43176 0.222762,0.240073 c 0.129227,0.361313 0.262144,0.709839 0.431845,1.055208 0.09341,0 0.182684,-0.0072 0.273567,-0.01303 l -0.199312,-0.227046 0.113334,-0.25124 -0.224715,-0.240073 -0.357592,-0.744414 -0.297016,-0.334986 z"
         id="path6495-6" />
    </g>
    <g
       style="color:#000000;display:inline;overflow:visible;visibility:visible;fill:#175785;fill-opacity:0.5521628;fill-rule:nonzero;stroke:none;stroke-width:1.70000005;marker:none;enable-background:accumulate"
       id="layer1-2-21-1-7"
       transform="matrix(0.99952577,0,0,1.0494828,16.008358,22.215894)">
      <path
         inkscape:connector-curvature="0"
         style="color:#000000;font-style:normal;font-variant:normal;font-weight:normal;font-stretch:normal;font-size:medium;line-height:normal;font-family:sans-serif;text-indent:0;text-align:start;text-decoration:none;text-decoration-line:none;text-decoration-style:solid;text-decoration-color:#000000;letter-spacing:normal;word-spacing:normal;text-transform:none;direction:ltr;block-progression:tb;writing-mode:lr-tb;baseline-shift:baseline;text-anchor:start;white-space:normal;clip-rule:nonzero;display:inline;overflow:visible;visibility:visible;opacity:1;isolation:auto;mix-blend-mode:normal;color-interpolation:sRGB;color-interpolation-filters:linearRGB;solid-color:#000000;solid-opacity:1;fill:#175785;fill-opacity:0.55294118;fill-rule:nonzero;stroke:none;stroke-width:0.99999994;stroke-linecap:butt;stroke-linejoin:miter;stroke-miterlimit:4;stroke-dasharray:none;stroke-dashoffset:0;stroke-opacity:1;color-rendering:auto;image-rendering:auto;shape-rendering:auto;text-rendering:auto;enable-background:accumulate"
         d="m 7.9954336,0.74710244 c -4.4144668,0 -8.00379584,3.41853296 -8.00379584,7.62280196 0,4.2044036 3.58929904,7.6228026 8.00379584,7.6228026 4.4141404,0 8.0037964,-3.418352 8.0037964,-7.6228026 l 0,-0.476425 -0.0039,-0.0074 C 15.722716,3.9154154 12.23218,0.74711344 7.9954416,0.74711344 Z m 0.1035651,0.91190796 0.7542637,0.286599 -0.345867,0.863521 c -0.017138,0.0077 -0.033746,0.01665 -0.050804,0.02419 l 0.074252,0.02419 0.2364411,-0.132134 0.1719566,0.191687 -0.3458681,0.228907 -0.1973585,-0.132134 0.023451,-0.167493 c -0.394211,0.172979 -0.7703954,0.317862 -1.1880634,0.442927 L 6.9343862,3.7321974 6.6999,3.8643304 6.3520791,3.1924954 l 0.2598892,-0.251239 0,-0.264267 -0.6682857,-0.442927 0.1856348,-0.167493 c -0.070974,0.02696 -0.1387808,0.05063 -0.2090828,0.08375 l -0.297017,0.05955 -0.136783,0.132133 -0.234486,-0.04838 0.01173,0.05955 0.54518,0.06141 0.148508,0.2866 0.3204642,0.132133 -0.2833373,0.25124 C 5.8009146,2.9574784 5.6056046,2.8284514 5.4121866,2.7011824 l -0.297016,-0.09491 c -0.127497,0.08253 -0.246091,0.176669 -0.37127,0.262406 l -0.03713,0.0856 0.234486,-0.156326 0.285292,0.119106 0,0.228907 -0.234487,0 -0.285291,-0.191687 -0.111381,0.227047 -0.285292,0 0.136784,-0.348014 0.234486,-0.191686 -0.02345,-0.32382 0.04885,-0.119107 0.148508,0.2866 0.11138,-0.227047 0.185635,-0.03536 0.03713,-0.04839 0.123105,-0.05955 0.259889,-0.120967 0.285292,-0.03536 0.185634,-0.167494 0.3712701,-0.05955 0.1113808,0.191687 c -0.08413,0.02635 -0.1669752,0.05623 -0.2481647,0.08375 l 0.9535773,-0.253101 0.8675994,-0.09491 z m 3.1811963,1.138953 0.334143,0.119107 0.642883,0.120967 -0.160232,0.167493 -0.347822,0 0.347822,0.348014 0.271613,-0.288461 0.07425,-0.132134 c -1e-6,10e-7 1.026205,0.888966 1.610138,1.859175 0.583931,0.97053 0.85392,2.116309 0.85392,2.348628 l -0.199312,0.21588 c -0.122446,-0.139753 -0.255116,-0.2476 -0.394719,-0.370346 l -0.310695,0.03536 -0.271612,-0.299626 0,0.372207 0.234486,0.178659 0.162186,0.18052 0.209084,-0.240073 c 0.05371,0.09743 0.108849,0.202198 0.162186,0.299627 l 0,0.288461 -0.23644,0.262405 -0.445524,0.28846 -0.320465,0.310793 c 0.156709,-0.01079 0.308819,-0.02698 0.468973,-0.04653 l 0,0.2028526 -0.320464,0.766746 -0.298971,0.312654 -0.234485,0.50248 0,0.815134 0.08598,0.323821 -0.13483,0.14516 -0.297016,0.178659 -0.310693,0.240074 0.259888,0.275434 -0.345867,0.299626 0.06253,0.191687 -0.519778,0.563894 -0.347822,0 -0.283337,0.18052 -0.199312,0 0,-0.240073 -0.07426,-0.467121 c -0.103117,-0.293354 -0.211243,-0.583427 -0.320455,-0.874686 0,-0.214988 0.01018,-0.421519 0.02345,-0.636475 l 0.136784,-0.299626 -0.185635,-0.348014 0.01173,-0.478287 -0.246211,-0.277293 0.123106,-0.407568 -0.211038,-0.227046 -0.3595458,0 L 9.8557008,9.426968 9.4961553,9.655876 9.3613263,9.486522 9.0271829,9.763816 C 8.8009106,9.51538 8.5718149,9.267662 8.3452155,9.019402 L 8.0736017,8.4089824 8.3217663,8.0609694 8.1849825,7.9158084 8.4702748,7.2458354 c 0.2406021,-0.289873 0.5000571,-0.573239 0.7542637,-0.852354 l 0.4455232,-0.119106 0.5080543,-0.05955 0.345867,0.09491 0.496329,0.480147 0.171957,-0.191687 0.23644,-0.02419 0.457248,0.143299 0.345867,0 0.23644,-0.202852 0.111382,-0.156327 -0.236441,-0.1433 -0.408397,-0.02419 c -0.110973,-0.149092 -0.214109,-0.310452 -0.345867,-0.442927 l -0.123105,0.05955 -0.06253,0.383374 -0.234486,-0.264268 -0.0508,-0.286599 -0.271614,-0.215881 -0.11138,0 0.271613,0.299627 -0.111381,0.262406 -0.209085,0.06141 0.13483,-0.264268 -0.234486,-0.120967 -0.222762,-0.238212 -0.3966726,0.09491 -0.048853,0.120967 -0.2481647,0.143299 -0.1231043,0.323821 -0.3341435,0.156327 -0.1485074,-0.156327 -0.1621869,0 0,-0.528534 0.3478209,-0.178659 0.2598893,0 -0.050804,-0.204714 -0.2090842,-0.202854 0.3575916,-0.07258 0.1993135,-0.21588 0.160232,-0.264267 0.2970163,0 -0.08598,-0.202853 0.185635,-0.120968 0,0.228908 0.408396,0.09491 0.396673,-0.323821 0.02345,-0.143299 0.347821,-0.240073 c -0.125306,0.01509 -0.248824,0.02913 -0.37127,0.06141 l 0,-0.264268 0.13483,-0.28846 -0.13483,0 -0.297016,0.264268 -0.07425,0.143299 0.07425,0.204714 -0.136783,0.348013 -0.211039,-0.120967 -0.185635,-0.202853 -0.297015,0.202853 -0.099657,-0.46712 0.508052,-0.312654 0,-0.178659 0.322419,-0.204714 0.508054,-0.119107 z m -7.4390752,0.156327 0.209084,0.02234 0.162186,0.0856 -0.0254,0.310793 -0.285293,0.264266 -0.656561,0.35918 0.08793,0.264267 0.482651,0.191687 0.08598,0.348013 0.173912,-0.372206 0.285291,-0.119106 -0.0254,-0.169355 0.285291,-0.478286 0.357592,0.202853 -0.04885,0.228907 0.30874,-0.120967 0.136784,0.25124 -0.04885,0.18052 0.171956,0.04839 0.162186,0.1433 -0.0508,0.156327 0.199313,0.132133 -0.173911,0.262407 -0.07425,-0.370346 -0.396672,0.132133 -0.30874,0 -0.445524,0.202853 0.705413,0 -0.234486,0.334986 -0.470927,0.0856 -0.197359,0.286599 -0.37127,0.143299 -0.173911,0.420595 -0.496328,0.3964 -0.04885,0.57506 -0.285292,-0.348013 -0.382993,-0.08375 -0.06253,0.167493 -0.30874,0 -0.382994,0.288461 -0.0508,0.334986 0.0254,0.310793 0.259888,0.145161 0.173912,-0.08375 0.185635,-0.228907 0.185634,0 c -0.02608,0.19851 -0.06203,0.400708 -0.08793,0.599253 l 0.322418,-0.03536 0,0.312654 0.09966,0.2865986 c 0.125449,0.0747 0.290958,0.08158 0.431845,0.120967 l 0,-0.06141 0.470926,-0.3945396 0.445525,0.3107926 0.508054,-0.05955 0.211037,0.5397 0.382994,0.08375 0.211037,0.396401 c 0.421421,0.209951 0.8377317,0.419523 1.262318,0.623447 l -0.050804,0.4299 -0.3087394,0.420594 0.048853,0.563894 -0.1973596,0.454092 -0.3966721,0.0856 -0.171957,0.262407 0.07426,0.167493 -0.25989,0.623447 -0.334142,0.107939 -0.07425,0.204715 -0.211038,0.191686 0.04885,0.1433 c 0,0 -0.04647,0.03488 -0.09771,0.07258 -0.0514,0.03701 -0.859325,-0.401821 -0.879323,-0.46712 -0.01982,-0.06528 0,-0.05955 0,-0.05955 l 0.148508,-0.647631 -0.148509,-0.336847 0.0254,-0.599254 -0.211039,-0.2866 -0.470926,-0.396401 -0.457248,-0.815133 0.123106,-0.43176 -0.04885,-0.107941 0.160232,-0.227046 0.197359,-0.5397 0,-0.04839 -0.148507,-0.07258 -0.209084,0.03722 -0.359546,-0.264266 -0.234485,-0.275434 -0.545181,-0.1433 -0.54518,-0.312654 c 0,0 -0.22128704,-0.347681 -0.23448704,-0.407567 C 1.3020577,5.321662 2.7343037,3.947283 3.4444757,3.313469 c 0.05561,-0.0133 0.271612,-0.04839 0.271612,-0.04839 l 0.12506,-0.310793 z m 5.3091585,0.57506 0.1739104,0 c 0.085411,0.168804 0.1545203,0.326483 0.2227627,0.50248 l 0.2090831,0.191687 -0.2344862,0.228907 -0.3224189,0.05955 0.06253,-0.383373 0,-0.288461 -0.1113808,-0.119106 0,-0.191687 z m -0.2716129,0.383374 0.1113809,0.275433 -0.2598893,0.132133 -0.050804,-0.348013 0.1993135,-0.05955 z m 3.6267206,3.152595 -0.08793,0.08375 0.125059,0.43176 0.222762,0.240073 c 0.129227,0.361313 0.262144,0.709839 0.431845,1.055208 0.09341,0 0.182684,-0.0072 0.273567,-0.01303 l -0.199312,-0.227046 0.113334,-0.25124 -0.224715,-0.240073 -0.357592,-0.744414 -0.297016,-0.334986 z"
         id="path6495" />
    </g>
  </g>
</svg>
