<?xml version="1.0" encoding="UTF-8" standalone="no"?>
<!-- Created with Inkscape (http://www.inkscape.org/) -->

<svg
   xmlns:dc="http://purl.org/dc/elements/1.1/"
   xmlns:cc="http://creativecommons.org/ns#"
   xmlns:rdf="http://www.w3.org/1999/02/22-rdf-syntax-ns#"
   xmlns:svg="http://www.w3.org/2000/svg"
   xmlns="http://www.w3.org/2000/svg"
   xmlns:xlink="http://www.w3.org/1999/xlink"
   xmlns:sodipodi="http://sodipodi.sourceforge.net/DTD/sodipodi-0.dtd"
   xmlns:inkscape="http://www.inkscape.org/namespaces/inkscape"
   version="1.1"
   width="128"
   height="128"
   id="svg4000"
   inkscape:version="0.91 r13725"
   sodipodi:docname="bookmark-missing.svg">
  <sodipodi:namedview
     pagecolor="#ffffff"
     bordercolor="#666666"
     borderopacity="1"
     objecttolerance="10"
     gridtolerance="10"
     guidetolerance="10"
     inkscape:pageopacity="0"
     inkscape:pageshadow="2"
     inkscape:window-width="2560"
     inkscape:window-height="1372"
     id="namedview60"
     showgrid="false"
     inkscape:zoom="5.2149125"
     inkscape:cx="64.486326"
     inkscape:cy="57.100678"
     inkscape:window-x="0"
     inkscape:window-y="36"
     inkscape:window-maximized="1"
     inkscape:current-layer="g3062" />
  <defs
     id="defs4002">
    <linearGradient
       x1="97.538795"
       y1="16.962049"
       x2="97.538795"
       y2="44.260689"
       id="linearGradient3097"
       xlink:href="#linearGradient8272"
       gradientUnits="userSpaceOnUse"
       gradientTransform="matrix(2.6658408,0,0,2.7170994,-143.33284,-69.19882)" />
    <linearGradient
       id="linearGradient8272">
      <stop
         id="stop8274"
         style="stop-color:#ffffff;stop-opacity:1"
         offset="0" />
      <stop
         id="stop8276"
         style="stop-color:#ffffff;stop-opacity:0.23529412"
         offset="0.0221225" />
      <stop
         id="stop8278"
         style="stop-color:#ffffff;stop-opacity:0.15686275"
         offset="0.97909725" />
      <stop
         id="stop8280"
         style="stop-color:#ffffff;stop-opacity:0.39215687"
         offset="1" />
    </linearGradient>
    <linearGradient
       x1="22.934725"
       y1="49.629246"
       x2="22.934725"
       y2="36.599415"
       id="linearGradient3100"
       xlink:href="#linearGradient6129-963-697-142-998-580-273"
       gradientUnits="userSpaceOnUse"
       gradientTransform="matrix(3.036796,0,0,2.6909701,-8.883113,-65.36461)" />
    <linearGradient
       id="linearGradient6129-963-697-142-998-580-273">
      <stop
         id="stop2661"
         style="stop-color:#0a0a0a;stop-opacity:0.498"
         offset="0" />
      <stop
         id="stop2663"
         style="stop-color:#0a0a0a;stop-opacity:0"
         offset="1" />
    </linearGradient>
    <linearGradient
       x1="-91"
       y1="43.999817"
       x2="-91"
       y2="119.05979"
       id="linearGradient3103"
       xlink:href="#linearGradient4632-0-6-4"
       gradientUnits="userSpaceOnUse"
       gradientTransform="matrix(1,0,0,1.0266674,147,-70.18659)" />
    <linearGradient
       id="linearGradient4632-0-6-4">
      <stop
         id="stop4634-4-4-7"
         style="stop-color:#e9e9e9;stop-opacity:1"
         offset="0" />
      <stop
         id="stop4636-3-1-5"
         style="stop-color:#b4b4b4;stop-opacity:1"
         offset="1" />
    </linearGradient>
    <linearGradient
       x1="302.85715"
       y1="366.64789"
       x2="302.85715"
       y2="609.50507"
       id="linearGradient22388"
       xlink:href="#linearGradient5048-585"
       gradientUnits="userSpaceOnUse"
       gradientTransform="matrix(0.2134205,0,0,0.06641689,-13.147881,75.518568)" />
    <linearGradient
       id="linearGradient5048-585">
      <stop
         id="stop2667"
         style="stop-color:#000000;stop-opacity:0"
         offset="0" />
      <stop
         id="stop2669"
         style="stop-color:#000000;stop-opacity:1"
         offset="0.5" />
      <stop
         id="stop2671"
         style="stop-color:#000000;stop-opacity:0"
         offset="1" />
    </linearGradient>
    <radialGradient
       cx="605.71429"
       cy="486.64789"
       r="117.14286"
       fx="605.71429"
       fy="486.64789"
       id="radialGradient22390"
       xlink:href="#linearGradient5060-179"
       gradientUnits="userSpaceOnUse"
       gradientTransform="matrix(0.08277507,0,0,0.06641689,65.628912,75.518568)" />
    <linearGradient
       id="linearGradient5060-179">
      <stop
         id="stop2675"
         style="stop-color:#000000;stop-opacity:1"
         offset="0" />
      <stop
         id="stop2677"
         style="stop-color:#000000;stop-opacity:0"
         offset="1" />
    </linearGradient>
    <radialGradient
       cx="605.71429"
       cy="486.64789"
       r="117.14286"
       fx="605.71429"
       fy="486.64789"
       id="radialGradient22392"
       xlink:href="#linearGradient5060-820"
       gradientUnits="userSpaceOnUse"
       gradientTransform="matrix(-0.08277505,0,0,0.06641689,62.347829,75.518568)" />
    <linearGradient
       id="linearGradient5060-820">
      <stop
         id="stop2681"
         style="stop-color:#000000;stop-opacity:1"
         offset="0" />
      <stop
         id="stop2683"
         style="stop-color:#000000;stop-opacity:0"
         offset="1" />
    </linearGradient>
    <linearGradient
       x1="97.538795"
       y1="8.8103228"
       x2="97.538795"
       y2="44.260689"
       id="linearGradient3110"
       xlink:href="#linearGradient9235"
       gradientUnits="userSpaceOnUse"
       gradientTransform="matrix(2.6658408,0,0,2.6469079,-143.33284,-66.04951)" />
    <linearGradient
       id="linearGradient9235">
      <stop
         id="stop9237"
         style="stop-color:#ffffff;stop-opacity:1"
         offset="0" />
      <stop
         id="stop9239"
         style="stop-color:#ffffff;stop-opacity:0.23529412"
         offset="0.1088333" />
      <stop
         id="stop9241"
         style="stop-color:#ffffff;stop-opacity:0.15686275"
         offset="0.97909725" />
      <stop
         id="stop9243"
         style="stop-color:#ffffff;stop-opacity:0.39215687"
         offset="1" />
    </linearGradient>
    <linearGradient
       x1="-51.786404"
       y1="53.514328"
       x2="-51.786404"
       y2="3.6336823"
       id="linearGradient3113"
       xlink:href="#linearGradient3104-8-8-97-4-6-11-5-5-1-0"
       gradientUnits="userSpaceOnUse"
       gradientTransform="matrix(2.1683519,0,0,2.2464645,141.9485,-68.59047)" />
    <linearGradient
       id="linearGradient3104-8-8-97-4-6-11-5-5-1-0">
      <stop
         id="stop3106-5-4-3-5-0-2-1-0-1-2"
         style="stop-color:#000000;stop-opacity:0.32173914"
         offset="0" />
      <stop
         id="stop3108-4-3-7-8-2-0-7-9-4-9"
         style="stop-color:#000000;stop-opacity:0.27826086"
         offset="1" />
    </linearGradient>
    <linearGradient
       id="linearGradient6404-7-5">
      <stop
         id="stop6406-1-8"
         style="stop-color:#f9f9f9;stop-opacity:1"
         offset="0" />
      <stop
         id="stop6408-9-6"
         style="stop-color:#c9c9c9;stop-opacity:1"
         offset="1" />
    </linearGradient>
    <linearGradient
       x1="62.988873"
       y1="14.090554"
       x2="62.988873"
       y2="16.997795"
       id="linearGradient3998"
       xlink:href="#linearGradient6404-7-5"
       gradientUnits="userSpaceOnUse"
       gradientTransform="matrix(2.7209303,0,0,2.6722576,-117.22021,-66.21387)" />
    <linearGradient
       inkscape:collect="always"
       xlink:href="#linearGradient8272"
       id="linearGradient3041"
       gradientUnits="userSpaceOnUse"
       gradientTransform="matrix(2.6658408,0,0,2.7170994,-143.33284,-5.19882)"
       x1="97.538795"
       y1="16.962049"
       x2="97.538795"
       y2="44.260689" />
    <linearGradient
       inkscape:collect="always"
       xlink:href="#linearGradient6129-963-697-142-998-580-273"
       id="linearGradient3044"
       gradientUnits="userSpaceOnUse"
       gradientTransform="matrix(3.036796,0,0,2.6909701,-8.883113,-1.36461)"
       x1="22.934725"
       y1="49.629246"
       x2="22.934725"
       y2="36.599415" />
    <linearGradient
       inkscape:collect="always"
       xlink:href="#linearGradient4632-0-6-4"
       id="linearGradient3047"
       gradientUnits="userSpaceOnUse"
       gradientTransform="matrix(1,0,0,1.0266674,147,-6.18659)"
       x1="-91"
       y1="43.999817"
       x2="-91"
       y2="119.05979" />
    <linearGradient
       inkscape:collect="always"
       xlink:href="#linearGradient9235"
       id="linearGradient3054"
       gradientUnits="userSpaceOnUse"
       gradientTransform="matrix(2.6658408,0,0,2.6469079,-143.33284,-2.04951)"
       x1="97.538795"
       y1="8.8103228"
       x2="97.538795"
       y2="44.260689" />
    <linearGradient
       inkscape:collect="always"
       xlink:href="#linearGradient3104-8-8-97-4-6-11-5-5-1-0"
       id="linearGradient3057"
       gradientUnits="userSpaceOnUse"
       gradientTransform="matrix(2.1683519,0,0,2.2464645,141.9485,-4.59047)"
       x1="-51.786404"
       y1="53.514328"
       x2="-51.786404"
       y2="3.6336823" />
    <linearGradient
       inkscape:collect="always"
       xlink:href="#linearGradient6404-7-5"
       id="linearGradient3060"
       gradientUnits="userSpaceOnUse"
       gradientTransform="matrix(2.7209303,0,0,2.6722576,-117.22021,-2.21387)"
       x1="62.988873"
       y1="14.090554"
       x2="62.988873"
       y2="16.997795" />
  </defs>
  <metadata
     id="metadata4005">
    <rdf:RDF>
      <cc:Work
         rdf:about="">
        <dc:format>image/svg+xml</dc:format>
        <dc:type
           rdf:resource="http://purl.org/dc/dcmitype/StillImage" />
        <dc:title></dc:title>
      </cc:Work>
    </rdf:RDF>
  </metadata>
  <g
     id="g3062">
    <path
       d="m 12.999997,21.03141 c -1.108,0 -2,0.892 -2,2 l 0,5.96875 -3.0000004,0 c -1.108,0 -2,0.892 -2,2 l 0,11 c 0,1.108 0.892,2 2,2 L 120,44.00016 c 1.108,0 2,-0.892 2,-2 l 0,-11 c 0,-1.108 -0.892,-2 -2,-2 l -63.000005,0 0,-5.96875 c 0,-1.108 -0.892,-2 -2,-2 l -41.999998,0 z"
       id="use13971"
       style="color:#000000;fill:url(#linearGradient3060);fill-opacity:1;fill-rule:nonzero;stroke:none;stroke-width:1.00000012;marker:none;visibility:visible;display:inline;overflow:visible;enable-background:accumulate"
       inkscape:connector-curvature="0" />
    <path
       d="m 13.662787,20.50032 c -1.87818,0.0205 -3.16279,0.9143 -3.16279,2.67225 l 0,5.32743 c -0.9606004,0 -1.4771004,-0.003 -2.1044004,0 -1.67856,0.008 -2.87762,0.94491 -2.87762,2.83298 0.0936,27.49765 -0.018,28.92194 -0.018,31.25655 3.90581,0 117.0000034,-9.88664 117.0000034,-14.1423 l 0,-17.14209 c 0,-1.75796 -1.15786,-2.82564 -3.03605,-2.80514 l -61.963955,0 0,-5.19887 c 0,-1.75795 -1.18743,-2.80081 -2.94827,-2.80081 l -40.888938,0 z"
       id="use13973"
       style="opacity:0.8;color:#000000;fill:none;stroke:url(#linearGradient3057);stroke-width:1;stroke-linecap:butt;stroke-linejoin:miter;stroke-miterlimit:4;stroke-opacity:1;stroke-dasharray:none;stroke-dashoffset:0;marker:none;visibility:visible;display:inline;overflow:visible;enable-background:accumulate"
       inkscape:connector-curvature="0" />
    <path
       d="m 13.499997,21.50016 c -1.108,0 -2,0.892 -2,2 l 0,6 -3.0000004,0 c -1.108,0 -2,0.892 -2,2 l 0,11 c 0,1.108 0.892,2 2,2 l 111.0000034,0 c 1.108,0 2,-0.892 2,-2 l 0,-11 c 0,-1.108 -0.892,-2 -2,-2 l -63.000005,0 0,-6 c 0,-1.108 -0.892,-2 -2,-2 l -40.999998,0 z"
       id="use13975"
       style="color:#000000;fill:none;stroke:url(#linearGradient3054);stroke-width:0.99999982;stroke-linecap:round;stroke-linejoin:round;stroke-miterlimit:4;stroke-opacity:1;stroke-dasharray:none;stroke-dashoffset:0;marker:none;visibility:visible;display:inline;overflow:visible;enable-background:accumulate"
       inkscape:connector-curvature="0" />
    <g
       transform="matrix(1.0027339,0,0,0.9919518,-0.16331336,6.9336)"
       id="use13977">
      <rect
         width="103.05159"
         height="16.129816"
         x="12.462574"
         y="99.870178"
         id="rect22382"
         style="opacity:0.3;fill:url(#linearGradient22388);fill-opacity:1;fill-rule:nonzero;stroke:none;stroke-width:1;marker:none;visibility:visible;display:inline;overflow:visible" />
      <path
         d="m 115.51417,99.870734 c 0,0 0,16.128926 0,16.128926 4.26271,0.0304 10.30516,-3.61367 10.30516,-8.0655 0,-4.45183 -4.75687,-8.063426 -10.30516,-8.063426 z"
         id="path22384"
         style="opacity:0.3;fill:url(#radialGradient22390);fill-opacity:1;fill-rule:nonzero;stroke:none;stroke-width:1;marker:none;visibility:visible;display:inline;overflow:visible"
         inkscape:connector-curvature="0" />
      <path
         d="m 12.462574,99.870734 c 0,0 0,16.128926 0,16.128926 -4.2627113,0.0304 -10.3051588,-3.61367 -10.3051588,-8.0655 0,-4.45183 4.7568636,-8.063426 10.3051588,-8.063426 z"
         id="path22386"
         style="opacity:0.3;fill:url(#radialGradient22392);fill-opacity:1;fill-rule:nonzero;stroke:none;stroke-width:1;marker:none;visibility:visible;display:inline;overflow:visible"
         inkscape:connector-curvature="0" />
    </g>
    <path
       d="m 6.2499966,39.49995 115.4999934,0.001 c 1.66861,0 2.75001,1.18375 2.75001,2.65543 l -2.71648,71.78068 c 0.0386,1.86211 -0.55015,2.60044 -2.48884,2.56139 L 9.3616366,116.45175 c -1.66859,0 -3.35116,-1.09895 -3.35116,-2.57064 l -2.51048,-71.72469 c 0,-1.47169 1.0814,-2.65647 2.75,-2.65647 z"
       id="use13979"
       style="fill:url(#linearGradient3047);fill-opacity:1;fill-rule:nonzero;stroke:none;stroke-width:0.99999982;marker:none;visibility:visible;display:inline;overflow:visible;enable-background:accumulate"
       inkscape:connector-curvature="0" />
    <path
       d="m 5.7727166,38.99994 116.4545434,10e-4 c 1.6824,0 2.77274,1.19912 2.77274,2.68993 l -2.73893,72.7129 c 0.0389,1.88629 -0.5547,2.63421 -2.50941,2.59465 L 8.9100766,116.95102 c -1.68238,0 -3.37885,-1.11323 -3.37885,-2.60404 l -2.53123,-72.65607 c 0,-1.4908 1.09034,-2.69097 2.77272,-2.69097 z"
       id="use13981"
       style="opacity:0.4;fill:url(#linearGradient3044);fill-opacity:1;stroke:none"
       inkscape:connector-curvature="0" />
    <path
       d="m 6.2499966,40.50015 c -2.84882,0.29656 -1.40933,3.76689 -1.63989,5.72017 0.78584,22.54795 1.57466,45.09583 2.35864,67.64381 1.18868,2.48974 4.4300904,1.28205 6.6383204,1.57433 35.235138,0.0205 70.470288,0.0412 105.705433,0.0617 2.566,-0.16531 1.15721,-3.81803 1.65357,-5.65555 0.85465,-22.56949 2.54292,-67.57135 2.54292,-67.57135 0,-1.16209 -0.77992,-1.7731 -2.20738,-1.7731 -37.089315,0 -77.962305,0 -115.0516134,0 z"
       id="use13983"
       style="opacity:0.8;fill:none;stroke:url(#linearGradient3041);stroke-width:0.99999988;stroke-linecap:round;stroke-linejoin:round;stroke-miterlimit:4;stroke-opacity:1;stroke-dasharray:none;stroke-dashoffset:0;marker:none;visibility:visible;display:inline;overflow:visible;enable-background:accumulate"
       inkscape:connector-curvature="0" />
    <path
       d="m 6.2499966,39.49994 115.4999934,10e-4 c 1.66861,0 2.75001,1.18375 2.75001,2.65543 l -2.71648,71.78068 c 0.0386,1.86211 -0.55015,2.60044 -2.48884,2.56139 L 9.3616366,116.45174 c -1.66859,0 -3.35116,-1.09895 -3.35116,-2.57064 l -2.51048,-71.72469 c 0,-1.47169 1.0814,-2.65647 2.75,-2.65647 z"
       id="path3369-7-0"
       style="opacity:0.3;fill:none;stroke:#000000;stroke-width:0.99999982;stroke-linecap:round;stroke-linejoin:round;stroke-miterlimit:4;stroke-opacity:1;stroke-dasharray:none;stroke-dashoffset:0;marker:none;visibility:visible;display:inline;overflow:visible;enable-background:accumulate"
       inkscape:connector-curvature="0" />
    <g
       transform="matrix(2.4972818,0,0,2.4922397,44.033149,63.88008)"
       id="layer1-2-21-1-3"
       style="color:#000000;display:inline;overflow:visible;visibility:visible;opacity:0.3;fill:#ffffff;fill-opacity:1;fill-rule:nonzero;stroke:#000000;stroke-width:1.60660839;stroke-miterlimit:4;stroke-dasharray:none;stroke-opacity:1;marker:none;enable-background:accumulate">
      <g
         transform="matrix(0.76198581,0,0,0.76198581,-0.38641034,4.178983)"
         inkscape:label="Layer 1"
         id="layer1-3-6"
         style="fill:#ffffff;fill-opacity:1;stroke:#000000;stroke-width:2.10844922;stroke-miterlimit:4;stroke-dasharray:none;stroke-opacity:1">
        <path
           style="color:#000000;font-style:normal;font-variant:normal;font-weight:normal;font-stretch:normal;font-size:medium;line-height:normal;font-family:sans-serif;text-indent:0;text-align:start;text-decoration:none;text-decoration-line:none;text-decoration-style:solid;text-decoration-color:#000000;letter-spacing:normal;word-spacing:normal;text-transform:none;direction:ltr;block-progression:tb;writing-mode:lr-tb;baseline-shift:baseline;text-anchor:start;white-space:normal;clip-rule:nonzero;display:inline;overflow:visible;visibility:visible;opacity:1;isolation:auto;mix-blend-mode:normal;color-interpolation:sRGB;color-interpolation-filters:linearRGB;solid-color:#000000;solid-opacity:1;fill:#ffffff;fill-opacity:1;fill-rule:nonzero;stroke:none;stroke-width:2.10844922;stroke-linecap:butt;stroke-linejoin:round;stroke-miterlimit:4;stroke-dasharray:none;stroke-dashoffset:0;stroke-opacity:1;marker:none;color-rendering:auto;image-rendering:auto;shape-rendering:auto;text-rendering:auto;enable-background:accumulate"
           d="m 11,-5.5585938 c -0.398157,0 -0.626993,0.1580593 -0.783203,0.2753907 -0.15621,0.1173313 -0.2591502,0.2322705 -0.357422,0.3496093 C 9.6628314,-4.6989161 9.4952703,-4.4414056 9.3183594,-4.1445312 8.9645376,-3.5507825 8.590155,-2.8116426 8.2207031,-2.0644531 7.8512513,-1.3172636 7.4900657,-0.56435604 7.1953125,0.0078125 7.0479359,0.29389677 6.9143462,0.53687267 6.8183594,0.6953125 6.7223725,0.85375233 6.5558136,0.95803071 6.8125,0.77148438 7.0691868,0.58493857 6.9185613,0.7115581 6.7382812,0.75390625 6.5580012,0.7962544 6.2862901,0.84664096 5.96875,0.8984375 5.3336698,1.0020306 4.506233,1.1138006 3.6816406,1.234375 2.8570483,1.3549494 2.0391357,1.4835908 1.3652344,1.6367188 1.0282837,1.7132827 0.73116548,1.7917788 0.44726562,1.90625 0.3053157,1.9634856 0.16373776,2.0263217 0.00390625,2.1386719 -0.15592526,2.2510221 -0.37704563,2.4203077 -0.5,2.7988281 c -0.12295414,0.3785201 -0.0417834,0.6452682 0.0214844,0.8300781 0.0632677,0.18481 0.13755601,0.3175224 0.21875,0.4472657 0.16238796,0.2594864 0.35638479,0.4977705 0.58398437,0.7578125 0.45519917,0.5200839 1.04437013,1.1070893 1.64062503,1.6894531 0.5962548,0.5823638 1.1994196,1.1580233 1.6523437,1.6152344 0.226462,0.2286055 0.4161319,0.4280887 0.5371094,0.5683593 0.1209775,0.1402707 0.1682992,0.3329069 0.070312,0.03125 C 4.1266223,8.4366236 4.2009951,8.620062 4.1855469,8.8046875 4.1700986,8.989313 4.1348166,9.2619791 4.0859375,9.5800781 3.9881793,10.216276 3.8374365,11.037668 3.6972656,11.859375 3.5570947,12.681082 3.4259313,13.49913 3.3632812,14.1875 c -0.031325,0.344185 -0.048447,0.65165 -0.027344,0.957031 0.010552,0.152691 0.028525,0.305477 0.085937,0.492188 0.057413,0.186711 0.14867,0.449557 0.4707031,0.683593 0.3220325,0.234037 0.6015143,0.241362 0.796875,0.238282 0.1953608,-0.0031 0.3456645,-0.03511 0.4941407,-0.07227 0.2969523,-0.07431 0.5828035,-0.184145 0.9003906,-0.320312 0.635174,-0.272335 1.373368,-0.651791 2.1113281,-1.039063 0.7379601,-0.387272 1.4722077,-0.782677 2.0468753,-1.072265 0.287333,-0.144795 0.536293,-0.264201 0.707031,-0.335938 0.170737,-0.07174 0.368182,-0.05664 0.05078,-0.05664 -0.3174,0 -0.119956,-0.0151 0.05078,0.05664 0.170738,0.07174 0.419698,0.191143 0.707031,0.335938 0.574668,0.289588 1.308915,0.684993 2.046876,1.072265 0.73796,0.387272 1.476154,0.766728 2.111328,1.039063 0.317587,0.136167 0.603438,0.246001 0.90039,0.320312 0.148476,0.03716 0.29878,0.06919 0.494141,0.07227 0.195361,0.0031 0.474842,-0.0042 0.796875,-0.238282 0.322033,-0.234036 0.41329,-0.496882 0.470703,-0.683593 0.05741,-0.186711 0.07539,-0.339497 0.08594,-0.492188 0.0211,-0.305381 0.004,-0.612846 -0.02734,-0.957031 -0.06265,-0.68837 -0.193814,-1.506418 -0.333985,-2.328125 -0.140171,-0.821707 -0.290913,-1.643099 -0.388672,-2.2792969 -0.04888,-0.318099 -0.08416,-0.590765 -0.09961,-0.7753906 -0.01545,-0.1846256 0.05892,-0.3680627 -0.03906,-0.066406 -0.09799,0.3016566 -0.05066,0.1090207 0.07031,-0.03125 0.120978,-0.1402706 0.310647,-0.3397538 0.537109,-0.5683593 0.452925,-0.457211 1.056089,-1.0328707 1.652344,-1.6152344 0.596255,-0.5823637 1.185426,-1.1693693 1.640625,-1.6894531 0.2276,-0.260042 0.421597,-0.498326 0.583985,-0.7578125 0.08119,-0.1297433 0.155482,-0.2624557 0.21875,-0.4472657 C 22.541783,3.4440963 22.622954,3.1773482 22.5,2.7988281 22.377046,2.4203077 22.155925,2.2510223 21.996094,2.1386719 21.836262,2.0263214 21.694684,1.9634857 21.552734,1.90625 21.268834,1.7917786 20.971716,1.7132828 20.634766,1.6367188 19.960864,1.4835906 19.142952,1.3549495 18.318359,1.234375 17.493767,1.1138005 16.66633,1.0020306 16.03125,0.8984375 15.71371,0.84664095 15.441999,0.79625438 15.261719,0.75390625 c -0.18028,-0.0423481 -0.330907,-0.16896928 -0.07422,0.0175781 0.256687,0.18654593 0.09013,0.0822677 -0.0059,-0.0761719 -0.09599,-0.15843962 -0.229577,-0.40141582 -0.376953,-0.6875 -0.294754,-0.57216836 -0.65594,-1.32507615 -1.025391,-2.07226565 -0.36941,-0.7471894 -0.743793,-1.4863293 -1.097614,-2.080078 C 12.50473,-4.4414056 12.337168,-4.698916 12.140625,-4.9335938 12.042353,-5.0509326 11.939413,-5.1658717 11.783203,-5.2832031 11.626993,-5.4005345 11.398157,-5.5585938 11,-5.5585938 Z m 0,2.7382813 c 0.270243,0.4746546 0.574108,1.0512725 0.890625,1.6914063 0.362231,0.73258662 0.723778,1.48574778 1.041016,2.10156245 0.158618,0.30790735 0.303765,0.58080965 0.445312,0.81445315 0.141547,0.2336435 0.170245,0.3987059 0.570313,0.6894531 0.400068,0.2907484 0.56612,0.2676152 0.832031,0.3300781 0.26591,0.062463 0.570331,0.1180778 0.912109,0.1738282 0.683558,0.1115006 1.511847,0.2216272 2.320313,0.3398437 0.705955,0.103227 1.34818,0.2138883 1.882812,0.3242187 -0.367694,0.4035856 -0.821615,0.8706164 -1.332031,1.3691407 -0.584599,0.5709791 -1.190252,1.1485284 -1.677734,1.640625 -0.243742,0.2460483 -0.456357,0.46892 -0.634766,0.6757812 -0.178409,0.2068612 -0.327715,0.2856018 -0.480469,0.7558594 -0.152752,0.4702575 -0.07942,0.6222969 -0.05664,0.8945313 0.02278,0.2722343 0.06458,0.5775616 0.117187,0.9199218 0.105214,0.6847204 0.2571,1.5068494 0.394531,2.3125004 0.119965,0.703253 0.213112,1.347972 0.273438,1.890625 -0.497405,-0.225087 -1.080993,-0.512139 -1.712891,-0.84375 -0.72353,-0.3797 -1.459598,-0.776201 -2.078125,-1.087891 C 12.397768,12.01603 12.119015,11.881198 11.867188,11.775391 11.61536,11.669583 11.494628,11.552734 11,11.552734 c -0.494629,0 -0.61536,0.11685 -0.867188,0.222657 -0.2518269,0.105807 -0.53058,0.240639 -0.8398432,0.396484 -0.6185265,0.31169 -1.3545945,0.708191 -2.078125,1.087891 -0.6318981,0.331611 -1.2154856,0.618663 -1.7128907,0.84375 0.060326,-0.542654 0.153473,-1.187372 0.2734375,-1.890625 C 5.9128225,11.40724 6.0647077,10.585111 6.1699219,9.9003906 6.222529,9.5580304 6.2643306,9.2527031 6.2871094,8.9804688 6.3098882,8.7082344 6.3832222,8.5561959 6.2304688,8.0859375 6.0777156,7.6156797 5.9284091,7.5369394 5.75,7.3300781 5.5715909,7.1232169 5.3589757,6.9003452 5.1152344,6.6542969 4.6277518,6.1622002 4.0220988,5.5846511 3.4375,5.0136719 2.9270843,4.5151475 2.473163,4.0481169 2.1054688,3.6445312 2.6401014,3.5342009 3.2823264,3.4235394 3.9882812,3.3203125 4.7967475,3.2020961 5.6250362,3.0919694 6.3085938,2.9804688 6.6503725,2.9247184 6.9547925,2.8691036 7.2207031,2.8066406 7.4866137,2.7441777 7.6526671,2.7673093 8.0527344,2.4765625 8.452801,2.1858149 8.4814999,2.0207526 8.6230469,1.7871094 8.7645939,1.5534661 8.9097407,1.2805635 9.0683594,0.97265625 9.3855968,0.35684176 9.7471436,-0.39631962 10.109375,-1.1289062 10.425893,-1.7690399 10.729757,-2.3456579 11,-2.8203125 Z"
           id="path1307-7"
           inkscape:connector-curvature="0" />
      </g>
    </g>
    <g
       transform="matrix(2.4972818,0,0,2.4922397,44.033149,59.880081)"
       id="layer1-2-21-1"
       style="color:#000000;display:inline;overflow:visible;visibility:visible;fill:#4e4e4e;fill-opacity:0.55216283;fill-rule:nonzero;stroke:#000000;stroke-width:1.60660839;stroke-miterlimit:4;stroke-dasharray:none;stroke-opacity:1;marker:none;enable-background:accumulate">
      <g
         transform="matrix(0.76198581,0,0,0.76198581,-0.38641034,4.178983)"
         inkscape:label="Layer 1"
         id="layer1-3"
         style="fill:#4e4e4e;fill-opacity:0.55216283;stroke:#000000;stroke-width:2.10844922;stroke-miterlimit:4;stroke-dasharray:none;stroke-opacity:1">
        <path
           style="color:#000000;font-style:normal;font-variant:normal;font-weight:normal;font-stretch:normal;font-size:medium;line-height:normal;font-family:sans-serif;text-indent:0;text-align:start;text-decoration:none;text-decoration-line:none;text-decoration-style:solid;text-decoration-color:#000000;letter-spacing:normal;word-spacing:normal;text-transform:none;direction:ltr;block-progression:tb;writing-mode:lr-tb;baseline-shift:baseline;text-anchor:start;white-space:normal;clip-rule:nonzero;display:inline;overflow:visible;visibility:visible;opacity:1;isolation:auto;mix-blend-mode:normal;color-interpolation:sRGB;color-interpolation-filters:linearRGB;solid-color:#000000;solid-opacity:1;fill:#4e4e4e;fill-opacity:0.55216283;fill-rule:nonzero;stroke:none;stroke-width:2.10844922;stroke-linecap:butt;stroke-linejoin:round;stroke-miterlimit:4;stroke-dasharray:none;stroke-dashoffset:0;stroke-opacity:1;marker:none;color-rendering:auto;image-rendering:auto;shape-rendering:auto;text-rendering:auto;enable-background:accumulate"
           d="m 11,-5.5585938 c -0.398157,0 -0.626993,0.1580593 -0.783203,0.2753907 -0.15621,0.1173313 -0.2591502,0.2322705 -0.357422,0.3496093 C 9.6628314,-4.6989161 9.4952703,-4.4414056 9.3183594,-4.1445312 8.9645376,-3.5507825 8.590155,-2.8116426 8.2207031,-2.0644531 7.8512513,-1.3172636 7.4900657,-0.56435604 7.1953125,0.0078125 7.0479359,0.29389677 6.9143462,0.53687267 6.8183594,0.6953125 6.7223725,0.85375233 6.5558136,0.95803071 6.8125,0.77148438 7.0691868,0.58493857 6.9185613,0.7115581 6.7382812,0.75390625 6.5580012,0.7962544 6.2862901,0.84664096 5.96875,0.8984375 5.3336698,1.0020306 4.506233,1.1138006 3.6816406,1.234375 2.8570483,1.3549494 2.0391357,1.4835908 1.3652344,1.6367188 1.0282837,1.7132827 0.73116548,1.7917788 0.44726562,1.90625 0.3053157,1.9634856 0.16373776,2.0263217 0.00390625,2.1386719 -0.15592526,2.2510221 -0.37704563,2.4203077 -0.5,2.7988281 c -0.12295414,0.3785201 -0.0417834,0.6452682 0.0214844,0.8300781 0.0632677,0.18481 0.13755601,0.3175224 0.21875,0.4472657 0.16238796,0.2594864 0.35638479,0.4977705 0.58398437,0.7578125 0.45519917,0.5200839 1.04437013,1.1070893 1.64062503,1.6894531 0.5962548,0.5823638 1.1994196,1.1580233 1.6523437,1.6152344 0.226462,0.2286055 0.4161319,0.4280887 0.5371094,0.5683593 0.1209775,0.1402707 0.1682992,0.3329069 0.070312,0.03125 C 4.1266223,8.4366236 4.2009951,8.620062 4.1855469,8.8046875 4.1700986,8.989313 4.1348166,9.2619791 4.0859375,9.5800781 3.9881793,10.216276 3.8374365,11.037668 3.6972656,11.859375 3.5570947,12.681082 3.4259313,13.49913 3.3632812,14.1875 c -0.031325,0.344185 -0.048447,0.65165 -0.027344,0.957031 0.010552,0.152691 0.028525,0.305477 0.085937,0.492188 0.057413,0.186711 0.14867,0.449557 0.4707031,0.683593 0.3220325,0.234037 0.6015143,0.241362 0.796875,0.238282 0.1953608,-0.0031 0.3456645,-0.03511 0.4941407,-0.07227 0.2969523,-0.07431 0.5828035,-0.184145 0.9003906,-0.320312 0.635174,-0.272335 1.373368,-0.651791 2.1113281,-1.039063 0.7379601,-0.387272 1.4722077,-0.782677 2.0468753,-1.072265 0.287333,-0.144795 0.536293,-0.264201 0.707031,-0.335938 0.170737,-0.07174 0.368182,-0.05664 0.05078,-0.05664 -0.3174,0 -0.119956,-0.0151 0.05078,0.05664 0.170738,0.07174 0.419698,0.191143 0.707031,0.335938 0.574668,0.289588 1.308915,0.684993 2.046876,1.072265 0.73796,0.387272 1.476154,0.766728 2.111328,1.039063 0.317587,0.136167 0.603438,0.246001 0.90039,0.320312 0.148476,0.03716 0.29878,0.06919 0.494141,0.07227 0.195361,0.0031 0.474842,-0.0042 0.796875,-0.238282 0.322033,-0.234036 0.41329,-0.496882 0.470703,-0.683593 0.05741,-0.186711 0.07539,-0.339497 0.08594,-0.492188 0.0211,-0.305381 0.004,-0.612846 -0.02734,-0.957031 -0.06265,-0.68837 -0.193814,-1.506418 -0.333985,-2.328125 -0.140171,-0.821707 -0.290913,-1.643099 -0.388672,-2.2792969 -0.04888,-0.318099 -0.08416,-0.590765 -0.09961,-0.7753906 -0.01545,-0.1846256 0.05892,-0.3680627 -0.03906,-0.066406 -0.09799,0.3016566 -0.05066,0.1090207 0.07031,-0.03125 0.120978,-0.1402706 0.310647,-0.3397538 0.537109,-0.5683593 0.452925,-0.457211 1.056089,-1.0328707 1.652344,-1.6152344 0.596255,-0.5823637 1.185426,-1.1693693 1.640625,-1.6894531 0.2276,-0.260042 0.421597,-0.498326 0.583985,-0.7578125 0.08119,-0.1297433 0.155482,-0.2624557 0.21875,-0.4472657 C 22.541783,3.4440963 22.622954,3.1773482 22.5,2.7988281 22.377046,2.4203077 22.155925,2.2510223 21.996094,2.1386719 21.836262,2.0263214 21.694684,1.9634857 21.552734,1.90625 21.268834,1.7917786 20.971716,1.7132828 20.634766,1.6367188 19.960864,1.4835906 19.142952,1.3549495 18.318359,1.234375 17.493767,1.1138005 16.66633,1.0020306 16.03125,0.8984375 15.71371,0.84664095 15.441999,0.79625438 15.261719,0.75390625 c -0.18028,-0.0423481 -0.330907,-0.16896928 -0.07422,0.0175781 0.256687,0.18654593 0.09013,0.0822677 -0.0059,-0.0761719 -0.09599,-0.15843962 -0.229577,-0.40141582 -0.376953,-0.6875 -0.294754,-0.57216836 -0.65594,-1.32507615 -1.025391,-2.07226565 -0.36941,-0.7471894 -0.743793,-1.4863293 -1.097614,-2.080078 C 12.50473,-4.4414056 12.337168,-4.698916 12.140625,-4.9335938 12.042353,-5.0509326 11.939413,-5.1658717 11.783203,-5.2832031 11.626993,-5.4005345 11.398157,-5.5585938 11,-5.5585938 Z m 0,2.7382813 c 0.270243,0.4746546 0.574108,1.0512725 0.890625,1.6914063 0.362231,0.73258662 0.723778,1.48574778 1.041016,2.10156245 0.158618,0.30790735 0.303765,0.58080965 0.445312,0.81445315 0.141547,0.2336435 0.170245,0.3987059 0.570313,0.6894531 0.400068,0.2907484 0.56612,0.2676152 0.832031,0.3300781 0.26591,0.062463 0.570331,0.1180778 0.912109,0.1738282 0.683558,0.1115006 1.511847,0.2216272 2.320313,0.3398437 0.705955,0.103227 1.34818,0.2138883 1.882812,0.3242187 -0.367694,0.4035856 -0.821615,0.8706164 -1.332031,1.3691407 -0.584599,0.5709791 -1.190252,1.1485284 -1.677734,1.640625 -0.243742,0.2460483 -0.456357,0.46892 -0.634766,0.6757812 -0.178409,0.2068612 -0.327715,0.2856018 -0.480469,0.7558594 -0.152752,0.4702575 -0.07942,0.6222969 -0.05664,0.8945313 0.02278,0.2722343 0.06458,0.5775616 0.117187,0.9199218 0.105214,0.6847204 0.2571,1.5068494 0.394531,2.3125004 0.119965,0.703253 0.213112,1.347972 0.273438,1.890625 -0.497405,-0.225087 -1.080993,-0.512139 -1.712891,-0.84375 -0.72353,-0.3797 -1.459598,-0.776201 -2.078125,-1.087891 C 12.397768,12.01603 12.119015,11.881198 11.867188,11.775391 11.61536,11.669583 11.494628,11.552734 11,11.552734 c -0.494629,0 -0.61536,0.11685 -0.867188,0.222657 -0.2518269,0.105807 -0.53058,0.240639 -0.8398432,0.396484 -0.6185265,0.31169 -1.3545945,0.708191 -2.078125,1.087891 -0.6318981,0.331611 -1.2154856,0.618663 -1.7128907,0.84375 0.060326,-0.542654 0.153473,-1.187372 0.2734375,-1.890625 C 5.9128225,11.40724 6.0647077,10.585111 6.1699219,9.9003906 6.222529,9.5580304 6.2643306,9.2527031 6.2871094,8.9804688 6.3098882,8.7082344 6.3832222,8.5561959 6.2304688,8.0859375 6.0777156,7.6156797 5.9284091,7.5369394 5.75,7.3300781 5.5715909,7.1232169 5.3589757,6.9003452 5.1152344,6.6542969 4.6277518,6.1622002 4.0220988,5.5846511 3.4375,5.0136719 2.9270843,4.5151475 2.473163,4.0481169 2.1054688,3.6445312 2.6401014,3.5342009 3.2823264,3.4235394 3.9882812,3.3203125 4.7967475,3.2020961 5.6250362,3.0919694 6.3085938,2.9804688 6.6503725,2.9247184 6.9547925,2.8691036 7.2207031,2.8066406 7.4866137,2.7441777 7.6526671,2.7673093 8.0527344,2.4765625 8.452801,2.1858149 8.4814999,2.0207526 8.6230469,1.7871094 8.7645939,1.5534661 8.9097407,1.2805635 9.0683594,0.97265625 9.3855968,0.35684176 9.7471436,-0.39631962 10.109375,-1.1289062 10.425893,-1.7690399 10.729757,-2.3456579 11,-2.8203125 Z"
           id="path1307"
           inkscape:connector-curvature="0" />
      </g>
    </g>
  </g>
</svg>
