<?xml version="1.0" encoding="UTF-8" standalone="no"?>
<!-- Created with Inkscape (http://www.inkscape.org/) -->

<svg
   xmlns:dc="http://purl.org/dc/elements/1.1/"
   xmlns:cc="http://creativecommons.org/ns#"
   xmlns:rdf="http://www.w3.org/1999/02/22-rdf-syntax-ns#"
   xmlns:svg="http://www.w3.org/2000/svg"
   xmlns="http://www.w3.org/2000/svg"
   xmlns:xlink="http://www.w3.org/1999/xlink"
   xmlns:sodipodi="http://sodipodi.sourceforge.net/DTD/sodipodi-0.dtd"
   xmlns:inkscape="http://www.inkscape.org/namespaces/inkscape"
   version="1.0"
   width="16"
   height="16"
   id="svg3187"
   inkscape:version="0.47 r22583"
   sodipodi:docname="weather-overcast.svg">
  <metadata
     id="metadata8">
    <rdf:RDF>
      <cc:Work
         rdf:about="">
        <dc:format>image/svg+xml</dc:format>
        <dc:type
           rdf:resource="http://purl.org/dc/dcmitype/StillImage" />
      </cc:Work>
    </rdf:RDF>
  </metadata>
  <sodipodi:namedview
     pagecolor="#ffffff"
     bordercolor="#666666"
     borderopacity="1"
     objecttolerance="10"
     gridtolerance="10"
     guidetolerance="10"
     inkscape:pageopacity="0"
     inkscape:pageshadow="2"
     inkscape:window-width="1440"
     inkscape:window-height="826"
     id="namedview6"
     showgrid="false"
     inkscape:zoom="32"
     inkscape:cx="2.3968125"
     inkscape:cy="8.9275802"
     inkscape:window-x="0"
     inkscape:window-y="25"
     inkscape:window-maximized="1"
     inkscape:current-layer="svg3187" />
  <defs
     id="defs3189">
    <linearGradient
       id="linearGradient3588">
      <stop
         style="stop-color:#000000;stop-opacity:1;"
         offset="0"
         id="stop3590" />
      <stop
         style="stop-color:#363636;stop-opacity:1;"
         offset="1"
         id="stop3592" />
    </linearGradient>
    <inkscape:perspective
       sodipodi:type="inkscape:persp3d"
       inkscape:vp_x="0 : 8 : 1"
       inkscape:vp_y="0 : 1000 : 0"
       inkscape:vp_z="16 : 8 : 1"
       inkscape:persp3d-origin="8 : 5.3333333 : 1"
       id="perspective10" />
    <linearGradient
       inkscape:collect="always"
       xlink:href="#linearGradient3588"
       id="linearGradient3594"
       x1="8"
       y1="1"
       x2="8"
       y2="15"
       gradientUnits="userSpaceOnUse" />
  </defs>
  <path
     d="M 8,1 C 6.8736963,1 5.9192139,1.5937616 5.40625,2.46875 C 5.1174033,2.2628041 4.74855,2.15625 4.34375,2.15625 C 3.4237499,2.1562501 2.6562501,2.7739286 2.65625,3.5625 C 2.6562501,3.7396006 2.7124231,3.9059552 2.78125,4.0625 C 1.7349115,4.4632321 1,5.388376 1,6.4375 C 0.99999999,7.7684007 2.1786846,8.8313578 3.6875,8.96875 C 3.9956974,7.829407 5.1473135,7.0937495 6.34375,7.09375 C 6.6162075,7.09375 6.8616791,7.2420988 7.125,7.3125 C 7.864399,6.5281276 8.826494,5.9375 10,5.9375 C 11.131647,5.9375 12.146962,6.4080811 12.875,7.15625 C 12.954138,6.9250822 13,6.6911907 13,6.4375 C 13,5.3091162 12.143764,4.34798 10.96875,4 C 10.97136,3.9511852 11,3.8931797 11,3.84375 C 11,2.2666071 9.6560004,1 8,1 z M 9.9999996,7 C 8.8736959,7 7.9087972,7.6071544 7.3958333,8.4821428 C 7.1069868,8.2761968 6.7381333,8.1428572 6.3333333,8.1428572 C 5.4133334,8.1428572 4.6666667,8.7828572 4.6666666,9.5714286 C 4.6666666,9.7485292 4.7020064,9.9148822 4.7708333,10.071427 C 3.7244948,10.472159 3,11.379446 3,12.42857 C 3,13.853141 4.338,15 6,15 L 12,15 C 13.662,15 15,13.853141 15,12.42857 C 15,11.300186 14.15418,10.34798 12.979166,10 C 12.981776,9.9511852 13,9.9065726 13,9.8571429 C 13,8.28 11.656,7 9.9999996,7 z"
     id="path2397"
     style="fill:url(#linearGradient3594);fill-opacity:1;fill-rule:evenodd;stroke:none;stroke-width:4;stroke-linecap:butt;stroke-linejoin:miter;marker:none;marker-start:none;marker-mid:none;marker-end:none;stroke-miterlimit:4;stroke-dasharray:none;stroke-dashoffset:0;stroke-opacity:1;visibility:visible;display:inline;overflow:visible;enable-background:accumulate;opacity:0.69999999999999996" />
</svg>
