<?xml version="1.0" encoding="UTF-8" standalone="no"?>
<!-- Created with Inkscape (http://www.inkscape.org/) -->

<svg
   xmlns:dc="http://purl.org/dc/elements/1.1/"
   xmlns:cc="http://creativecommons.org/ns#"
   xmlns:rdf="http://www.w3.org/1999/02/22-rdf-syntax-ns#"
   xmlns:svg="http://www.w3.org/2000/svg"
   xmlns="http://www.w3.org/2000/svg"
   xmlns:xlink="http://www.w3.org/1999/xlink"
   xmlns:sodipodi="http://sodipodi.sourceforge.net/DTD/sodipodi-0.dtd"
   xmlns:inkscape="http://www.inkscape.org/namespaces/inkscape"
   version="1.0"
   width="16"
   height="16"
   id="svg3186"
   inkscape:version="0.47 r22583"
   sodipodi:docname="weather-clouds-night.svg">
  <metadata
     id="metadata10">
    <rdf:RDF>
      <cc:Work
         rdf:about="">
        <dc:format>image/svg+xml</dc:format>
        <dc:type
           rdf:resource="http://purl.org/dc/dcmitype/StillImage" />
      </cc:Work>
    </rdf:RDF>
  </metadata>
  <sodipodi:namedview
     pagecolor="#ffffff"
     bordercolor="#666666"
     borderopacity="1"
     objecttolerance="10"
     gridtolerance="10"
     guidetolerance="10"
     inkscape:pageopacity="0"
     inkscape:pageshadow="2"
     inkscape:window-width="1440"
     inkscape:window-height="826"
     id="namedview8"
     showgrid="false"
     inkscape:zoom="11.313709"
     inkscape:cx="24.30208"
     inkscape:cy="7.9622556"
     inkscape:window-x="0"
     inkscape:window-y="25"
     inkscape:window-maximized="1"
     inkscape:current-layer="svg3186" />
  <defs
     id="defs3188">
    <linearGradient
       id="linearGradient5162">
      <stop
         style="stop-color:#000000;stop-opacity:1;"
         offset="0"
         id="stop5164" />
      <stop
         style="stop-color:#363636;stop-opacity:1;"
         offset="1"
         id="stop5166" />
    </linearGradient>
    <inkscape:perspective
       sodipodi:type="inkscape:persp3d"
       inkscape:vp_x="0 : 8 : 1"
       inkscape:vp_y="0 : 1000 : 0"
       inkscape:vp_z="16 : 8 : 1"
       inkscape:persp3d-origin="8 : 5.3333333 : 1"
       id="perspective12" />
    <linearGradient
       inkscape:collect="always"
       xlink:href="#linearGradient5162"
       id="linearGradient5158"
       x1="8.15625"
       y1="-0.0039067008"
       x2="8.15625"
       y2="16.001759"
       gradientUnits="userSpaceOnUse" />
    <linearGradient
       inkscape:collect="always"
       xlink:href="#linearGradient5162"
       id="linearGradient5160"
       x1="8.15625"
       y1="-0.0039067008"
       x2="8.15625"
       y2="16.001759"
       gradientUnits="userSpaceOnUse" />
    <linearGradient
       inkscape:collect="always"
       xlink:href="#linearGradient5162"
       id="linearGradient2820"
       gradientUnits="userSpaceOnUse"
       x1="8.15625"
       y1="1.9852493"
       x2="8.15625"
       y2="15.003782" />
    <linearGradient
       inkscape:collect="always"
       xlink:href="#linearGradient5162"
       id="linearGradient2823"
       gradientUnits="userSpaceOnUse"
       x1="8.15625"
       y1="1.9852493"
       x2="8.15625"
       y2="15.003782" />
  </defs>
  <path
     d="M 8,2 C 6.4490246,2.2603302 5.0385869,3.1823927 4.125,4.46875 3.2115131,5.7551076 2.8347702,7.4098781 3.09375,8.96875 3.173179,9.4468516 3.3080346,9.8993607 3.5,10.34375 3.543145,10.31488 3.58104,10.27774 3.625,10.25 c 10e-8,-0.7263822 0.4000789,-1.3455648 0.90625,-1.71875 0.5061711,-0.3731852 1.1437957,-0.5624999 1.8125,-0.5625 0.2932396,0 0.5377955,0.1438846 0.8125,0.21875 C 7.4683978,7.8897954 7.8335298,7.6418605 8.21875,7.4375 8.0585957,7.3134842 7.9272402,7.1991379 7.84375,7.125 6.6654774,6.0784374 9.5510756,1.7396699 8,2 z"
     id="path2876-6-6-4"
     style="opacity:0.69999999999999996;fill:url(#linearGradient2823);fill-opacity:1;stroke:none;display:inline" />
  <path
     d="M 9.9999996,8 C 8.8736959,8 7.9087972,8.5312601 7.3958333,9.2968749 c -0.2888465,-0.1802027 -0.6577,-0.2968748 -1.0625,-0.2968748 -0.9199999,0 -1.6666666,0.56 -1.6666667,1.2499999 0,0.154963 0.03534,0.300522 0.1041667,0.437499 C 3.7244948,11.03814 3,11.832015 3,12.749999 3,13.996499 4.338,15 6,15 l 6,0 c 1.662,0 3,-1.003501 3,-2.250001 C 15,11.762663 14.15418,10.929483 12.979166,10.625 12.981776,10.582287 13,10.543251 13,10.5 13,9.12 11.656,8 9.9999996,8 z"
     id="rect3193"
     style="opacity:0.69999999999999996;fill:url(#linearGradient2820);fill-opacity:1;fill-rule:evenodd;stroke:none;stroke-width:4;marker:none;visibility:visible;display:inline;overflow:visible;enable-background:accumulate" />
</svg>
