<?xml version="1.0" encoding="UTF-8" standalone="no"?>
<!-- Created with Inkscape (http://www.inkscape.org/) -->

<svg
   xmlns:dc="http://purl.org/dc/elements/1.1/"
   xmlns:cc="http://creativecommons.org/ns#"
   xmlns:rdf="http://www.w3.org/1999/02/22-rdf-syntax-ns#"
   xmlns:svg="http://www.w3.org/2000/svg"
   xmlns="http://www.w3.org/2000/svg"
   xmlns:xlink="http://www.w3.org/1999/xlink"
   xmlns:sodipodi="http://sodipodi.sourceforge.net/DTD/sodipodi-0.dtd"
   xmlns:inkscape="http://www.inkscape.org/namespaces/inkscape"
   version="1.0"
   width="16"
   height="16"
   id="svg3187"
   inkscape:version="0.47 r22583"
   sodipodi:docname="weather-snow.svg">
  <metadata
     id="metadata11">
    <rdf:RDF>
      <cc:Work
         rdf:about="">
        <dc:format>image/svg+xml</dc:format>
        <dc:type
           rdf:resource="http://purl.org/dc/dcmitype/StillImage" />
      </cc:Work>
    </rdf:RDF>
  </metadata>
  <sodipodi:namedview
     pagecolor="#ffffff"
     bordercolor="#666666"
     borderopacity="1"
     objecttolerance="10"
     gridtolerance="10"
     guidetolerance="10"
     inkscape:pageopacity="0"
     inkscape:pageshadow="2"
     inkscape:window-width="1440"
     inkscape:window-height="826"
     id="namedview9"
     showgrid="false"
     inkscape:zoom="7.4062499"
     inkscape:cx="-35.216675"
     inkscape:cy="-2.341698"
     inkscape:window-x="0"
     inkscape:window-y="25"
     inkscape:window-maximized="1"
     inkscape:current-layer="svg3187" />
  <defs
     id="defs3189">
    <linearGradient
       id="linearGradient3597">
      <stop
         style="stop-color:#000000;stop-opacity:1;"
         offset="0"
         id="stop3599" />
      <stop
         style="stop-color:#363636;stop-opacity:1;"
         offset="1"
         id="stop3601" />
    </linearGradient>
    <inkscape:perspective
       sodipodi:type="inkscape:persp3d"
       inkscape:vp_x="0 : 8 : 1"
       inkscape:vp_y="0 : 1000 : 0"
       inkscape:vp_z="16 : 8 : 1"
       inkscape:persp3d-origin="8 : 5.3333333 : 1"
       id="perspective13" />
    <linearGradient
       inkscape:collect="always"
       xlink:href="#linearGradient3597"
       id="linearGradient3603"
       x1="3"
       y1="1"
       x2="3"
       y2="15"
       gradientUnits="userSpaceOnUse" />
  </defs>
  <g
     id="g3591"
     style="fill:url(#linearGradient3603);fill-opacity:1;opacity:0.69999999999999996">
    <path
       style="fill:url(#linearGradient3603);fill-opacity:1;fill-rule:evenodd;stroke:none;stroke-width:4;stroke-linecap:butt;stroke-linejoin:miter;marker:none;marker-start:none;marker-mid:none;marker-end:none;stroke-miterlimit:4;stroke-dasharray:none;stroke-dashoffset:0;stroke-opacity:1;visibility:visible;display:inline;overflow:visible;enable-background:accumulate"
       id="path2397"
       d="M 10,1 C 8.8736959,1 7.9192139,1.5937616 7.40625,2.46875 C 7.1174033,2.2628039 6.74855,2.15625 6.34375,2.15625 C 5.4237499,2.1562499 4.6562501,2.7739286 4.65625,3.5625 C 4.6562501,3.7396007 4.7124231,3.9059552 4.78125,4.0625 C 3.7349113,4.4632319 3,5.388376 3,6.4375 C 3,7.564587 3.8583589,8.494777 5.03125,8.84375 C 5.0153936,8.7299596 5,8.6181571 5,8.5 C 5,7.119288 6.1192882,6 7.5,6 C 8.8807118,6 10,7.1192883 10,8.5 C 10,8.6725889 9.9708022,8.8372561 9.9375,9 L 12,9 C 13.662,9.0000003 15,7.862071 15,6.4375 C 15,5.309116 14.143764,4.34798 12.96875,4 C 12.97136,3.9511852 13,3.8931797 13,3.84375 C 13,2.2666071 11.656,1 10,1 z" />
    <path
       style="fill:url(#linearGradient3603);fill-opacity:1;stroke:none;stroke-width:0.90254228999999997;stroke-opacity:1"
       id="path2823"
       d="M 9.000001,11.5 C 9.000001,12.328427 9.6715741,13 10.5,13 C 11.328429,13 12.000001,12.328427 12.000001,11.5 C 12.000001,10.671573 11.328429,10 10.5,10 C 9.6715741,10 9.000001,10.671573 9.000001,11.5 L 9.000001,11.5 z" />
    <path
       style="fill:url(#linearGradient3603);fill-opacity:1;stroke:none;stroke-width:0.90254228999999997;stroke-opacity:1"
       id="path3630"
       d="M 6,8.5000002 C 6,9.3284268 6.6715729,10 7.5,10 C 8.3284271,10 9,9.3284268 9,8.5000002 C 9,7.671573 8.3284271,7 7.5,7 C 6.6715729,7 6,7.671573 6,8.5000002 L 6,8.5000002 z" />
    <path
       style="fill:url(#linearGradient3603);fill-opacity:1;stroke:none;stroke-width:0.90254228999999997;stroke-opacity:1"
       id="path3632"
       d="M 5,13.5 C 5,14.328427 5.6715728,15 6.5,15 C 7.3284272,15 8,14.328427 8,13.5 C 8,12.671573 7.3284272,12 6.5,12 C 5.6715728,12 5,12.671573 5,13.5 L 5,13.5 z" />
  </g>
</svg>
