<?xml version="1.0" encoding="UTF-8" standalone="no"?>
<!-- Created with Inkscape (http://www.inkscape.org/) -->

<svg
   xmlns:dc="http://purl.org/dc/elements/1.1/"
   xmlns:cc="http://creativecommons.org/ns#"
   xmlns:rdf="http://www.w3.org/1999/02/22-rdf-syntax-ns#"
   xmlns:svg="http://www.w3.org/2000/svg"
   xmlns="http://www.w3.org/2000/svg"
   xmlns:xlink="http://www.w3.org/1999/xlink"
   xmlns:sodipodi="http://sodipodi.sourceforge.net/DTD/sodipodi-0.dtd"
   xmlns:inkscape="http://www.inkscape.org/namespaces/inkscape"
   version="1.0"
   width="16"
   height="16"
   id="svg3187"
   inkscape:version="0.47 r22583"
   sodipodi:docname="weather-storm.svg">
  <metadata
     id="metadata10">
    <rdf:RDF>
      <cc:Work
         rdf:about="">
        <dc:format>image/svg+xml</dc:format>
        <dc:type
           rdf:resource="http://purl.org/dc/dcmitype/StillImage" />
      </cc:Work>
    </rdf:RDF>
  </metadata>
  <sodipodi:namedview
     pagecolor="#ffffff"
     bordercolor="#666666"
     borderopacity="1"
     objecttolerance="10"
     gridtolerance="10"
     guidetolerance="10"
     inkscape:pageopacity="0"
     inkscape:pageshadow="2"
     inkscape:window-width="1440"
     inkscape:window-height="826"
     id="namedview8"
     showgrid="false"
     inkscape:zoom="16"
     inkscape:cx="-4.4315008"
     inkscape:cy="1.5552125"
     inkscape:window-x="0"
     inkscape:window-y="25"
     inkscape:window-maximized="1"
     inkscape:current-layer="svg3187" />
  <defs
     id="defs3189">
    <linearGradient
       id="linearGradient3594">
      <stop
         style="stop-color:#000000;stop-opacity:1;"
         offset="0"
         id="stop3596" />
      <stop
         style="stop-color:#363636;stop-opacity:1;"
         offset="1"
         id="stop3598" />
    </linearGradient>
    <inkscape:perspective
       sodipodi:type="inkscape:persp3d"
       inkscape:vp_x="0 : 8 : 1"
       inkscape:vp_y="0 : 1000 : 0"
       inkscape:vp_z="16 : 8 : 1"
       inkscape:persp3d-origin="8 : 5.3333333 : 1"
       id="perspective12" />
    <linearGradient
       inkscape:collect="always"
       xlink:href="#linearGradient3594"
       id="linearGradient3600"
       x1="5.7805905"
       y1="0.9999634"
       x2="5.7805905"
       y2="16"
       gradientUnits="userSpaceOnUse" />
  </defs>
  <g
     id="g3590"
     style="fill:url(#linearGradient3600);fill-opacity:1;opacity:0.69999999999999996">
    <path
       style="fill:url(#linearGradient3600);fill-opacity:1;fill-rule:evenodd;stroke:none;stroke-width:4;stroke-linecap:butt;stroke-linejoin:miter;marker:none;marker-start:none;marker-mid:none;marker-end:none;stroke-miterlimit:4;stroke-dasharray:none;stroke-dashoffset:0;stroke-opacity:1;visibility:visible;display:inline;overflow:visible;enable-background:accumulate"
       id="path2397"
       d="M 9,1 C 7.8736962,1 6.9192139,1.5937616 6.40625,2.46875 C 6.1174036,2.2628039 5.74855,2.15625 5.34375,2.15625 C 4.4237502,2.1562499 3.6562501,2.7739286 3.65625,3.5625 C 3.6562499,3.7396007 3.7124231,3.9059552 3.78125,4.0625 C 2.7349116,4.4632319 2,5.388376 2,6.4375 C 2,7.3786174 2.5892405,8.1553802 3.46875,8.59375 L 9.75,2.3125 C 9.8931431,2.1652726 10.079019,2.0668675 10.28125,2.03125 C 10.632856,1.9721868 10.997616,2.0953304 11.21875,2.375 C 11.439884,2.6546697 11.482307,3.0464922 11.34375,3.375 L 9.875,7.03125 L 11.4375,7.03125 C 11.825217,7.0240863 12.181246,7.2416589 12.34375,7.59375 C 12.506254,7.945841 12.444494,8.3658548 12.1875,8.65625 L 12.03125,8.84375 C 13.17335,8.4832542 14,7.5457324 14,6.4375 C 14,5.309116 13.143764,4.34798 11.96875,4 C 11.97136,3.9511852 12,3.8931797 12,3.84375 C 12,2.2666071 10.656,1 9,1 z" />
    <path
       style="fill:url(#linearGradient3600);fill-opacity:1;fill-rule:evenodd;stroke:none"
       id="path3528"
       d="M 10.4375,3 L 3.4375,10 L 7.4375,10 L 4.4375,16 L 11.4375,8 L 8.4375,8 L 10.4375,3 z" />
  </g>
</svg>
