<?xml version="1.0" encoding="UTF-8" standalone="no"?>
<!-- Created with Inkscape (http://www.inkscape.org/) -->

<svg
   xmlns:dc="http://purl.org/dc/elements/1.1/"
   xmlns:cc="http://creativecommons.org/ns#"
   xmlns:rdf="http://www.w3.org/1999/02/22-rdf-syntax-ns#"
   xmlns:svg="http://www.w3.org/2000/svg"
   xmlns="http://www.w3.org/2000/svg"
   xmlns:xlink="http://www.w3.org/1999/xlink"
   xmlns:sodipodi="http://sodipodi.sourceforge.net/DTD/sodipodi-0.dtd"
   xmlns:inkscape="http://www.inkscape.org/namespaces/inkscape"
   version="1.0"
   width="16"
   height="16"
   id="svg3187"
   inkscape:version="0.47 r22583"
   sodipodi:docname="weather-severe-alert.svg">
  <metadata
     id="metadata10">
    <rdf:RDF>
      <cc:Work
         rdf:about="">
        <dc:format>image/svg+xml</dc:format>
        <dc:type
           rdf:resource="http://purl.org/dc/dcmitype/StillImage" />
      </cc:Work>
    </rdf:RDF>
  </metadata>
  <sodipodi:namedview
     pagecolor="#ffffff"
     bordercolor="#666666"
     borderopacity="1"
     objecttolerance="10"
     gridtolerance="10"
     guidetolerance="10"
     inkscape:pageopacity="0"
     inkscape:pageshadow="2"
     inkscape:window-width="1440"
     inkscape:window-height="826"
     id="namedview8"
     showgrid="false"
     inkscape:zoom="8"
     inkscape:cx="-25.135348"
     inkscape:cy="12.671602"
     inkscape:window-x="0"
     inkscape:window-y="25"
     inkscape:window-maximized="1"
     inkscape:current-layer="svg3187" />
  <defs
     id="defs3189">
    <linearGradient
       id="linearGradient3590">
      <stop
         style="stop-color:#000000;stop-opacity:1;"
         offset="0"
         id="stop3592" />
      <stop
         style="stop-color:#363636;stop-opacity:1;"
         offset="1"
         id="stop3594" />
    </linearGradient>
    <inkscape:perspective
       sodipodi:type="inkscape:persp3d"
       inkscape:vp_x="0 : 8 : 1"
       inkscape:vp_y="0 : 1000 : 0"
       inkscape:vp_z="16 : 8 : 1"
       inkscape:persp3d-origin="8 : 5.3333333 : 1"
       id="perspective12" />
    <linearGradient
       inkscape:collect="always"
       xlink:href="#linearGradient3590"
       id="linearGradient3596"
       x1="8"
       y1="1"
       x2="8"
       y2="9"
       gradientUnits="userSpaceOnUse" />
  </defs>
  <path
     d="M 9,1 C 7.8736962,1 6.9192139,1.5937616 6.40625,2.46875 C 6.1174036,2.2628039 5.74855,2.15625 5.34375,2.15625 C 4.4237502,2.1562499 3.6562501,2.7739286 3.65625,3.5625 C 3.6562499,3.7396007 3.7124231,3.9059552 3.78125,4.0625 C 2.7349116,4.4632319 2,5.388376 2,6.4375 C 2,7.862071 3.338,9 5,9 L 6,9 L 6,5.03125 C 6,4.5193811 6.425631,4.09375 6.9375,4.09375 L 9.0625,4.09375 C 9.5743691,4.09375 10,4.519381 10,5.03125 L 10,9 L 11,9 C 12.662,9.0000003 14,7.862071 14,6.4375 C 14,5.309116 13.143764,4.34798 11.96875,4 C 11.97136,3.9511852 12,3.8931797 12,3.84375 C 12,2.2666071 10.656,1 9,1 z"
     id="path2397"
     style="fill:url(#linearGradient3596);fill-opacity:1;fill-rule:evenodd;stroke:none;stroke-width:4;stroke-linecap:butt;stroke-linejoin:miter;marker:none;marker-start:none;marker-mid:none;marker-end:none;stroke-miterlimit:4;stroke-dasharray:none;stroke-dashoffset:0;stroke-opacity:1;visibility:visible;display:inline;overflow:visible;enable-background:accumulate;opacity:0.69999999999999996" />
  <path
     d="M 7,13 L 9,13 L 9,15 L 7,15 L 7,13 L 7,13 z M 7,5.0000004 L 7,10 L 7.5,12 L 8.5,12 L 9,10 L 9,5.0000004 L 7,5.0000004 L 7,5.0000004 z"
     id="path3659"
     style="fill:#dc0000;fill-opacity:1;stroke:none" />
</svg>
