<?xml version="1.0" encoding="UTF-8" standalone="no"?>
<svg
   xmlns:dc="http://purl.org/dc/elements/1.1/"
   xmlns:cc="http://creativecommons.org/ns#"
   xmlns:rdf="http://www.w3.org/1999/02/22-rdf-syntax-ns#"
   xmlns:svg="http://www.w3.org/2000/svg"
   xmlns="http://www.w3.org/2000/svg"
   xmlns:xlink="http://www.w3.org/1999/xlink"
   xmlns:sodipodi="http://sodipodi.sourceforge.net/DTD/sodipodi-0.dtd"
   xmlns:inkscape="http://www.inkscape.org/namespaces/inkscape"
   version="1.1"
   width="128"
   height="128"
   id="svg27224"
   inkscape:version="0.91 r13725"
   sodipodi:docname="folder-html.svg">
  <sodipodi:namedview
     pagecolor="#ffffff"
     bordercolor="#666666"
     borderopacity="1"
     objecttolerance="10"
     gridtolerance="10"
     guidetolerance="10"
     inkscape:pageopacity="0"
     inkscape:pageshadow="2"
     inkscape:window-width="2560"
     inkscape:window-height="1372"
     id="namedview64"
     showgrid="false"
     inkscape:zoom="3.6875"
     inkscape:cx="167.53817"
     inkscape:cy="1.9184086"
     inkscape:window-x="0"
     inkscape:window-y="36"
     inkscape:window-maximized="1"
     inkscape:current-layer="svg27224" />
  <defs
     id="defs27226">
    <linearGradient
       x1="97.538795"
       y1="16.962049"
       x2="97.538795"
       y2="44.260689"
       id="linearGradient22260"
       xlink:href="#linearGradient8272"
       gradientUnits="userSpaceOnUse"
       gradientTransform="matrix(2.6658408,0,0,2.7170994,-143.33284,-69.198823)" />
    <linearGradient
       id="linearGradient8272">
      <stop
         id="stop8274"
         style="stop-color:#ffffff;stop-opacity:1"
         offset="0" />
      <stop
         id="stop8276"
         style="stop-color:#ffffff;stop-opacity:0.23529412"
         offset="0.0221225" />
      <stop
         id="stop8278"
         style="stop-color:#ffffff;stop-opacity:0.15686275"
         offset="0.97909725" />
      <stop
         id="stop8280"
         style="stop-color:#ffffff;stop-opacity:0.39215687"
         offset="1" />
    </linearGradient>
    <linearGradient
       x1="22.934725"
       y1="49.629246"
       x2="22.934725"
       y2="36.599415"
       id="linearGradient22256"
       xlink:href="#linearGradient6129-963-697-142-998-580-273"
       gradientUnits="userSpaceOnUse"
       gradientTransform="matrix(3.036796,0,0,2.6909701,-8.8831134,-65.364613)" />
    <linearGradient
       id="linearGradient6129-963-697-142-998-580-273">
      <stop
         id="stop2661"
         style="stop-color:#0a0a0a;stop-opacity:0.498"
         offset="0" />
      <stop
         id="stop2663"
         style="stop-color:#0a0a0a;stop-opacity:0"
         offset="1" />
    </linearGradient>
    <linearGradient
       x1="-91"
       y1="43.999817"
       x2="-91"
       y2="119.05979"
       id="linearGradient22252"
       xlink:href="#linearGradient4632-0-6-4"
       gradientUnits="userSpaceOnUse"
       gradientTransform="matrix(1,0,0,1.0266674,147,-70.186593)" />
    <linearGradient
       id="linearGradient4632-0-6-4">
      <stop
         id="stop4634-4-4-7"
         style="stop-color:#b4cee1;stop-opacity:1"
         offset="0" />
      <stop
         id="stop4636-3-1-5"
         style="stop-color:#5d9fcd;stop-opacity:1"
         offset="1" />
    </linearGradient>
    <linearGradient
       x1="302.85715"
       y1="366.64789"
       x2="302.85715"
       y2="609.50507"
       id="linearGradient22244"
       xlink:href="#linearGradient5048-585"
       gradientUnits="userSpaceOnUse"
       gradientTransform="matrix(0.2134205,0,0,0.06641689,-13.147881,75.518568)" />
    <linearGradient
       id="linearGradient5048-585">
      <stop
         id="stop2667"
         style="stop-color:#000000;stop-opacity:0"
         offset="0" />
      <stop
         id="stop2669"
         style="stop-color:#000000;stop-opacity:1"
         offset="0.5" />
      <stop
         id="stop2671"
         style="stop-color:#000000;stop-opacity:0"
         offset="1" />
    </linearGradient>
    <radialGradient
       cx="605.71429"
       cy="486.64789"
       r="117.14286"
       fx="605.71429"
       fy="486.64789"
       id="radialGradient22246"
       xlink:href="#linearGradient5060-179"
       gradientUnits="userSpaceOnUse"
       gradientTransform="matrix(0.08277507,0,0,0.06641689,65.628912,75.518568)" />
    <linearGradient
       id="linearGradient5060-179">
      <stop
         id="stop2675"
         style="stop-color:#000000;stop-opacity:1"
         offset="0" />
      <stop
         id="stop2677"
         style="stop-color:#000000;stop-opacity:0"
         offset="1" />
    </linearGradient>
    <radialGradient
       cx="605.71429"
       cy="486.64789"
       r="117.14286"
       fx="605.71429"
       fy="486.64789"
       id="radialGradient22248"
       xlink:href="#linearGradient5060-820"
       gradientUnits="userSpaceOnUse"
       gradientTransform="matrix(-0.08277505,0,0,0.06641689,62.347829,75.518568)" />
    <linearGradient
       id="linearGradient5060-820">
      <stop
         id="stop2681"
         style="stop-color:#000000;stop-opacity:1"
         offset="0" />
      <stop
         id="stop2683"
         style="stop-color:#000000;stop-opacity:0"
         offset="1" />
    </linearGradient>
    <linearGradient
       x1="97.538795"
       y1="8.8103228"
       x2="97.538795"
       y2="44.260689"
       id="linearGradient22234"
       xlink:href="#linearGradient9235"
       gradientUnits="userSpaceOnUse"
       gradientTransform="matrix(2.6658408,0,0,2.6469079,-143.33284,-66.049513)" />
    <linearGradient
       id="linearGradient9235">
      <stop
         id="stop9237"
         style="stop-color:#ffffff;stop-opacity:1"
         offset="0" />
      <stop
         id="stop9239"
         style="stop-color:#ffffff;stop-opacity:0.23529412"
         offset="0.1088333" />
      <stop
         id="stop9241"
         style="stop-color:#ffffff;stop-opacity:0.15686275"
         offset="0.97909725" />
      <stop
         id="stop9243"
         style="stop-color:#ffffff;stop-opacity:0.39215687"
         offset="1" />
    </linearGradient>
    <linearGradient
       x1="-51.786404"
       y1="53.514328"
       x2="-51.786404"
       y2="3.6336823"
       id="linearGradient22230"
       xlink:href="#linearGradient3104-8-8-97-4-6-11-5-5-1-0"
       gradientUnits="userSpaceOnUse"
       gradientTransform="matrix(2.1683519,0,0,2.2464645,141.9485,-68.590473)" />
    <linearGradient
       id="linearGradient3104-8-8-97-4-6-11-5-5-1-0">
      <stop
         id="stop3106-5-4-3-5-0-2-1-0-1-2"
         style="stop-color:#000000;stop-opacity:0.32173914"
         offset="0" />
      <stop
         id="stop3108-4-3-7-8-2-0-7-9-4-9"
         style="stop-color:#000000;stop-opacity:0.27826086"
         offset="1" />
    </linearGradient>
    <linearGradient
       id="linearGradient6404-7-5">
      <stop
         id="stop6406-1-8"
         style="stop-color:#f9f9f9;stop-opacity:1"
         offset="0" />
      <stop
         id="stop6408-9-6"
         style="stop-color:#c9c9c9;stop-opacity:1"
         offset="1" />
    </linearGradient>
    <linearGradient
       x1="62.988873"
       y1="14.090554"
       x2="62.988873"
       y2="16.997795"
       id="linearGradient27222"
       xlink:href="#linearGradient6404-7-5"
       gradientUnits="userSpaceOnUse"
       gradientTransform="matrix(2.7209303,0,0,2.6722576,-117.22021,-66.213873)" />
  </defs>
  <metadata
     id="metadata27229">
    <rdf:RDF>
      <cc:Work
         rdf:about="">
        <dc:format>image/svg+xml</dc:format>
        <dc:type
           rdf:resource="http://purl.org/dc/dcmitype/StillImage" />
        <dc:title></dc:title>
      </cc:Work>
    </rdf:RDF>
  </metadata>
  <g
     transform="translate(0,64)"
     id="layer1">
    <path
       d="m 12.999997,-42.968593 c -1.108,0 -2,0.892 -2,2 l 0,5.96875 -3.0000004,0 c -1.108,0 -2,0.892 -2,2 l 0,11 c 0,1.108 0.892,2 2,2 l 112.0000034,0 c 1.108,0 2,-0.892 2,-2 l 0,-11 c 0,-1.108 -0.892,-2 -2,-2 l -63.000002,0 0,-5.96875 c 0,-1.108 -0.892,-2 -2,-2 l -42.000001,0 z"
       id="use12083"
       style="color:#000000;fill:url(#linearGradient27222);fill-opacity:1;fill-rule:nonzero;stroke:none;stroke-width:1.00000012;marker:none;visibility:visible;display:inline;overflow:visible;enable-background:accumulate" />
    <path
       d="m 13.662787,-43.499683 c -1.87818,0.0205 -3.16279,0.9143 -3.16279,2.67225 l 0,5.32743 c -0.9606004,0 -1.4771004,-0.003 -2.1044004,0 -1.67856,0.008 -2.87762,0.94491 -2.87762,2.83298 0.0936,27.4976499 -0.018,28.9219399 -0.018,31.2565499 3.90581,0 117.0000034,-9.8866399 117.0000034,-14.1422999 l 0,-17.14209 c 0,-1.75796 -1.15786,-2.82564 -3.03605,-2.80514 l -61.963952,0 0,-5.19887 c 0,-1.75795 -1.18743,-2.80081 -2.94827,-2.80081 l -40.888941,0 z"
       id="use12085"
       style="opacity:0.8;color:#000000;fill:none;stroke:url(#linearGradient22230);stroke-width:1;stroke-linecap:butt;stroke-linejoin:miter;stroke-miterlimit:4;stroke-opacity:1;stroke-dasharray:none;stroke-dashoffset:0;marker:none;visibility:visible;display:inline;overflow:visible;enable-background:accumulate" />
    <path
       d="m 13.499997,-42.499843 c -1.108,0 -2,0.892 -2,2 l 0,6 -3.0000004,0 c -1.108,0 -2,0.892 -2,2 l 0,11 c 0,1.108 0.892,2 2,2 l 111.0000034,0 c 1.108,0 2,-0.892 2,-2 l 0,-11 c 0,-1.108 -0.892,-2 -2,-2 l -63.000002,0 0,-6 c 0,-1.108 -0.892,-2 -2,-2 l -41.000001,0 z"
       id="use12087"
       style="color:#000000;fill:none;stroke:url(#linearGradient22234);stroke-width:0.99999982;stroke-linecap:round;stroke-linejoin:round;stroke-miterlimit:4;stroke-opacity:1;stroke-dasharray:none;stroke-dashoffset:0;marker:none;visibility:visible;display:inline;overflow:visible;enable-background:accumulate" />
    <g
       transform="matrix(1.0027339,0,0,0.9919518,-0.16331336,-57.066403)"
       id="use12089">
      <rect
         width="103.05159"
         height="16.129816"
         x="12.462574"
         y="99.870178"
         id="rect22238"
         style="opacity:0.3;fill:url(#linearGradient22244);fill-opacity:1;fill-rule:nonzero;stroke:none;stroke-width:1;marker:none;visibility:visible;display:inline;overflow:visible" />
      <path
         d="m 115.51417,99.870734 c 0,0 0,16.128926 0,16.128926 4.26271,0.0304 10.30516,-3.61367 10.30516,-8.0655 0,-4.45183 -4.75687,-8.063426 -10.30516,-8.063426 z"
         id="path22240"
         style="opacity:0.3;fill:url(#radialGradient22246);fill-opacity:1;fill-rule:nonzero;stroke:none;stroke-width:1;marker:none;visibility:visible;display:inline;overflow:visible" />
      <path
         d="m 12.462574,99.870734 c 0,0 0,16.128926 0,16.128926 -4.2627113,0.0304 -10.3051588,-3.61367 -10.3051588,-8.0655 0,-4.45183 4.7568636,-8.063426 10.3051588,-8.063426 z"
         id="path22242"
         style="opacity:0.3;fill:url(#radialGradient22248);fill-opacity:1;fill-rule:nonzero;stroke:none;stroke-width:1;marker:none;visibility:visible;display:inline;overflow:visible" />
    </g>
    <path
       d="m 6.2499966,-24.500053 115.4999934,0.001 c 1.66861,0 2.75001,1.18375 2.75001,2.65543 l -2.71648,71.78068 c 0.0386,1.86211 -0.55015,2.60044 -2.48884,2.56139 L 9.3616366,52.451747 c -1.66859,0 -3.35116,-1.09895 -3.35116,-2.57064 l -2.51048,-71.72469 c 0,-1.47169 1.0814,-2.65647 2.75,-2.65647 z"
       id="use12091"
       style="fill:url(#linearGradient22252);fill-opacity:1;fill-rule:nonzero;stroke:none;stroke-width:0.99999982;marker:none;visibility:visible;display:inline;overflow:visible;enable-background:accumulate" />
    <path
       d="m 5.7727166,-25.000063 116.4545434,0.001 c 1.6824,0 2.77274,1.19912 2.77274,2.68993 l -2.73893,72.7129 c 0.0389,1.88629 -0.5547,2.63421 -2.50941,2.59465 L 8.9100766,52.951017 c -1.68238,0 -3.37885,-1.11323 -3.37885,-2.60404 l -2.53123,-72.65607 c 0,-1.4908 1.09034,-2.69097 2.77272,-2.69097 z"
       id="use12093"
       style="opacity:0.4;fill:url(#linearGradient22256);fill-opacity:1;stroke:none" />
    <path
       d="m 6.2499966,-23.499853 c -2.84882,0.29656 -1.40933,3.76689 -1.63989,5.72017 0.78584,22.5479499 1.57466,45.09583 2.35864,67.64381 1.18868,2.48974 4.4300904,1.28205 6.6383204,1.57433 35.235141,0.0205 70.470291,0.0412 105.705433,0.0617 2.566,-0.16531 1.15721,-3.81803 1.65357,-5.65555 0.85465,-22.56949 2.54292,-67.57135 2.54292,-67.57135 0,-1.16209 -0.77992,-1.7731 -2.20738,-1.7731 -37.089312,0 -77.962302,0 -115.0516134,0 z"
       id="use12095"
       style="opacity:0.5;fill:none;stroke:url(#linearGradient22260);stroke-width:0.99999988;stroke-linecap:round;stroke-linejoin:round;stroke-miterlimit:4;stroke-opacity:1;stroke-dasharray:none;stroke-dashoffset:0;marker:none;visibility:visible;display:inline;overflow:visible;enable-background:accumulate" />
    <path
       d="m 6.2499966,-24.500053 115.4999934,0.001 c 1.66861,0 2.75001,1.18375 2.75001,2.65543 l -2.71648,71.78068 c 0.0386,1.86211 -0.55015,2.60044 -2.48884,2.56139 L 9.3616366,52.451747 c -1.66859,0 -3.35116,-1.09895 -3.35116,-2.57064 l -2.51048,-71.72469 c 0,-1.47169 1.0814,-2.65647 2.75,-2.65647 z"
       id="path3369-7-2"
       style="opacity:0.3;fill:none;stroke:#000000;stroke-width:0.99999982;stroke-linecap:round;stroke-linejoin:round;stroke-miterlimit:4;stroke-opacity:1;stroke-dasharray:none;stroke-dashoffset:0;marker:none;visibility:visible;display:inline;overflow:visible;enable-background:accumulate" />
    <path
       inkscape:connector-curvature="0"
       style="fill:#ffffff;fill-opacity:0.5529412;fill-rule:nonzero;stroke:none;stroke-width:0.99999994;stroke-miterlimit:4;stroke-dasharray:none;opacity:0.3"
       d="m 63.999999,-7.802 a 24.000003,24.000003 0 0 0 -4.769533,0.48048 24.000003,24.000003 0 0 0 -0.07032,0.012 c -0.0366,0.0078 -0.06864,0.0276 -0.10548,0.0354 a 24.000003,24.000003 0 0 0 -4.265622,1.324218 c -0.0408,0.0168 -0.0882,0.018 -0.12894,0.0354 a 24.000003,24.000003 0 0 0 -0.012,0.012 c -0.0324,0.0138 -0.06144,0.033 -0.09378,0.0468 a 24.000003,24.000003 0 0 0 -3.773437,2.050782 c -0.08796,0.0582 -0.1824,0.104701 -0.26952,0.164041 a 24.000003,24.000003 0 0 0 -3.304686,2.71875 c -0.07932,0.07782 -0.15612,0.15546 -0.23436,0.23436 a 24.000003,24.000003 0 0 0 -2.671872,3.222654 c -0.09324,0.13416 -0.19068,0.26232 -0.28122,0.39846 a 24.000003,24.000003 0 0 0 -1.945315,3.585943 c -0.08388,0.1896 -0.17874,0.37032 -0.25782,0.5625 a 24.000003,24.000003 0 0 0 -1.207032,3.914058 c -0.0456,0.20478 -0.1005,0.40266 -0.14064,0.609378 a 24.000003,24.000003 0 0 0 -0.46842,4.592779 24.000003,24.000003 0 0 0 0.48048,4.769533 24.000003,24.000003 0 0 0 0.012,0.0354 c 0.0096,0.048 0.0252,0.09264 0.0354,0.14064 a 24.000003,24.000003 0 0 0 1.324218,4.265622 c 0.0168,0.0408 0.018,0.0882 0.0354,0.12888 a 24.000003,24.000003 0 0 0 0.012,0.012 c 0.0138,0.0324 0.033,0.06144 0.0468,0.09378 a 24.000003,24.000003 0 0 0 2.050782,3.773437 c 0.0582,0.08796 0.104701,0.18234 0.164041,0.26952 a 24.000003,24.000003 0 0 0 2.71875,3.304686 c 0.07782,0.07932 0.15546,0.15612 0.23436,0.23436 a 24.000003,24.000003 0 0 0 3.222654,2.671872 c 0.13416,0.09324 0.26232,0.19068 0.39846,0.28122 a 24.000003,24.000003 0 0 0 3.585943,1.945315 c 0.1896,0.08388 0.37032,0.17874 0.5625,0.25782 a 24.000003,24.000003 0 0 0 3.914058,1.207032 c 0.20478,0.0456 0.40266,0.1005 0.609378,0.14064 a 24.000003,24.000003 0 0 0 4.592779,0.46824 24.000003,24.000003 0 0 0 4.769533,-0.48048 24.000003,24.000003 0 0 0 0.07032,-0.012 c 0.0366,-0.0078 0.0687,-0.0276 0.10548,-0.0354 a 24.000003,24.000003 0 0 0 4.265622,-1.324218 24.000003,24.000003 0 0 0 0.12888,-0.0354 c 0.0049,-0.0021 0.0066,-0.0096 0.012,-0.012 a 24.000003,24.000003 0 0 0 0.09378,-0.0468 24.000003,24.000003 0 0 0 3.773437,-2.050782 c 0.08796,-0.0582 0.18234,-0.104701 0.26952,-0.164041 a 24.000003,24.000003 0 0 0 3.304686,-2.71875 c 0.07932,-0.07782 0.15612,-0.15546 0.23436,-0.23436 a 24.000003,24.000003 0 0 0 2.671872,-3.222654 c 0.09324,-0.13416 0.19068,-0.26232 0.28122,-0.39846 a 24.000003,24.000003 0 0 0 1.945315,-3.585943 c 0.08388,-0.1896 0.17874,-0.37032 0.25782,-0.5625 a 24.000003,24.000003 0 0 0 1.207028,-3.914058 c 0.0456,-0.20478 0.1005,-0.40266 0.14064,-0.609378 a 24.000003,24.000003 0 0 0 0.46848,-4.592779 24.000003,24.000003 0 0 0 -0.48048,-4.769533 24.000003,24.000003 0 0 0 -0.012,-0.07032 c -0.008,-0.0366 -0.0276,-0.0687 -0.0354,-0.10548 a 24.000003,24.000003 0 0 0 -1.324214,-4.265622 24.000003,24.000003 0 0 0 -0.0354,-0.12888 c -0.0021,-0.0049 -0.0096,-0.0066 -0.012,-0.012 a 24.000003,24.000003 0 0 0 -0.0468,-0.09378 24.000003,24.000003 0 0 0 -2.050782,-3.773437 c -0.0582,-0.08796 -0.104701,-0.18234 -0.164041,-0.26952 a 24.000003,24.000003 0 0 0 -2.71875,-3.304686 c -0.07782,-0.07932 -0.15546,-0.15612 -0.23436,-0.23436 a 24.000003,24.000003 0 0 0 -3.222654,-2.671872 c -0.13416,-0.09324 -0.26232,-0.19068 -0.39846,-0.28122 a 24.000003,24.000003 0 0 0 -3.585943,-1.945309 c -0.1896,-0.08388 -0.37032,-0.17874 -0.5625,-0.25782 a 24.000003,24.000003 0 0 0 -3.914058,-1.207032 c -0.20478,-0.0456 -0.40266,-0.1005 -0.609378,-0.14064 a 24.000003,24.000003 0 0 0 -4.592779,-0.46848 z m -0.0588,6.000001 c -0.781416,0.32496 -1.551696,0.67374 -2.390622,0.9375 l -0.949218,1.488282 -0.750001,0.44532 -1.03125,-2.09766 a 18.000002,18.000002 0 0 1 5.121295,-0.773442 z m 1.417968,0.07032 a 18.000002,18.000002 0 0 1 0.949224,0.10548 l -0.39846,0.26952 -0.5508,-0.375 z m 5.742193,1.394532 a 18.000002,18.000002 0 0 1 1.96875,1.007808 l 0.12888,0.35154 -0.43362,1.171878 -0.679692,-0.39846 -0.59766,-0.691404 -0.949218,0.691404 -0.31638,-1.570308 0.87891,-0.5625 z m -3.410161,0.28122 0.550801,0 c 0.27318,0.56688 0.49656,1.09644 0.714846,1.6875 l 0.679686,0.644532 -0.75,0.761718 -1.031251,0.1992 0.199201,-1.277346 0,-0.972654 -0.363301,-0.39846 0,-0.644532 z m -13.382809,1.08984 0.0468,0.0354 -0.16404,0.761718 0.984378,-0.39846 0.44532,0.843756 -0.16404,0.59766 0.5508,0.16404 0.51564,0.48048 -0.15234,0.52734 0.632808,0.445321 -0.5508,0.878904 -0.24612,-1.242187 -1.265628,0.433621 -0.984372,0 -1.429686,0.691404 2.261718,0 -0.761718,1.125 -1.5,0.28122 -0.632815,0.97266 -1.183596,0.48048 -0.5508,1.40625 -1.59375,1.324218 -0.15234,1.933597 -0.914064,-1.160161 -0.832032,-0.1875 a 18.000002,18.000002 0 0 1 4.171878,-7.488283 l 0.07032,0.269521 0.28122,-0.632815 a 18.000002,18.000002 0 0 1 1.019533,-0.949218 l 0.15234,-0.07032 -0.012,-0.0588 a 18.000002,18.000002 0 0 1 1.957032,-1.464846 z m 12.515623,0.1992 0.35154,0.925782 -0.832032,0.43362 -0.15234,-1.16016 0.632814,-0.1992 z m 7.429687,0.1758 a 18.000002,18.000002 0 0 1 7.746301,14.78909 18.000002,18.000002 0 0 1 -0.07032,1.300782 l -0.33984,0.35154 c 0.10962,-0.0078 0.219,-0.0252 0.32814,-0.0354 a 18.000002,18.000002 0 0 1 -1.300782,5.285161 l -0.14064,0.32814 a 18.000002,18.000002 0 0 1 -7.054693,8.085937 c -0.26916,-0.783414 -0.54204,-1.564494 -0.820308,-2.34375 0,-0.722004 0.0396,-1.410919 0.08202,-2.132809 l 0.43362,-1.007814 -0.59766,-1.171878 0.0468,-1.605468 -0.796872,-0.925782 0.39846,-1.37109 -0.667968,-0.761718 -1.160154,0 -0.3867,-0.445321 -1.148442,0.761719 -0.44532,-0.5625 -1.066405,0.925782 c -0.723714,-0.834336 -1.45491,-1.662355 -2.179686,-2.496097 l -0.867186,-2.050782 0.796872,-1.171872 -0.43362,-0.48048 0.902346,-2.261718 c 0.769572,-0.973483 1.600992,-1.910293 2.414064,-2.847661 l 1.429687,-0.41016 1.628904,-0.1992 1.101564,0.32814 1.582032,1.605468 0.5625,-0.644532 0.75,-0.08202 1.464847,0.48048 1.101558,0 0.75,-0.679686 0.3633,-0.52734 -0.75,-0.48048 -1.3125,-0.08202 C 76.242659,8.372814 75.917482,7.830186 75.49606,7.385292 l -0.39846,0.1992 -0.1992,1.289064 -0.75,-0.87891 -0.16404,-0.972654 -0.867186,-0.726564 -0.35154,0 0.867186,1.007814 -0.3633,0.890628 -0.667968,0.1992 0.43362,-0.87891 -0.75,-0.41016 -0.71484,-0.808596 -1.265628,0.32814 -0.15234,0.39846 -0.796878,0.49218 -0.39846,1.078128 -1.066405,0.52734 -0.48048,-0.52734 -0.51564,0 0,-1.769532 1.113283,-0.609372 0.832032,0 -0.16404,-0.679692 -0.667968,-0.691404 1.148436,-0.23436 0.632814,-0.726559 0.51564,-0.87891 0.949218,0 -0.26952,-0.691404 0.58596,-0.39846 0,0.761718 1.3125,0.32814 1.265622,-1.08984 0.08202,-0.48048 0.0234,-0.0234 z m 4.160161,10.406252 -0.26952,0.281219 0.39846,1.453129 0.703128,0.80859 c 0.41334,1.21341 0.851748,2.379198 1.394532,3.539064 0.2988,0 0.57648,-0.0276 0.867186,-0.0468 l -0.632814,-0.761718 0.35154,-0.843756 -0.703128,-0.80859 -1.160154,-2.496096 -0.949218,-1.125001 z m -32.320318,2.66016 0.25782,0 c -0.0834,0.666666 -0.19848,1.348836 -0.28122,2.015622 l 1.03125,-0.12888 0,1.042968 0.31638,0.972654 c 0.40122,0.25086 0.93219,0.26616 1.382814,0.39846 l 0,-0.1992 1.511718,-1.324218 1.429686,1.042968 1.617187,-0.1992 0.667974,1.816411 1.230468,0.281219 0.667968,1.324219 c 1.347906,0.705084 2.696658,1.412808 4.054686,2.097654 l -0.16404,1.441404 -0.99609,1.417974 0.16404,1.886719 -0.632808,1.535154 -1.265628,0.28122 -0.5625,0.878904 0.23436,0.5625 -0.35154,0.87891 a 18.000002,18.000002 0 0 1 -8.847655,-9.011719 l 0.25782,-0.925782 -0.16404,-0.35154 0.52734,-0.773436 0.621096,-1.804687 0,-0.16404 -0.46878,-0.24612 -0.679686,0.11718 -1.136718,-0.87891 -0.41016,-0.50388 a 18.000002,18.000002 0 0 1 -0.1053,-1.75785 18.000002,18.000002 0 0 1 0.09378,-1.722654 z"
       id="path6495-3" />
    <path
       inkscape:connector-curvature="0"
       style="fill:#175785;fill-opacity:0.55294118;fill-rule:nonzero;stroke:none;stroke-width:0.99999994;stroke-miterlimit:4;stroke-dasharray:none"
       d="m 63.999999,-8.802354 a 24.000003,24.000003 0 0 0 -4.769533,0.48048 24.000003,24.000003 0 0 0 -0.07032,0.012 c -0.0366,0.0078 -0.06864,0.0276 -0.10548,0.0354 a 24.000003,24.000003 0 0 0 -4.265622,1.324218 c -0.0408,0.0168 -0.0882,0.018 -0.12894,0.0354 a 24.000003,24.000003 0 0 0 -0.012,0.012 c -0.0324,0.0138 -0.06144,0.033 -0.09378,0.0468 a 24.000003,24.000003 0 0 0 -3.773437,2.050782 c -0.08796,0.0582 -0.1824,0.104701 -0.26952,0.164041 a 24.000003,24.000003 0 0 0 -3.304686,2.71875 c -0.07932,0.07782 -0.15612,0.15546 -0.23436,0.23436 a 24.000003,24.000003 0 0 0 -2.671872,3.222654 c -0.09324,0.13416 -0.19068,0.26232 -0.28122,0.39846 a 24.000003,24.000003 0 0 0 -1.945315,3.585943 c -0.08388,0.1896 -0.17874,0.37032 -0.25782,0.5625 a 24.000003,24.000003 0 0 0 -1.207032,3.914058 c -0.0456,0.20478 -0.1005,0.40266 -0.14064,0.609378 a 24.000003,24.000003 0 0 0 -0.46842,4.592779 24.000003,24.000003 0 0 0 0.48048,4.769533 24.000003,24.000003 0 0 0 0.012,0.0354 c 0.0096,0.048 0.0252,0.09264 0.0354,0.14064 a 24.000003,24.000003 0 0 0 1.324218,4.265622 c 0.0168,0.0408 0.018,0.0882 0.0354,0.12888 a 24.000003,24.000003 0 0 0 0.012,0.012 c 0.0138,0.0324 0.033,0.06144 0.0468,0.09378 a 24.000003,24.000003 0 0 0 2.050782,3.773437 c 0.0582,0.08796 0.104701,0.18234 0.164041,0.26952 a 24.000003,24.000003 0 0 0 2.71875,3.304686 c 0.07782,0.07932 0.15546,0.15612 0.23436,0.23436 a 24.000003,24.000003 0 0 0 3.222654,2.671872 c 0.13416,0.09324 0.26232,0.19068 0.39846,0.28122 a 24.000003,24.000003 0 0 0 3.585943,1.945315 c 0.1896,0.08388 0.37032,0.17874 0.5625,0.25782 a 24.000003,24.000003 0 0 0 3.914058,1.207032 c 0.20478,0.0456 0.40266,0.1005 0.609378,0.14064 a 24.000003,24.000003 0 0 0 4.592779,0.46824 24.000003,24.000003 0 0 0 4.769533,-0.48048 24.000003,24.000003 0 0 0 0.07032,-0.012 c 0.0366,-0.0078 0.0687,-0.0276 0.10548,-0.0354 a 24.000003,24.000003 0 0 0 4.265622,-1.324218 24.000003,24.000003 0 0 0 0.12888,-0.0354 c 0.0049,-0.0021 0.0066,-0.0096 0.012,-0.012 a 24.000003,24.000003 0 0 0 0.09378,-0.0468 24.000003,24.000003 0 0 0 3.773437,-2.050782 c 0.08796,-0.0582 0.18234,-0.104701 0.26952,-0.164041 a 24.000003,24.000003 0 0 0 3.304686,-2.71875 c 0.07932,-0.07782 0.15612,-0.15546 0.23436,-0.23436 a 24.000003,24.000003 0 0 0 2.671872,-3.222654 c 0.09324,-0.13416 0.19068,-0.26232 0.28122,-0.39846 a 24.000003,24.000003 0 0 0 1.945315,-3.585943 c 0.08388,-0.1896 0.17874,-0.37032 0.25782,-0.5625 A 24.000003,24.000003 0 0 0 87.390878,20.3998 c 0.0456,-0.20478 0.1005,-0.40266 0.14064,-0.609378 a 24.000003,24.000003 0 0 0 0.46848,-4.592779 24.000003,24.000003 0 0 0 -0.48048,-4.769533 24.000003,24.000003 0 0 0 -0.012,-0.07032 c -0.008,-0.0366 -0.0276,-0.0687 -0.0354,-0.10548 a 24.000003,24.000003 0 0 0 -1.324214,-4.265622 24.000003,24.000003 0 0 0 -0.0354,-0.12888 c -0.0021,-0.0049 -0.0096,-0.0066 -0.012,-0.012 a 24.000003,24.000003 0 0 0 -0.0468,-0.09378 24.000003,24.000003 0 0 0 -2.050782,-3.773437 c -0.0582,-0.08796 -0.104701,-0.18234 -0.164041,-0.26952 a 24.000003,24.000003 0 0 0 -2.71875,-3.304686 c -0.07782,-0.07932 -0.15546,-0.15612 -0.23436,-0.23436 a 24.000003,24.000003 0 0 0 -3.222654,-2.671872 c -0.13416,-0.09324 -0.26232,-0.19068 -0.39846,-0.28122 a 24.000003,24.000003 0 0 0 -3.585943,-1.945309 c -0.1896,-0.08388 -0.37032,-0.17874 -0.5625,-0.25782 a 24.000003,24.000003 0 0 0 -3.914058,-1.207032 c -0.20478,-0.0456 -0.40266,-0.1005 -0.609378,-0.14064 a 24.000003,24.000003 0 0 0 -4.592779,-0.46848 z m -0.0588,6.000001 c -0.781416,0.32496 -1.551696,0.67374 -2.390622,0.9375 l -0.949218,1.488282 -0.750001,0.44532 -1.03125,-2.09766 a 18.000002,18.000002 0 0 1 5.121295,-0.773442 z m 1.417968,0.07032 a 18.000002,18.000002 0 0 1 0.949224,0.10548 l -0.39846,0.26952 -0.5508,-0.375 z m 5.742193,1.394532 a 18.000002,18.000002 0 0 1 1.96875,1.007808 l 0.12888,0.35154 -0.43362,1.171878 -0.679692,-0.39846 -0.59766,-0.691404 -0.949218,0.691404 -0.31638,-1.570308 0.87891,-0.5625 z m -3.410161,0.28122 0.550801,0 c 0.27318,0.56688 0.49656,1.09644 0.714846,1.6875 l 0.679686,0.644532 -0.75,0.761718 -1.031251,0.1992 0.199201,-1.277346 0,-0.972654 -0.363301,-0.39846 0,-0.644532 z m -13.382809,1.08984 0.0468,0.0354 -0.16404,0.761718 0.984378,-0.39846 0.44532,0.843756 -0.16404,0.59766 0.5508,0.16404 0.51564,0.48048 -0.15234,0.52734 0.632808,0.445321 -0.5508,0.878904 -0.24612,-1.242187 -1.265628,0.433621 -0.984372,0 -1.429686,0.691404 2.261718,0 -0.761718,1.125 -1.5,0.28122 -0.632815,0.97266 -1.183596,0.48048 -0.5508,1.40625 -1.59375,1.324218 -0.15234,1.933597 -0.914064,-1.160161 -0.832032,-0.1875 a 18.000002,18.000002 0 0 1 4.171878,-7.488283 l 0.07032,0.269521 0.28122,-0.632815 a 18.000002,18.000002 0 0 1 1.019533,-0.949218 l 0.15234,-0.07032 -0.012,-0.0588 a 18.000002,18.000002 0 0 1 1.957032,-1.464846 z m 12.515623,0.1992 0.35154,0.925782 -0.832032,0.43362 -0.15234,-1.16016 0.632814,-0.1992 z m 7.429687,0.1758 a 18.000002,18.000002 0 0 1 7.746301,14.78909 18.000002,18.000002 0 0 1 -0.07032,1.300782 l -0.33984,0.35154 c 0.10962,-0.0078 0.219,-0.0252 0.32814,-0.0354 a 18.000002,18.000002 0 0 1 -1.300782,5.285161 l -0.14064,0.32814 a 18.000002,18.000002 0 0 1 -7.054693,8.085937 c -0.26916,-0.783414 -0.54204,-1.564494 -0.820308,-2.34375 0,-0.722004 0.0396,-1.410919 0.08202,-2.132809 l 0.43362,-1.007814 -0.59766,-1.171878 0.0468,-1.605468 -0.796872,-0.925782 0.39846,-1.37109 -0.667968,-0.761718 -1.160154,0 -0.3867,-0.445321 -1.148442,0.761719 -0.44532,-0.5625 -1.066405,0.925782 c -0.723714,-0.834336 -1.45491,-1.662355 -2.179686,-2.496097 l -0.867186,-2.050782 0.796872,-1.171872 -0.43362,-0.48048 0.902346,-2.261718 c 0.769572,-0.973483 1.600992,-1.910293 2.414064,-2.847661 l 1.429687,-0.41016 1.628904,-0.1992 1.101564,0.32814 1.582032,1.605468 0.5625,-0.644532 0.75,-0.08202 1.464847,0.48048 1.101558,0 0.75,-0.679686 0.3633,-0.52734 -0.75,-0.48048 -1.3125,-0.08202 C 76.242659,7.37246 75.917482,6.829832 75.49606,6.384938 l -0.39846,0.1992 -0.1992,1.289064 -0.75,-0.87891 -0.16404,-0.972654 -0.867186,-0.726564 -0.35154,0 0.867186,1.007814 -0.3633,0.890628 -0.667968,0.1992 0.43362,-0.87891 -0.75,-0.41016 -0.71484,-0.808596 -1.265628,0.32814 -0.15234,0.39846 -0.796878,0.49218 -0.39846,1.078128 -1.066405,0.52734 -0.48048,-0.52734 -0.51564,0 0,-1.769532 1.113283,-0.609372 0.832032,0 -0.16404,-0.679692 -0.667968,-0.691404 1.148436,-0.23436 0.632814,-0.726559 0.51564,-0.87891 0.949218,0 -0.26952,-0.691404 0.58596,-0.39846 0,0.761718 1.3125,0.32814 1.265622,-1.08984 0.08202,-0.48048 0.0234,-0.0234 z m 4.160161,10.406252 -0.26952,0.281219 0.39846,1.453129 0.703128,0.80859 c 0.41334,1.21341 0.851748,2.379198 1.394532,3.539064 0.2988,0 0.57648,-0.0276 0.867186,-0.0468 l -0.632814,-0.761718 0.35154,-0.843756 -0.703128,-0.80859 -1.160154,-2.496096 -0.949218,-1.125001 z m -32.320318,2.66016 0.25782,0 c -0.0834,0.666666 -0.19848,1.348836 -0.28122,2.015622 l 1.03125,-0.12888 0,1.042968 0.31638,0.972654 c 0.40122,0.25086 0.93219,0.26616 1.382814,0.39846 l 0,-0.1992 1.511718,-1.324218 1.429686,1.042968 1.617187,-0.1992 0.667974,1.816411 1.230468,0.281219 0.667968,1.324219 c 1.347906,0.705084 2.696658,1.412808 4.054686,2.097654 l -0.16404,1.441404 -0.99609,1.417974 0.16404,1.886719 -0.632808,1.535154 -1.265628,0.28122 -0.5625,0.878904 0.23436,0.5625 -0.35154,0.87891 a 18.000002,18.000002 0 0 1 -8.847655,-9.011719 l 0.25782,-0.925782 -0.16404,-0.35154 0.52734,-0.773436 0.621096,-1.804687 0,-0.16404 -0.46878,-0.24612 -0.679686,0.11718 -1.136718,-0.87891 -0.41016,-0.50388 a 18.000002,18.000002 0 0 1 -0.1053,-1.75785 18.000002,18.000002 0 0 1 0.09378,-1.722654 z"
       id="path6495" />
  </g>
</svg>
